<svg width="1466" height="70" viewBox="0 0 1466 70" fill="none" xmlns="http://www.w3.org/2000/svg">
<path d="M1254.66 61.0442L1257.74 62.7063L1257.82 62.5631L1257.88 62.4134L1254.66 61.0442ZM1277.91 6.34902L1274.83 4.68904L1274.75 4.83122L1274.69 4.97985L1277.91 6.34902ZM1285.84 6.3822L1289.07 5.03607L1289.01 4.88794L1288.94 4.74608L1285.84 6.3822ZM1308.6 61.011L1305.37 62.3572L1305.43 62.5064L1305.51 62.6492L1308.6 61.011ZM1451 66.8891C1452.93 66.8891 1454.5 65.3221 1454.5 63.3891C1454.5 61.4561 1452.93 59.8891 1451 59.8891V66.8891ZM1207 66.8891H1250.71V59.8891H1207V66.8891ZM1250.71 66.8891C1253.64 66.8891 1256.35 65.2949 1257.74 62.7063L1251.58 59.3821C1251.42 59.6803 1251.09 59.8891 1250.71 59.8891V66.8891ZM1257.88 62.4134L1281.13 7.71818L1274.69 4.97985L1251.44 59.675L1257.88 62.4134ZM1280.99 8.00899C1281.17 7.6811 1281.48 7.50186 1281.87 7.50343C1282.26 7.50499 1282.57 7.68638 1282.75 8.01831L1288.94 4.74608C1285.96 -0.885031 1277.85 -0.91739 1274.83 4.68904L1280.99 8.00899ZM1282.61 7.72832L1305.37 62.3572L1311.83 59.6649L1289.07 5.03607L1282.61 7.72832ZM1305.51 62.6492C1306.9 65.2651 1309.62 66.8891 1312.58 66.8891V59.8891C1312.19 59.8891 1311.86 59.677 1311.7 59.3729L1305.51 62.6492ZM1312.58 66.8891H1451V59.8891H1312.58V66.8891Z" fill="#28DDCB"/>
<path d="M0 63.3892L738 63.3892" stroke="#28DDCB" stroke-width="7" stroke-miterlimit="10"/>
<path d="M876.5 63.3891H1018.66C1020.32 63.3891 1021.83 62.4876 1022.61 61.0442L1045.83 6.34902C1047.52 3.20778 1052.08 3.22437 1053.75 6.3822L1076.49 61.011C1077.26 62.471 1078.79 63.3891 1080.46 63.3891H1211.5" stroke="#28DDCB" stroke-width="7" stroke-miterlimit="10"/>
<path d="M733 63.3891H776.658C778.315 63.3891 779.832 62.4876 780.61 61.0442L803.833 6.34902C805.523 3.20778 810.085 3.22437 811.753 6.3822L834.489 61.011C835.261 62.471 836.789 63.3891 838.457 63.3891H886" stroke="#28DDCB" stroke-width="7" stroke-miterlimit="10"/>
<g filter="url(#filter0_f_575_2805)">
<rect x="1454" y="60" width="9" height="7" fill="#CFFFE2"/>
</g>
<defs>
<filter id="filter0_f_575_2805" x="1451" y="57" width="15" height="13" filterUnits="userSpaceOnUse" color-interpolation-filters="sRGB">
<feFlood flood-opacity="0" result="BackgroundImageFix"/>
<feBlend mode="normal" in="SourceGraphic" in2="BackgroundImageFix" result="shape"/>
<feGaussianBlur stdDeviation="1.5" result="effect1_foregroundBlur_575_2805"/>
</filter>
</defs>
</svg>
