<?xml version="1.0" encoding="UTF-8" standalone="no"?>
<svg
   width="1466"
   height="70"
   viewBox="0 0 1466 70"
   fill="none"
   version="1.1"
   id="svg4"
   sodipodi:docname="heartline_full.svg"
   inkscape:version="1.3.2 (091e20e, 2023-11-25)"
   xmlns:inkscape="http://www.inkscape.org/namespaces/inkscape"
   xmlns:sodipodi="http://sodipodi.sourceforge.net/DTD/sodipodi-0.dtd"
   xmlns="http://www.w3.org/2000/svg"
   xmlns:svg="http://www.w3.org/2000/svg">
  <sodipodi:namedview
     id="namedview4"
     pagecolor="#ffffff"
     bordercolor="#000000"
     borderopacity="0.25"
     inkscape:showpageshadow="2"
     inkscape:pageopacity="0.0"
     inkscape:pagecheckerboard="0"
     inkscape:deskcolor="#d1d1d1"
     inkscape:zoom="6.3312191"
     inkscape:cx="1416.5518"
     inkscape:cy="56.545192"
     inkscape:window-width="1312"
     inkscape:window-height="449"
     inkscape:window-x="0"
     inkscape:window-y="38"
     inkscape:window-maximized="0"
     inkscape:current-layer="svg4" />
  <path
     d="m 1250.91,61.0442 3.08,1.6621 0.08,-0.1432 0.06,-0.1497 z m 23.25,-54.69518 -3.08,-1.65998 -0.08,0.14218 -0.06,0.14863 z m 7.93,0.03318 3.23,-1.34613 -0.06,-0.14813 -0.07,-0.14186 z m 22.76,54.6288 -3.23,1.3462 0.06,0.1492 0.08,0.1428 z m 142.4,5.8781 c 1.93,0 3.5,-1.567 3.5,-3.5 0,-1.933 -1.57,-3.5 -3.5,-3.5 z m -244,0 h 43.71 v -7 h -43.71 z m 43.71,0 c 2.93,0 5.64,-1.5942 7.03,-4.1828 l -6.16,-3.3242 c -0.16,0.2982 -0.49,0.507 -0.87,0.507 z m 7.17,-4.4757 23.25,-54.69522 -6.44,-2.73833 -23.25,54.69515 z m 23.11,-54.40441 c 0.18,-0.32789 0.49,-0.50713 0.88,-0.50556 0.39,0.00156 0.7,0.18295 0.88,0.51488 l 6.19,-3.27223 c -2.98,-5.631111 -11.09,-5.66347 -14.11,-0.05704 z m 1.62,-0.28067 22.76,54.62888 6.46,-2.6923 -22.76,-54.62883 z m 22.9,54.92088 c 1.39,2.6159 4.11,4.2399 7.07,4.2399 v -7 c -0.39,0 -0.72,-0.2121 -0.88,-0.5162 z m 7.07,4.2399 h 138.42 v -7 h -138.42 z"
     fill="#28ddcb"
     id="path1" />
  <path
     d="M0 63.3892L738 63.3892"
     stroke="#28DDCB"
     stroke-width="7"
     stroke-miterlimit="10"
     id="path2" />
  <path
     d="m 867.83,63.3891 h 142.16 c 1.66,0 3.17,-0.9015 3.95,-2.3449 l 23.22,-54.69518 c 1.69,-3.14124 6.25,-3.12465 7.92,0.03318 l 22.74,54.6288 c 0.77,1.46 2.3,2.3781 3.97,2.3781 h 131.04"
     stroke="#28ddcb"
     stroke-width="7"
     stroke-miterlimit="10"
     id="path3" />
  <path
     d="m 729.3,63.3891 h 43.658 c 1.657,0 3.174,-0.9015 3.952,-2.3449 L 800.133,6.34902 c 1.69,-3.14124 6.252,-3.12465 7.92,0.03318 l 22.736,54.6288 c 0.772,1.46 2.3,2.3781 3.968,2.3781 H 882.3"
     stroke="#28ddcb"
     stroke-width="7"
     stroke-miterlimit="10"
     id="path4" />
  <g
     filter="url(#filter0_f_575_2805)"
     id="g4">
    <rect
       x="1454"
       y="60"
       width="9"
       height="7"
       fill="#CFFFE2"
       id="rect4" />
  </g>
  <defs
     id="defs4">
    <filter
       id="filter0_f_575_2805"
       x="1451"
       y="57"
       width="15"
       height="13"
       filterUnits="userSpaceOnUse"
       color-interpolation-filters="sRGB">
      <feFlood
         flood-opacity="0"
         result="BackgroundImageFix"
         id="feFlood4" />
      <feBlend
         mode="normal"
         in="SourceGraphic"
         in2="BackgroundImageFix"
         result="shape"
         id="feBlend4" />
      <feGaussianBlur
         stdDeviation="1.5"
         result="effect1_foregroundBlur_575_2805"
         id="feGaussianBlur4" />
    </filter>
  </defs>
  <path
     d="m 1250.91,61.0442 3.08,1.6621 0.08,-0.1432 0.06,-0.1497 z m 23.25,-54.69518 -3.08,-1.65998 -0.08,0.14218 -0.06,0.14863 z m 7.93,0.03318 3.23,-1.34613 -0.06,-0.14813 -0.07,-0.14186 z m 22.76,54.6288 -3.23,1.3462 0.06,0.1492 0.08,0.1428 z m 142.4,5.8781 c 1.93,0 3.5,-1.567 3.5,-3.5 0,-1.933 -1.57,-3.5 -3.5,-3.5 z m -244,0 h 43.71 v -7 h -43.71 z m 43.71,0 c 2.93,0 5.64,-1.5942 7.03,-4.1828 l -6.16,-3.3242 c -0.16,0.2982 -0.49,0.507 -0.87,0.507 z m 7.17,-4.4757 23.25,-54.69522 -6.44,-2.73833 -23.25,54.69515 z m 23.11,-54.40441 c 0.18,-0.32789 0.49,-0.50713 0.88,-0.50556 0.39,0.00156 0.7,0.18295 0.88,0.51488 l 6.19,-3.27223 c -2.98,-5.631111 -11.09,-5.66347 -14.11,-0.05704 z m 1.62,-0.28067 22.76,54.62888 6.46,-2.6923 -22.76,-54.62883 z m 22.9,54.92088 c 1.39,2.6159 4.11,4.2399 7.07,4.2399 v -7 c -0.39,0 -0.72,-0.2121 -0.88,-0.5162 z m 7.07,4.2399 h 138.42 v -7 h -138.42 z"
     fill="#28ddcb"
     id="path5" />
  <path
     d="m 867.83,63.3891 h 142.16 c 1.66,0 3.17,-0.9015 3.95,-2.3449 l 23.22,-54.69518 c 1.69,-3.14124 6.25,-3.12465 7.92,0.03318 l 22.74,54.6288 c 0.77,1.46 2.3,2.3781 3.97,2.3781 h 131.04"
     stroke="#28ddcb"
     stroke-width="7"
     stroke-miterlimit="10"
     id="path6" />
  <rect
     style="fill:#28ddcb;fill-opacity:1;stroke-width:0.775607"
     id="rect9"
     width="5.6891642"
     height="7.0000372"
     x="1201.1115"
     y="59.888668"
     ry="0.46666926" />
</svg>
