<svg width="618" height="67" viewBox="0 0 618 67" fill="none" xmlns="http://www.w3.org/2000/svg">
<g clip-path="url(#clip0_1282_3244)">
<path d="M521.663 61.0442L524.744 62.7063L524.821 62.5631L524.885 62.4134L521.663 61.0442ZM544.912 6.34902L541.831 4.68904L541.754 4.83122L541.691 4.97985L544.912 6.34902ZM552.841 6.3822L556.072 5.03607L556.01 4.88794L555.935 4.74608L552.841 6.3822ZM575.603 61.011L572.372 62.3572L572.434 62.5064L572.51 62.6492L575.603 61.011ZM614.5 66.8891C616.433 66.8891 618 65.3221 618 63.3891C618 61.4561 616.433 59.8891 614.5 59.8891V66.8891ZM474 66.8891H517.707V59.8891H474V66.8891ZM517.707 66.8891C520.638 66.8891 523.347 65.2949 524.744 62.7063L518.583 59.3821C518.422 59.6803 518.094 59.8891 517.707 59.8891V66.8891ZM524.885 62.4134L548.133 7.71818L541.691 4.97985L518.442 59.675L524.885 62.4134ZM547.994 8.00899C548.17 7.6811 548.478 7.50186 548.871 7.50343C549.264 7.50499 549.572 7.68638 549.747 8.01831L555.935 4.74608C552.958 -0.885031 544.851 -0.91739 541.831 4.68904L547.994 8.00899ZM549.611 7.72832L572.372 62.3572L578.834 59.6649L556.072 5.03607L549.611 7.72832ZM572.51 62.6492C573.895 65.2651 576.621 66.8891 579.576 66.8891V59.8891C579.19 59.8891 578.857 59.677 578.696 59.3729L572.51 62.6492ZM579.576 66.8891H614.5V59.8891H579.576V66.8891Z" fill="#28DDCB"/>
<path d="M143.5 63.3891H285.658C287.315 63.3891 288.832 62.4876 289.61 61.0442L312.833 6.34902C314.523 3.20778 319.085 3.22437 320.753 6.3822L343.489 61.011C344.261 62.471 345.789 63.3891 347.457 63.3891H478.5" stroke="#28DDCB" stroke-width="7" stroke-miterlimit="10"/>
<path d="M0 63.3891H43.6583C45.3151 63.3891 46.8319 62.4876 47.6099 61.0442L70.8328 6.34902C72.5232 3.20778 77.0849 3.22437 78.7528 6.3822L101.489 61.011C102.261 62.471 103.789 63.3891 105.457 63.3891H153" stroke="#28DDCB" stroke-width="7" stroke-miterlimit="10"/>
</g>
<defs>
<clipPath id="clip0_1282_3244">
<rect width="618" height="67" fill="white"/>
</clipPath>
</defs>
</svg>
