<svg width="24" height="23" viewBox="0 0 24 23" fill="none" xmlns="http://www.w3.org/2000/svg">
<g clip-path="url(#clip0_8498_1165)">
<rect x="1.5" y="1" width="21" height="21" rx="2" fill="white"/>
<path d="M20.0234 1.21053C21.2726 1.21053 22.2895 2.22737 22.2895 3.47663V19.5234C22.2895 20.7726 21.2726 21.7895 20.0234 21.7895H3.97663C2.72737 21.7895 1.71053 20.7726 1.71053 19.5234V3.47663C1.71053 2.22737 2.72737 1.21053 3.97663 1.21053H20.0234ZM20.0234 0H3.97663C2.05674 0 0.5 1.55674 0.5 3.47663V19.5234C0.5 21.4433 2.05674 23 3.97663 23H20.0234C21.9433 23 23.5 21.4433 23.5 19.5234V3.47663C23.5 1.55674 21.9433 0 20.0234 0Z" fill="#919191"/>
<path d="M8.55978 12.2717L7.5 13.3315L12.5 18.3587L17.5 13.3315L16.4402 12.2717L13.2609 15.4783V5.6413H11.7391V15.4783L8.55978 12.2717Z" fill="#919191"/>
</g>
<defs>
<clipPath id="clip0_8498_1165">
<rect width="23" height="23" fill="white" transform="translate(0.5)"/>
</clipPath>
</defs>
</svg>
