<svg width="14" height="13" viewBox="0 0 14 13" fill="none" xmlns="http://www.w3.org/2000/svg">
<path d="M5.35835 11.8256C5.31947 11.8617 5.30002 11.8798 5.26114 11.8978C5.2417 11.8978 5.2417 11.9159 5.22226 11.9159C5.20282 11.934 5.16394 11.934 5.1445 11.9521H5.12505L0.614676 12.9819C0.575793 12.9819 0.536911 13 0.498029 13C0.361939 13 0.245292 12.9458 0.148085 12.8735C0.0314369 12.7651 -0.026886 12.6025 0.0119963 12.4399L1.12015 8.24809V8.23002C1.12015 8.21195 1.13959 8.17582 1.15903 8.15775C1.15903 8.13968 1.17847 8.13968 1.17847 8.12161C1.19792 8.10354 1.21736 8.06741 1.2368 8.04934C1.2368 8.04934 1.2368 8.03127 1.25624 8.03127L9.07163 0.785963C10.1992 -0.261987 12.0267 -0.261987 13.1543 0.785963C14.2819 1.83391 14.2819 3.53231 13.1543 4.58026L5.35835 11.8256ZM4.05578 11.2655L1.87836 9.24184L1.15903 11.934L4.05578 11.2655ZM5.00841 10.868L11.2685 5.05003L8.56616 2.53857L2.30607 8.3565L5.00841 10.868ZM12.4739 1.41835C12.1045 1.07505 11.6184 0.894371 11.113 0.894371C10.6075 0.894371 10.1409 1.07505 9.75208 1.41835L9.22716 1.90618L11.9489 4.41765L12.4739 3.92981C13.2126 3.24322 13.2126 2.10493 12.4739 1.41835Z" fill="#3A555E"/>
</svg>
