<svg width="24" height="23" viewBox="0 0 24 23" fill="none" xmlns="http://www.w3.org/2000/svg">
<g clip-path="url(#clip0_8498_1156)">
<rect x="1.5" y="1" width="21" height="21" rx="2" fill="white"/>
<path d="M20.0234 1.21053C21.2726 1.21053 22.2895 2.22737 22.2895 3.47663V19.5234C22.2895 20.7726 21.2726 21.7895 20.0234 21.7895H3.97663C2.72737 21.7895 1.71053 20.7726 1.71053 19.5234V3.47663C1.71053 2.22737 2.72737 1.21053 3.97663 1.21053H20.0234ZM20.0234 0H3.97663C2.05674 0 0.5 1.55674 0.5 3.47663V19.5234C0.5 21.4433 2.05674 23 3.97663 23H20.0234C21.9433 23 23.5 21.4433 23.5 19.5234V3.47663C23.5 1.55674 21.9433 0 20.0234 0Z" fill="#919191"/>
<g clip-path="url(#clip1_8498_1156)">
<path d="M19.9428 3H14.9586V4.11402H18.5993L13.8179 8.89318L14.6044 9.68191L19.3858 4.90052V8.54115H20.4998V3.55701L19.9428 3Z" fill="#919191"/>
<path d="M9.39541 13.3181L4.61402 18.0973V14.4566H3.5V19.443L4.05701 20H9.04338V18.886H5.40275L10.1841 14.1046L9.39541 13.3181Z" fill="#919191"/>
<path d="M4.61402 8.54115V4.89607L9.39541 9.68191L10.1819 8.89541L5.40944 4.11402H9.04338V3H4.05701L3.5 3.55701V8.54115H4.61402Z" fill="#919191"/>
<path d="M19.3858 18.0906L14.6044 13.3159L13.8179 14.1046L18.6059 18.886H14.9586V20H19.9428L20.4998 19.443V14.4566H19.3858V18.0906Z" fill="#919191"/>
</g>
</g>
<defs>
<clipPath id="clip0_8498_1156">
<rect width="23" height="23" fill="white" transform="translate(0.5)"/>
</clipPath>
<clipPath id="clip1_8498_1156">
<rect width="17" height="17" fill="white" transform="translate(3.5 3)"/>
</clipPath>
</defs>
</svg>
