<svg width="17" height="14" viewBox="0 0 17 14" fill="none" xmlns="http://www.w3.org/2000/svg">
<g clip-path="url(#clip0_12386_21377)">
<path fill-rule="evenodd" clip-rule="evenodd" d="M1.58667 0.000100127C1.58667 0.000100127 1.53 0.000100127 1.51111 0.000100127C0.661111 0.0418289 0 0.813811 0 1.75271V9.66031C0 10.4114 0.434444 11.0791 1.07667 11.3086L7.99 13.8958C8.31111 14.021 8.67 14.021 8.99111 13.8958L15.9044 11.3086C16.5467 11.0582 16.9811 10.3906 16.9811 9.66031V1.75271C16.9811 0.563438 15.9044 -0.292001 14.8844 0.0835577L8.48111 2.48296L2.09667 0.0835577C1.92667 0.0209645 1.75667 0.000100127 1.58667 0.000100127ZM15.4322 1.10591C15.7344 1.10591 15.98 1.37715 15.9989 1.75271V9.66031C15.9989 9.93155 15.8478 10.1819 15.6022 10.2862L9.01 12.7482V3.46359L15.2244 1.14764C15.2244 1.14764 15.3756 1.10591 15.4322 1.10591ZM1.60556 1.10591C1.60556 1.10591 1.71889 1.10591 1.77556 1.14764L7.99 3.46359V12.7274L1.39778 10.2654C1.15222 10.1819 1.00111 9.93155 1.00111 9.66031V1.75271C1.00111 1.39801 1.24667 1.12678 1.56778 1.10591C1.56778 1.10591 1.60556 1.10591 1.62444 1.10591H1.60556ZM3.02222 2.85852C2.79556 2.85852 2.58778 3.00457 2.51222 3.23408C2.41778 3.52618 2.56889 3.83915 2.83333 3.9226L5.78 4.98669C6.04444 5.09101 6.32778 4.92409 6.40333 4.63199C6.49778 4.33989 6.34667 4.02693 6.08222 3.94347L3.13556 2.87938C3.13556 2.87938 3.06 2.85852 3.00333 2.85852H3.02222ZM13.9778 2.85852C13.9778 2.85852 13.8833 2.85852 13.8456 2.87938L10.8989 3.94347C10.6344 4.04779 10.5022 4.33989 10.5778 4.63199C10.6722 4.92409 10.9556 5.07015 11.2011 4.98669L14.1478 3.9226C14.4122 3.81828 14.5633 3.52618 14.4689 3.23408C14.3933 3.00457 14.1856 2.83766 13.9589 2.85852H13.9778ZM3.02222 5.65435C2.79556 5.65435 2.58778 5.8004 2.51222 6.02991C2.41778 6.32201 2.56889 6.63497 2.83333 6.71843L5.78 7.78251C6.04444 7.88684 6.32778 7.71992 6.40333 7.42782C6.49778 7.13572 6.34667 6.82275 6.08222 6.7393L3.13556 5.67521C3.13556 5.67521 3.06 5.65435 3.00333 5.65435H3.02222ZM13.9778 5.65435C13.9778 5.65435 13.8833 5.65435 13.8456 5.67521L10.8989 6.7393C10.6344 6.84362 10.5022 7.13572 10.5778 7.42782C10.6722 7.71992 10.9367 7.88684 11.2011 7.78251L14.1478 6.71843C14.4122 6.61411 14.5633 6.32201 14.4689 6.02991C14.3933 5.8004 14.1856 5.63348 13.9589 5.65435H13.9778ZM2.94667 8.45018C2.73889 8.45018 2.56889 8.61709 2.51222 8.82573C2.41778 9.11784 2.56889 9.4308 2.83333 9.51426L5.78 10.5783C6.04444 10.6827 6.32778 10.5157 6.40333 10.2236C6.49778 9.93155 6.34667 9.61858 6.08222 9.53512L3.13556 8.47104C3.13556 8.47104 3.00333 8.42931 2.94667 8.45018ZM13.9778 8.45018C13.9778 8.45018 13.8833 8.45017 13.8456 8.47104L10.8989 9.53512C10.6344 9.63944 10.5022 9.93155 10.5778 10.2236C10.6722 10.5157 10.9367 10.6827 11.2011 10.5783L14.1478 9.51426C14.4122 9.40994 14.5633 9.11784 14.4689 8.82573C14.3933 8.59623 14.1856 8.42931 13.9589 8.45018H13.9778Z" fill="#FFFFFF"/>
</g>
<defs>
<clipPath id="clip0_12386_21377">
<rect width="17" height="14" fill="white"/>
</clipPath>
</defs>
</svg>