<svg width="10" height="11" viewBox="0 0 10 11" fill="none" xmlns="http://www.w3.org/2000/svg">
<path fill-rule="evenodd" clip-rule="evenodd" d="M5 10.938C7.76142 10.938 10 8.69941 10 5.93799C10 3.17656 7.76142 0.937988 5 0.937988C2.23858 0.937988 0 3.17656 0 5.93799C0 8.69941 2.23858 10.938 5 10.938ZM6.44352 3.40712C6.07833 3.09437 5.59431 2.93799 4.99146 2.93799C4.5799 2.93799 4.22051 3.01206 3.91328 3.16021C3.61186 3.30836 3.38289 3.51412 3.22638 3.77749C3.06987 4.04087 2.99451 4.33991 3.00031 4.67461H4.14805C4.14805 4.43319 4.22051 4.24389 4.36542 4.10671C4.51614 3.96954 4.72481 3.90095 4.99146 3.90095C5.24651 3.90095 5.4465 3.97228 5.59141 4.11494C5.74213 4.2576 5.81748 4.44965 5.81748 4.69108C5.81748 5.02578 5.68126 5.25623 5.40882 5.38243C5.13638 5.50863 4.748 5.57173 4.24369 5.57173H3.85242L3.89589 6.97091H4.96538L5.00016 6.33717C5.60301 6.33717 6.08703 6.19725 6.45222 5.91741C6.81741 5.63209 7 5.22057 7 4.68284C7 4.13963 6.81451 3.71439 6.44352 3.40712ZM3.8785 8.74869C4.02342 8.87489 4.20601 8.93799 4.42629 8.93799C4.64076 8.93799 4.81756 8.87489 4.95668 8.74869C5.0958 8.617 5.16536 8.45513 5.16536 8.26309C5.16536 8.07105 5.0958 7.91193 4.95668 7.78573C4.81756 7.65404 4.64076 7.58819 4.42629 7.58819C4.20601 7.58819 4.02342 7.65404 3.8785 7.78573C3.73938 7.91193 3.66982 8.07105 3.66982 8.26309C3.66982 8.45513 3.73938 8.617 3.8785 8.74869Z" fill="#646464"/>
</svg>
