<svg width="11" height="10" viewBox="0 0 11 10" fill="none" xmlns="http://www.w3.org/2000/svg">
<path fill-rule="evenodd" clip-rule="evenodd" d="M5.5 10C8.26142 10 10.5 7.76142 10.5 5C10.5 2.23858 8.26142 0 5.5 0C2.73858 0 0.5 2.23858 0.5 5C0.5 7.76142 2.73858 10 5.5 10ZM6.94352 2.46914C6.57833 2.15638 6.09431 2 5.49146 2C5.0799 2 4.72051 2.07407 4.41328 2.22222C4.11186 2.37037 3.88289 2.57613 3.72638 2.83951C3.56987 3.10288 3.49451 3.40192 3.50031 3.73663H4.64805C4.64805 3.4952 4.72051 3.3059 4.86542 3.16872C5.01614 3.03155 5.22481 2.96296 5.49146 2.96296C5.74651 2.96296 5.9465 3.03429 6.09141 3.17695C6.24213 3.31962 6.31748 3.51166 6.31748 3.75309C6.31748 4.08779 6.18126 4.31824 5.90882 4.44444C5.63638 4.57065 5.248 4.63375 4.74369 4.63375H4.35242L4.39589 6.03292H5.46538L5.50016 5.39918C6.10301 5.39918 6.58703 5.25926 6.95222 4.97942C7.31741 4.6941 7.5 4.28258 7.5 3.74486C7.5 3.20165 7.31451 2.77641 6.94352 2.46914ZM4.3785 7.8107C4.52342 7.9369 4.70601 8 4.92629 8C5.14076 8 5.31756 7.9369 5.45668 7.8107C5.5958 7.67901 5.66536 7.51715 5.66536 7.3251C5.66536 7.13306 5.5958 6.97394 5.45668 6.84774C5.31756 6.71605 5.14076 6.65021 4.92629 6.65021C4.70601 6.65021 4.52342 6.71605 4.3785 6.84774C4.23938 6.97394 4.16982 7.13306 4.16982 7.3251C4.16982 7.51715 4.23938 7.67901 4.3785 7.8107Z" fill="white"/>
</svg>
