<svg width="9" height="14" viewBox="0 0 9 14" fill="none" xmlns="http://www.w3.org/2000/svg">
<path d="M8.9075 4.665L8.435 5.13C8.335 5.23 8.235 5.27 8.135 5.25C8.035 5.225 7.94 5.1675 7.85 5.0775L5.705 2.94C5.465 2.7 5.2725 2.4825 5.1275 2.2875C5.1575 2.5425 5.1825 2.81 5.2025 3.09C5.2225 3.365 5.2325 3.65 5.2325 3.945V13.695H4.0175V3.945C4.0175 3.65 4.0275 3.365 4.0475 3.09C4.0675 2.81 4.095 2.5425 4.13 2.2875C4.05 2.3875 3.9625 2.4925 3.8675 2.6025C3.7725 2.7075 3.6675 2.82 3.5525 2.94L1.3925 5.0925C1.3025 5.1825 1.2075 5.24 1.1075 5.265C1.0075 5.285 0.9075 5.245 0.8075 5.145L0.335 4.68L4.6325 0.389999L8.9075 4.665Z" fill="#0F253A"/>
</svg>
