<svg width="14" height="14" viewBox="0 0 14 14" fill="none" xmlns="http://www.w3.org/2000/svg">
<path fill-rule="evenodd" clip-rule="evenodd" d="M13.6966 6.9767C13.6966 3.27836 10.7099 0.291696 7.01156 0.280029C5.14489 0.280029 3.35989 1.0617 2.09989 2.4267V1.17836C2.09989 0.688363 1.70322 0.280029 1.20156 0.280029C0.699889 0.280029 0.303223 0.688363 0.303223 1.17836V4.74836C0.303223 5.23836 0.699889 5.6467 1.20156 5.6467H4.77156C5.26156 5.6467 5.66989 5.25003 5.66989 4.74836C5.66989 4.2467 5.27322 3.85003 4.77156 3.85003H3.21989C4.94656 1.7617 8.03822 1.47003 10.1266 3.1967C12.2149 4.92336 12.5066 8.01503 10.7799 10.1034C9.85822 11.235 8.46989 11.8884 6.99989 11.8884C6.50989 11.8884 6.10156 12.285 6.10156 12.7867C6.10156 13.2767 6.49822 13.685 6.99989 13.685H7.02322C10.7099 13.6734 13.6966 10.675 13.6966 6.9767Z" fill="#415153"/>
</svg>
