<svg width="11" height="13" viewBox="0 0 11 13" fill="none" xmlns="http://www.w3.org/2000/svg">
<g clip-path="url(#clip0_5657_3369)">
<path d="M10.2129 3.29445C10.13 3.2138 10.0113 3.16492 9.88701 3.16492H1.11297C0.988689 3.16492 0.872696 3.21135 0.789844 3.292C0.706992 3.37265 0.665566 3.48019 0.679375 3.59017L1.58246 11.8727C1.60456 12.0731 1.79235 12.2222 2.01882 12.2222H8.89002C9.11372 12.2222 9.30152 12.0731 9.32637 11.8752L10.3261 3.59261C10.3344 3.48508 10.2957 3.3751 10.2129 3.29445ZM3.48806 10.0813C3.48806 10.3184 3.26988 10.5114 3.002 10.5114C2.73411 10.5114 2.51593 10.3184 2.51593 10.0813V4.89279C2.51593 4.65573 2.73411 4.46266 3.002 4.46266C3.26988 4.46266 3.48806 4.65573 3.48806 4.89279V10.0813ZM5.98743 10.0813C5.98743 10.3184 5.76926 10.5114 5.50137 10.5114C5.23348 10.5114 5.0153 10.3184 5.0153 10.0813V4.89279C5.0153 4.65573 5.23348 4.46266 5.50137 4.46266C5.76926 4.46266 5.98743 4.65573 5.98743 4.89279V10.0813ZM8.47024 10.0813C8.47024 10.3184 8.25206 10.5114 7.98417 10.5114C7.71628 10.5114 7.4981 10.3184 7.4981 10.0813V4.89279C7.4981 4.65573 7.71628 4.46266 7.98417 4.46266C8.25206 4.46266 8.47024 4.65573 8.47024 4.89279V10.0813Z" fill="#385C66"/>
<path d="M10.4504 1.33929H7.15014V0H3.85262V1.33929H0.549586C0.245795 1.33929 0 1.61545 0 1.95272C0 2.28999 0.245795 2.56615 0.549586 2.56615H10.4504C10.7542 2.56615 11 2.28999 11 1.95272C11 1.61545 10.7542 1.33929 10.4504 1.33929ZM4.68114 0.733187H6.32438V1.33929H4.68114V0.733187Z" fill="#385C66"/>
</g>
<defs>
<clipPath id="clip0_5657_3369">
<rect width="11" height="12.2222" fill="white"/>
</clipPath>
</defs>
</svg>