<svg width="17" height="15" viewBox="0 0 17 15" fill="none" xmlns="http://www.w3.org/2000/svg">
<path d="M16.1622 0.390913C16.0266 0.258939 15.8323 0.178955 15.6289 0.178955H1.27141C1.06805 0.178955 0.878243 0.25494 0.742667 0.386914C0.607091 0.518887 0.539303 0.694852 0.561899 0.874816L2.03968 14.4281C2.07583 14.756 2.38314 15 2.75371 15H13.9975C14.3636 15 14.6709 14.756 14.7115 14.4321L16.3475 0.878815C16.361 0.70285 16.2978 0.522886 16.1622 0.390913ZM5.15793 11.4967C5.15793 11.8846 4.80091 12.2006 4.36255 12.2006C3.92419 12.2006 3.56717 11.8846 3.56717 11.4967V3.00639C3.56717 2.61847 3.92419 2.30253 4.36255 2.30253C4.80091 2.30253 5.15793 2.61847 5.15793 3.00639V11.4967ZM9.24781 11.4967C9.24781 11.8846 8.89079 12.2006 8.45243 12.2006C8.01407 12.2006 7.65705 11.8846 7.65705 11.4967V3.00639C7.65705 2.61847 8.01407 2.30253 8.45243 2.30253C8.89079 2.30253 9.24781 2.61847 9.24781 3.00639V11.4967ZM13.3106 11.4967C13.3106 11.8846 12.9536 12.2006 12.5152 12.2006C12.0768 12.2006 11.7198 11.8846 11.7198 11.4967V3.00639C11.7198 2.61847 12.0768 2.30253 12.5152 2.30253C12.9536 2.30253 13.3106 2.61847 13.3106 3.00639V11.4967Z" fill="#4A4A4A"/>
</svg>
