<svg width="14" height="16" viewBox="0 0 14 16" fill="none" xmlns="http://www.w3.org/2000/svg">
<g clip-path="url(#clip0_3851_11325)">
<path d="M12.9982 4.19293C12.8928 4.09029 12.7416 4.02808 12.5835 4.02808H1.4165C1.25833 4.02808 1.1107 4.08718 1.00526 4.18982C0.899808 4.29247 0.847084 4.42933 0.864659 4.5693L2.01404 15.1107C2.04216 15.3658 2.28118 15.5555 2.5694 15.5555H11.3146C11.5993 15.5555 11.8383 15.3658 11.8699 15.1139L13.1423 4.57241C13.1529 4.43555 13.1037 4.29558 12.9982 4.19293ZM4.43935 12.8308C4.43935 13.1325 4.16167 13.3782 3.82072 13.3782C3.47977 13.3782 3.20209 13.1325 3.20209 12.8308V6.22719C3.20209 5.92547 3.47977 5.67975 3.82072 5.67975C4.16167 5.67975 4.43935 5.92547 4.43935 6.22719V12.8308ZM7.62037 12.8308C7.62037 13.1325 7.34269 13.3782 7.00174 13.3782C6.66079 13.3782 6.38311 13.1325 6.38311 12.8308V6.22719C6.38311 5.92547 6.66079 5.67975 7.00174 5.67975C7.34269 5.67975 7.62037 5.92547 7.62037 6.22719V12.8308ZM10.7803 12.8308C10.7803 13.1325 10.5026 13.3782 10.1617 13.3782C9.82072 13.3782 9.54304 13.1325 9.54304 12.8308V6.22719C9.54304 5.92547 9.82072 5.67975 10.1617 5.67975C10.5026 5.67975 10.7803 5.92547 10.7803 6.22719V12.8308Z" fill="#385C66"/>
<path d="M13.3005 1.70455H9.10017V0H4.90334V1.70455H0.699473C0.312829 1.70455 0 2.05603 0 2.48528C0 2.91453 0.312829 3.26601 0.699473 3.26601H13.3005C13.6872 3.26601 14 2.91453 14 2.48528C14 2.05603 13.6872 1.70455 13.3005 1.70455ZM5.95782 0.933147H8.04921V1.70455H5.95782V0.933147Z" fill="#385C66"/>
</g>
<defs>
<clipPath id="clip0_3851_11325">
<rect width="14" height="15.5556" fill="white"/>
</clipPath>
</defs>
</svg>
