<svg width="19" height="20" viewBox="0 0 19 20" fill="none" xmlns="http://www.w3.org/2000/svg">
<g clip-path="url(#clip0_3851_11425)">
<path d="M17.1622 5.39091C17.0266 5.25894 16.8323 5.17896 16.6289 5.17896H2.27141C2.06805 5.17896 1.87824 5.25494 1.74267 5.38691C1.60709 5.51889 1.5393 5.69485 1.5619 5.87482L3.03968 19.4281C3.07583 19.756 3.38314 20 3.75371 20H14.9975C15.3636 20 15.6709 19.756 15.7115 19.4321L17.3475 5.87882C17.361 5.70285 17.2978 5.52289 17.1622 5.39091ZM6.15793 16.4967C6.15793 16.8846 5.80091 17.2006 5.36255 17.2006C4.92419 17.2006 4.56717 16.8846 4.56717 16.4967V8.00639C4.56717 7.61847 4.92419 7.30253 5.36255 7.30253C5.80091 7.30253 6.15793 7.61847 6.15793 8.00639V16.4967ZM10.2478 16.4967C10.2478 16.8846 9.89079 17.2006 9.45243 17.2006C9.01407 17.2006 8.65705 16.8846 8.65705 16.4967V8.00639C8.65705 7.61847 9.01407 7.30253 9.45243 7.30253C9.89079 7.30253 10.2478 7.61847 10.2478 8.00639V16.4967ZM14.3106 16.4967C14.3106 16.8846 13.9536 17.2006 13.5152 17.2006C13.0768 17.2006 12.7198 16.8846 12.7198 16.4967V8.00639C12.7198 7.61847 13.0768 7.30253 13.5152 7.30253C13.9536 7.30253 14.3106 7.61847 14.3106 8.00639V16.4967Z" fill="#4A4A4A"/>
<path d="M17.5509 2.19156H12.1504V0H6.75449V2.19156H1.34952C0.852405 2.19156 0.450195 2.64347 0.450195 3.19536C0.450195 3.74725 0.852405 4.19916 1.34952 4.19916H17.5509C18.048 4.19916 18.4502 3.74725 18.4502 3.19536C18.4502 2.64347 18.048 2.19156 17.5509 2.19156ZM8.11025 1.19976H10.7992V2.19156H8.11025V1.19976Z" fill="#4A4A4A"/>
</g>
<defs>
<clipPath id="clip0_3851_11425">
<rect width="18" height="20" fill="white" transform="translate(0.450195)"/>
</clipPath>
</defs>
</svg>
