<svg xmlns="http://www.w3.org/2000/svg" width="29" height="28" viewBox="0 0 29 28" fill="none">
<g clip-path="url(#clip0_704_6169)">
<path d="M27.8711 21.7L22.8271 16.83C23.635 15.27 24.1011 13.51 24.1011 11.64C24.1011 5.22 18.6946 0 12.0557 0C10.9786 0 9.88071 0.15 8.80357 0.44C8.03714 0.65 7.58143 1.42 7.79893 2.17C8.01643 2.92 8.82429 3.35 9.58036 3.14C10.4089 2.92 11.2375 2.8 12.0557 2.8C16.8821 2.8 20.8282 6.42 21.17 11H16.2296C15.7221 11 15.2561 11.25 14.9971 11.67L13.7025 13.71L11.6518 5.65C11.5068 5.06 10.9786 4.63 10.3468 4.59C9.70464 4.56 9.135 4.9 8.89679 5.47L6.61821 11.01H2.94143C3.10714 8.77 4.12214 6.71 5.86214 5.16C6.4525 4.64 6.48357 3.75 5.945 3.18C5.39607 2.61 4.48464 2.58 3.89429 3.1C1.41893 5.3 0 8.41 0 11.64C0 18.06 5.40643 23.28 12.0557 23.28C13.9925 23.28 15.805 22.83 17.4311 22.04L22.475 26.91C23.2311 27.64 24.2254 28 25.2093 28C26.1932 28 27.1564 27.64 27.9021 26.93C29.3832 25.5 29.3832 23.15 27.8814 21.7H27.8711Z" fill="black"/>
<path d="M3.03477 13.9299H7.43656C8.02691 13.9299 8.56549 13.5799 8.78298 13.0499L9.75656 10.6899L11.5587 17.7599C11.6933 18.3099 12.1698 18.7199 12.7394 18.8099C12.8119 18.8199 12.8948 18.8299 12.9673 18.8299C13.4644 18.8299 13.9408 18.5799 14.1998 18.1599L16.8823 13.9299H20.7558C19.7512 17.7599 16.1676 20.5999 11.8901 20.5999C7.61263 20.5999 4.02906 17.7599 3.02441 13.9299H3.03477Z" fill="#FEEB83"/>
<path d="M26.1516 25.0801C25.7995 25.4201 25.1988 25.4101 24.8259 25.0601L20.1963 20.5901C20.6624 20.2101 21.0974 19.7901 21.4909 19.3401L26.1206 23.8101C26.4831 24.1601 26.4934 24.7501 26.1516 25.0901V25.0801Z" fill="white"/>
</g>
<defs>
<clipPath id="clip0_704_6169">
<rect width="29" height="28" fill="white"/>
</clipPath>
</defs>
</svg>