<svg width="32" height="28" viewBox="0 0 32 28" fill="none" xmlns="http://www.w3.org/2000/svg">
<g clip-path="url(#clip0_3059_17186)">
<path d="M22.0177 17.647V17.0508C22.0177 16.5739 21.5315 16.0969 21.0452 16.0969C20.5589 16.0969 20.0726 16.5739 20.0726 17.0508V17.647C20.0726 17.8855 19.8295 18.0047 19.4648 18.0047H12.6569C12.2922 18.0047 12.0491 17.7662 12.0491 17.647V17.0508C12.0491 16.5739 11.5628 16.0969 11.0766 16.0969C10.5903 16.0969 10.104 16.5739 10.104 17.0508V17.647C10.104 18.9586 11.1981 19.9125 12.6569 19.9125H19.4648C20.9236 19.9125 22.0177 18.9586 22.0177 17.647Z" fill="#172851"/>
<path d="M31.5 10.1351H0.5V26.8282H31.6216L31.5 10.1351ZM30.1627 25.5166H1.95882V11.5659H30.1627V25.5166Z" fill="#172851"/>
<path d="M26.8804 2.26549H25.9078V0H6.21373V2.26549H4.99804L0.5 10.1351H31.6216L26.8804 2.26549ZM24.8137 5.72334H7.42941V1.07313H24.8137V5.72334Z" fill="#172851"/>
<path d="M24.6919 1.07312H7.30762V5.72334H24.6919V1.07312Z" fill="white"/>
<path d="M27.7313 7.39264H4.26855V10.1351H27.7313V7.39264Z" fill="#008F8F"/>
<path d="M10.955 2.9809H9.98242V3.93479H10.955V2.9809Z" fill="#008F8F"/>
<path d="M21.8959 3.10016H12.0488V4.05405H21.8959V3.10016Z" fill="#008F8F"/>
</g>
<defs>
<clipPath id="clip0_3059_17186">
<rect width="31" height="27.9" fill="white" transform="translate(0.5 0.0499878)"/>
</clipPath>
</defs>
</svg>
