<svg width="25" height="31" viewBox="0 0 25 31" fill="none" xmlns="http://www.w3.org/2000/svg">
<g clip-path="url(#clip0_710_6173)">
<path d="M24.1408 23.0729C23.7948 22.7297 23.3595 22.4751 22.8908 22.3422C22.9577 21.6669 22.9131 20.9804 22.7792 20.3051C23.1921 19.829 23.4265 19.2201 23.4376 18.6001C23.4376 17.9579 23.1921 17.349 22.768 16.8729C22.6676 16.4633 18.3484 12.389 17.9912 11.9794C19.1519 10.6729 19.7881 8.97901 19.7881 7.24079C19.7881 6.77579 19.7434 6.32187 19.6542 5.86794C21.1832 5.08187 21.7859 3.21079 20.9934 1.69401C20.201 0.177222 18.3149 -0.420635 16.7859 0.365437C16.5068 0.509365 16.239 0.69758 16.0158 0.919008C13.8283 -0.298849 11.1609 -0.298849 8.97336 0.919008C7.74568 -0.287778 5.77023 -0.287778 4.55371 0.919008C3.3372 2.13687 3.3372 4.09651 4.55371 5.30329C4.77693 5.52472 5.04479 5.71294 5.3238 5.85686C5.23452 6.31079 5.18988 6.76472 5.18988 7.22972C5.18988 8.97901 5.82604 10.6619 6.98675 11.9683C6.58496 12.4333 2.36621 16.4079 2.20996 16.8508C1.32827 17.8251 1.31711 19.3197 2.20996 20.294C2.07604 20.9583 2.04255 21.6447 2.09836 22.3312C1.61845 22.464 1.19434 22.7187 0.848357 23.0619C0.290321 23.6597 -0.0221786 24.4569 0.000142838 25.2761C0.0782678 26.7708 0.725589 28.1658 1.81934 29.1954C2.85729 30.2804 4.26354 30.9226 5.77023 31.0001C6.59613 31.0222 7.3997 30.7122 7.99121 30.1476C8.22559 29.904 8.41532 29.6272 8.54925 29.3283C8.83943 29.3836 9.14077 29.4169 9.44211 29.439H15.5805C15.8707 29.4169 16.1609 29.3836 16.4399 29.3283C16.5738 29.6272 16.7635 29.9151 16.9979 30.1476C17.5894 30.7122 18.393 31.0222 19.2189 31.0001C22.2992 30.7676 24.7434 28.3319 24.989 25.2761C25.0113 24.4569 24.71 23.6597 24.1296 23.0729H24.1408ZM15.4912 5.18151C16.0381 5.18151 16.4845 5.62436 16.4845 6.16686C16.4845 6.70936 16.0381 7.15222 15.4912 7.15222C14.9443 7.15222 14.4979 6.70936 14.4979 6.16686C14.4979 5.62436 14.9443 5.18151 15.4912 5.18151ZM9.50907 5.18151C10.0559 5.18151 10.5024 5.62436 10.5024 6.16686C10.5024 6.70936 10.0559 7.15222 9.50907 7.15222C8.9622 7.15222 8.51577 6.70936 8.51577 6.16686C8.51577 5.62436 8.9622 5.18151 9.50907 5.18151ZM12.489 26.1397C12.489 26.1397 7.61175 21.2904 7.55595 21.224C8.61621 20.7701 9.3305 19.7515 9.3863 18.6001C9.34166 17.4929 8.67202 16.4965 7.65639 16.0315C8.06934 15.7769 8.54925 15.644 9.04032 15.6329C9.76577 15.6108 10.9042 15.8544 12.1318 17.0722C12.3327 17.2715 12.6676 17.2715 12.8684 17.0722C13.6497 16.1865 14.7769 15.6662 15.96 15.6329C16.451 15.644 16.9309 15.7879 17.3439 16.0315C16.3394 16.5076 15.6809 17.4929 15.6363 18.6001C15.6809 19.7404 16.3841 20.759 17.4443 21.224C17.3774 21.2904 12.5001 26.1397 12.5001 26.1397H12.489Z" fill="black"/>
<path d="M12.5449 26.1175C12.5449 26.1175 7.66762 21.2682 7.61182 21.2018C8.67208 20.7479 9.38637 19.7293 9.44217 18.5779C9.39753 17.4707 8.72789 16.4743 7.71226 16.0093C8.12521 15.7546 8.60512 15.6218 9.09619 15.6107C9.82164 15.5886 10.96 15.8321 12.1877 17.05C12.3886 17.2493 12.7234 17.2493 12.9243 17.05C13.7056 16.1643 14.8328 15.6439 16.0158 15.6107C16.5069 15.6218 16.9868 15.7657 17.3998 16.0093C16.3953 16.4854 15.7368 17.4707 15.6922 18.5779C15.7368 19.7182 16.4399 20.7368 17.5002 21.2018C17.4332 21.2682 12.556 26.1175 12.556 26.1175H12.5449Z" fill="white"/>
<path d="M6.14971 28.1547C6.14971 28.1547 6.13855 28.2543 6.10507 28.3097C6.01578 28.3539 5.91533 28.365 5.81489 28.365C5.0448 28.2875 4.33051 27.9332 3.81712 27.3575C3.32605 26.8925 2.98007 26.3057 2.82382 25.6525C2.76801 25.4643 2.77917 25.2761 2.84614 25.0989C2.95774 25.0547 3.06935 25.0325 3.19212 25.0436C3.93989 25.1322 4.63185 25.4975 5.13408 26.0511C5.62515 26.5161 5.97114 27.1139 6.12739 27.7672C6.14971 27.9 6.16087 28.0329 6.12739 28.1657L6.14971 28.1547Z" fill="#FEEB83"/>
<path d="M16.719 10.9275C16.5515 12.8208 14.1855 13.4961 12.556 13.5072C10.9265 13.485 8.56048 12.8208 8.39307 10.9275C8.39307 9.53254 10.3015 8.3479 12.556 8.3479C14.8105 8.3479 16.719 9.53254 16.719 10.9275Z" fill="#FEEB83"/>
<path d="M22.2771 25.6305C22.1208 26.2837 21.786 26.8816 21.2838 27.3355C20.7704 27.9112 20.0561 28.2655 19.286 28.343C19.1855 28.343 19.0851 28.343 18.9958 28.2876C18.9289 28.1105 18.9177 27.9223 18.9623 27.7341C19.1186 27.0809 19.4646 26.483 19.9556 26.018C20.4579 25.4644 21.1498 25.1101 21.8976 25.0105C22.0092 25.0105 22.132 25.0105 22.2436 25.0659C22.3105 25.243 22.3217 25.4423 22.2659 25.6194L22.2771 25.6305Z" fill="#FEEB83"/>
<path d="M14.1295 11.4145C13.9621 11.2374 13.6942 11.2374 13.5268 11.3924C13.4041 11.5363 13.2367 11.6249 13.0469 11.647C13.0023 11.647 12.9576 11.6138 12.913 11.5695V11.1488C13.5492 11.016 13.9844 10.6285 13.9844 10.1302C13.9844 9.52131 13.3371 9.06738 12.4777 9.06738C11.6183 9.06738 10.971 9.52131 10.971 10.1302C10.971 10.6285 11.4175 11.027 12.0425 11.1488V11.5695C12.0425 11.5695 11.9643 11.636 11.9085 11.647C11.7188 11.6249 11.5514 11.5363 11.4398 11.3924C11.2612 11.2374 10.9933 11.2485 10.8371 11.4256C10.6808 11.5917 10.692 11.8574 10.8594 12.0124C11.1273 12.3002 11.4956 12.4663 11.8862 12.4995C11.942 12.4995 11.9978 12.4995 12.0536 12.4885C12.1987 12.4663 12.3438 12.3999 12.4666 12.3224C12.5893 12.411 12.7344 12.4663 12.8795 12.4885C12.9353 12.4885 12.9911 12.4995 13.0469 12.4995C13.4375 12.4774 13.8058 12.3002 14.0737 12.0124C14.2411 11.8463 14.2523 11.5806 14.096 11.4145H14.1295Z" fill="black"/>
</g>
<defs>
<clipPath id="clip0_710_6173">
<rect width="25" height="31" fill="white"/>
</clipPath>
</defs>
</svg>
