<svg width="30" height="30" viewBox="0 0 30 30" fill="none" xmlns="http://www.w3.org/2000/svg">
<g clip-path="url(#clip0_3059_17200)">
<path d="M29.42 17.78C29.23 16.92 28.73 16.05 27.88 15.13C26.19 13.3 23.78 11.95 21.42 11.53C21.38 11.53 20.96 11.49 20.91 11.49C20.83 11.49 20.58 11.49 20.4 11.51L20.67 11.21C21.02 10.83 21.34 10.36 21.62 9.81003C22.07 8.96003 22.58 7.61003 22.51 6.02003V5.80003L22.72 5.76003C22.82 5.74003 22.91 5.73003 23.01 5.70003C23.52 5.57003 23.98 5.30003 24.34 4.94003C24.75 4.53003 25.02 4.01003 25.1 3.46003C25.19 2.84003 25.04 2.17003 24.68 1.53003C24.33 0.900025 23.82 0.420025 23.25 0.180025C22.62 -0.0799749 22 -0.0299749 21.6 0.0600251C21.13 0.170025 20.68 0.380025 20.24 0.680025C19.99 0.860025 19.76 1.07003 19.55 1.34003L19.43 1.49003L19.26 1.41003C18.05 0.880025 16.54 0.610025 14.75 0.610025C12.96 0.610025 11.45 0.880025 10.25 1.41003L10.08 1.49003L9.96003 1.34003C9.75003 1.08003 9.52003 0.860025 9.27003 0.680025C8.84003 0.370025 8.38003 0.160025 7.91003 0.0600251C7.64003 2.51196e-05 7.37003 -0.0199749 7.10003 -0.00997488C6.81003 0.0100251 6.52003 0.0700251 6.26003 0.180025C5.69003 0.420025 5.19003 0.880025 4.83003 1.53003C4.47003 2.17003 4.33003 2.84003 4.41003 3.46003C4.49003 4.01003 4.75003 4.53003 5.17003 4.94003C5.54003 5.30003 6.00003 5.56003 6.50003 5.70003C6.59003 5.72003 6.69003 5.74003 6.79003 5.76003L7.01003 5.80003V6.02003C6.92003 7.61003 7.44003 8.96003 7.89003 9.81003C8.13003 10.26 8.41003 10.68 8.72003 11.06L8.87003 11.24L8.70003 11.4C8.70003 11.4 8.67003 11.43 8.65003 11.45C8.47003 11.47 8.21003 11.51 8.20003 11.52C8.16003 11.52 8.12003 11.52 8.08003 11.52C5.72003 11.94 3.30003 13.29 1.62003 15.12C0.78003 16.04 0.28003 16.9 0.0900302 17.77C-0.11997 18.75 0.21003 19.76 0.94003 20.35C1.62003 20.91 2.46003 21.14 3.24003 21.01C3.80003 20.91 4.32003 20.65 4.87003 20.2L5.22003 19.91L5.29003 20.47L5.21003 20.6C4.29003 21.57 3.76003 22.93 3.76003 24.32C3.76003 27.17 5.86003 29.48 8.43003 29.48C9.90003 29.48 11.25 28.72 12.15 27.4L12.26 27.24L12.45 27.31C13.48 27.7 14.43 27.6 14.54 27.59C14.72 27.6 15.85 27.73 16.97 27.2L17.17 27.11L17.29 27.3C18.18 28.7 19.57 29.5 21.1 29.5C23.68 29.5 25.77 27.19 25.77 24.34C25.77 23.02 25.31 21.76 24.47 20.78L23.29 19.41L24.8 20.41C25.29 20.74 25.77 20.94 26.26 21.02C27.07 21.16 27.92 20.92 28.6 20.37C29.33 19.78 29.66 18.76 29.45 17.79L29.42 17.78ZM20.79 2.03003C20.88 1.95003 20.95 1.88003 21.03 1.82003C21.3 1.62003 21.62 1.48003 21.9 1.41003C22.05 1.37003 22.19 1.36003 22.33 1.37003C22.47 1.37003 22.6 1.41003 22.73 1.46003C23.03 1.58003 23.27 1.82003 23.49 2.21003C23.71 2.60003 23.79 2.94003 23.75 3.27003C23.71 3.53003 23.59 3.76003 23.39 3.97003C23.2 4.16003 22.93 4.31003 22.67 4.38003C22.56 4.41003 22.46 4.42003 22.38 4.42003H22.21L22.14 4.26003C21.85 3.54003 21.4 2.91003 20.82 2.40003L20.61 2.22003L20.81 2.03003H20.79ZM7.37003 4.26003L7.30003 4.42003H7.13003C7.04003 4.42003 6.95003 4.40003 6.83003 4.38003C6.57003 4.31003 6.30003 4.16003 6.11003 3.97003C5.90003 3.77003 5.79003 3.54003 5.75003 3.27003C5.70003 2.94003 5.79003 2.60003 6.01003 2.21003C6.23003 1.82003 6.47003 1.58003 6.77003 1.46003C6.90003 1.41003 7.03003 1.38003 7.17003 1.37003C7.30003 1.37003 7.45003 1.37003 7.60003 1.41003C7.87003 1.47003 8.19003 1.62003 8.46003 1.82003C8.55003 1.88003 8.62003 1.95003 8.69003 2.01003L8.89003 2.20003L8.70003 2.39003C8.11003 2.91003 7.67003 3.53003 7.38003 4.25003L7.37003 4.26003ZM8.36003 6.06003C8.43003 4.89003 8.88003 3.99002 9.75003 3.30002C10.83 2.44002 12.51 2.01003 14.74 2.01003C16.97 2.01003 18.66 2.45002 19.74 3.30002C20.61 3.99002 21.07 4.89003 21.13 6.06003C21.18 7.05003 20.92 8.19002 20.4 9.17002C20.28 9.41002 20.13 9.64003 19.93 9.89003L19.63 10.29L19.49 9.81003C19.29 9.13003 18.9 8.53002 18.36 8.08002C17.47 7.35002 16.22 6.97003 14.74 6.96003C13.25 6.96003 12 7.35002 11.12 8.08002C10.58 8.53002 10.19 9.12003 9.99003 9.81003L9.85003 10.29L9.55003 9.89003C9.36003 9.64003 9.21003 9.40002 9.09003 9.17002C8.58003 8.20002 8.31003 7.04003 8.36003 6.06003ZM14.24 9.61002C14.36 9.75002 14.53 9.82002 14.72 9.83002C15.11 9.85002 15.42 9.55002 15.43 9.17002V8.38002L15.73 8.43003C16.45 8.55003 17.06 8.80002 17.5 9.16002C18.02 9.59002 18.28 10.11 18.27 10.71C18.27 11.13 18.12 11.75 17.44 12.3C16.99 12.67 16.17 13.11 14.78 13.13C13.33 13.11 12.5 12.67 12.05 12.3C11.38 11.75 11.22 11.13 11.22 10.71C11.22 10.12 11.48 9.58002 12 9.16002C12.44 8.80002 13.06 8.55003 13.78 8.43003L14.08 8.38002V9.12002C14.06 9.31002 14.12 9.48002 14.25 9.62002L14.24 9.61002ZM4.11003 19.04C3.72003 19.38 3.32003 19.6 2.97003 19.67C2.88003 19.69 2.79003 19.7 2.69003 19.7C2.41003 19.7 2.14003 19.61 1.77003 19.31C1.31003 18.94 1.28003 18.62 1.40003 18.09C1.53003 17.51 1.98003 16.76 2.60003 16.08C3.55003 15.04 4.99003 14.06 6.45003 13.47L7.16003 13.18L6.76003 13.83C6.02003 15.03 5.53003 16.28 5.30003 17.54L5.27003 17.62C5.08003 17.94 4.67003 18.54 4.10003 19.05L4.11003 19.04ZM8.42003 28.13C6.60003 28.13 5.12003 26.43 5.12003 24.34C5.12003 22.25 6.60003 20.56 8.42003 20.56C10.24 20.56 11.71 22.26 11.71 24.34C11.71 26.42 10.23 28.13 8.42003 28.13ZM16.41 24.34C16.41 24.76 16.46 25.2 16.57 25.64L16.62 25.84L16.43 25.92C15.78 26.22 14.8 26.23 14.64 26.23H14.62C14.56 26.23 14.53 26.23 14.49 26.23C14.44 26.23 13.71 26.23 13.07 26.06L12.83 25.99L12.89 25.75C13.01 25.28 13.08 24.79 13.08 24.32C13.08 21.48 10.99 19.16 8.42003 19.16C7.90003 19.16 7.39003 19.26 6.89003 19.45L6.55003 19.58V19.22C6.51003 15.35 9.46003 12.54 9.58003 12.43C9.65003 12.37 9.91003 12.03 9.91003 12.03L10.25 12.21L10.29 12.28C10.53 12.7 10.82 13.05 11.17 13.34C11.67 13.75 12.32 14.06 13.1 14.26L13.46 14.35L11.37 17.14C11.24 17.29 11.17 17.47 11.19 17.65C11.21 17.83 11.28 18 11.42 18.12C11.71 18.37 12.14 18.34 12.39 18.06C12.41 18.03 12.44 18 12.45 17.97L14.73 14.93L16.99 17.95C17.1 18.12 17.25 18.22 17.43 18.26C17.62 18.3 17.79 18.26 17.95 18.16C18.1 18.06 18.21 17.91 18.25 17.73C18.29 17.55 18.25 17.37 18.15 17.21C18.13 17.18 18.11 17.16 18.09 17.13L15.99 14.33L16.35 14.24C17.13 14.04 17.78 13.73 18.28 13.32C18.58 13.07 18.84 12.77 19.08 12.38L19.26 12.1L19.53 12.4C19.66 12.53 22.55 15.28 22.57 19.09V19.43L22.25 19.34C21.85 19.22 21.44 19.16 21.05 19.16C18.48 19.16 16.38 21.47 16.38 24.32L16.41 24.34ZM24.37 24.34C24.37 26.43 22.89 28.13 21.08 28.13C19.27 28.13 17.79 26.43 17.79 24.34C17.79 22.25 19.27 20.56 21.08 20.56C22.89 20.56 24.37 22.26 24.37 24.34ZM27.71 19.3C27.34 19.6 27.06 19.69 26.76 19.69C26.66 19.69 26.56 19.68 26.46 19.66C26.08 19.59 25.62 19.37 25.18 19.01C24.5 18.47 24.03 17.81 23.86 17.56L23.82 17.47C23.58 16.17 23.05 14.88 22.26 13.64L21.87 13.02L22.56 13.27C24.19 13.85 25.8 14.89 26.87 16.06C27.5 16.75 27.95 17.5 28.08 18.07C28.2 18.6 28.17 18.92 27.71 19.29V19.3Z" fill="#231F20"/>
<path d="M17.46 6.42004C18.12 6.42004 18.65 5.89004 18.65 5.23004C18.65 4.57004 18.12 4.04004 17.46 4.04004C16.8 4.04004 16.27 4.57004 16.27 5.23004C16.27 5.89004 16.8 6.42004 17.46 6.42004Z" fill="#231F20"/>
<path d="M11.83 6.42004C12.49 6.42004 13.02 5.89004 13.02 5.23004C13.02 4.57004 12.49 4.04004 11.83 4.04004C11.17 4.04004 10.64 4.57004 10.64 5.23004C10.64 5.89004 11.17 6.42004 11.83 6.42004Z" fill="#231F20"/>
<path d="M16.41 24.34C16.41 24.76 16.46 25.2 16.57 25.64L16.62 25.84L16.43 25.92C15.78 26.22 14.8 26.23 14.64 26.23H14.62C14.56 26.23 14.53 26.23 14.49 26.23C14.44 26.23 13.71 26.23 13.07 26.06L12.83 25.99L12.89 25.75C13.01 25.28 13.08 24.79 13.08 24.32C13.08 21.48 10.99 19.16 8.41996 19.16C7.89996 19.16 7.38996 19.26 6.88996 19.45L6.54996 19.58V19.22C6.50996 15.35 9.45996 12.54 9.57996 12.43C9.64996 12.37 9.90996 12.03 9.90996 12.03L10.25 12.21L10.29 12.28C10.53 12.7 10.82 13.05 11.17 13.34C11.67 13.75 12.32 14.06 13.1 14.26L13.46 14.35L11.37 17.14C11.24 17.29 11.17 17.47 11.19 17.65C11.21 17.83 11.28 18 11.42 18.12C11.71 18.37 12.14 18.34 12.39 18.06C12.41 18.03 12.44 18 12.45 17.97L14.73 14.93L16.99 17.95C17.1 18.12 17.25 18.22 17.43 18.26C17.62 18.3 17.79 18.26 17.95 18.16C18.1 18.06 18.21 17.91 18.25 17.73C18.29 17.55 18.25 17.37 18.15 17.21C18.13 17.18 18.11 17.16 18.09 17.13L15.99 14.33L16.35 14.24C17.13 14.04 17.78 13.73 18.28 13.32C18.58 13.07 18.84 12.77 19.08 12.38L19.26 12.1L19.53 12.4C19.66 12.53 22.55 15.28 22.57 19.09V19.43L22.25 19.34C21.85 19.22 21.44 19.16 21.05 19.16C18.48 19.16 16.38 21.47 16.38 24.32L16.41 24.34Z" fill="white"/>
<path d="M20.8 2.01999C20.89 1.93999 20.96 1.86999 21.04 1.80999C21.31 1.60999 21.63 1.46999 21.91 1.39999C22.06 1.35999 22.2 1.34999 22.34 1.35999C22.48 1.35999 22.61 1.39999 22.74 1.44999C23.04 1.56999 23.28 1.80999 23.5 2.19999C23.72 2.58999 23.8 2.92999 23.76 3.25999C23.72 3.51999 23.6 3.74999 23.4 3.95999C23.21 4.14999 22.94 4.29999 22.68 4.36999C22.57 4.39999 22.47 4.40999 22.39 4.40999H22.22L22.15 4.24999C21.86 3.52999 21.41 2.89999 20.83 2.38999L20.62 2.20999L20.82 2.01999H20.8Z" fill="#008F8F"/>
<path d="M7.38003 4.24999L7.31003 4.40999H7.14003C7.05003 4.40999 6.96003 4.38999 6.84003 4.36999C6.58003 4.29999 6.31003 4.14999 6.12003 3.95999C5.91003 3.75999 5.80003 3.52999 5.76003 3.25999C5.71003 2.92999 5.80003 2.58999 6.02003 2.19999C6.24003 1.80999 6.48003 1.56999 6.78003 1.44999C6.91003 1.39999 7.04003 1.36999 7.18003 1.35999C7.31003 1.35999 7.46003 1.35999 7.61003 1.39999C7.88003 1.45999 8.20003 1.60999 8.47003 1.80999C8.56003 1.86999 8.63003 1.93999 8.70003 1.99999L8.90003 2.18999L8.71003 2.37999C8.12003 2.89999 7.68003 3.51998 7.39003 4.23998L7.38003 4.24999Z" fill="#008F8F"/>
<path d="M8.43001 28.12C6.61001 28.12 5.13 26.42 5.13 24.33C5.13 22.24 6.61001 20.55 8.43001 20.55C10.25 20.55 11.72 22.25 11.72 24.33C11.72 26.41 10.24 28.12 8.43001 28.12Z" fill="#008F8F"/>
<path d="M24.38 24.33C24.38 26.42 22.9 28.12 21.09 28.12C19.28 28.12 17.8 26.42 17.8 24.33C17.8 22.24 19.28 20.55 21.09 20.55C22.9 20.55 24.38 22.25 24.38 24.33Z" fill="#008F8F"/>
</g>
<defs>
<clipPath id="clip0_3059_17200">
<rect width="29.48" height="29.5" fill="white"/>
</clipPath>
</defs>
</svg>
