<svg width="34" height="28" viewBox="0 0 34 28" fill="none" xmlns="http://www.w3.org/2000/svg">
<g clip-path="url(#clip0_3059_17172)">
<path d="M8.99269 2.20087H5.05066V13.3275H8.99269V2.20087Z" fill="white"/>
<path d="M18.971 2.32312H14.9058V10.2707H18.971V2.32312Z" fill="white"/>
<path d="M28.826 2.07861H24.6376V12.1048H28.826V2.07861Z" fill="white"/>
<path d="M32.2753 24.5764V7.82533C32.2753 7.45852 32.0289 7.09171 31.5362 7.09171H29.442V2.32315H29.8115C30.1811 2.32315 30.5507 2.0786 30.5507 1.58952C30.5507 1.10044 30.3043 0.855896 29.8115 0.855896H23.4057C23.0362 0.855896 22.6666 1.10044 22.6666 1.58952C22.6666 2.0786 22.913 2.32315 23.4057 2.32315H23.7753V7.09171H19.7101V2.32315H20.0797C20.4492 2.32315 20.8188 2.0786 20.8188 1.58952C20.8188 1.10044 20.5724 0.855896 20.0797 0.855896H13.6739C13.3043 0.855896 12.9347 1.10044 12.9347 1.58952C12.9347 2.0786 13.1811 2.32315 13.6739 2.32315H14.0434V7.09171H10.3478V2.32315H10.7173C11.0869 2.32315 11.4565 2.0786 11.4565 1.58952C11.4565 1.10044 11.0869 0.978167 10.7173 0.978167H4.31154C3.94197 0.978167 3.69559 1.22271 3.69559 1.58952C3.69559 1.95633 3.94197 2.32315 4.43472 2.32315H4.80429V7.09171H2.71009C2.21733 7.09171 1.97096 7.33625 1.97096 7.82533V24.6987H0.369507V28.1223H33.8768V24.6987H32.2753V24.5764ZM28.0869 2.32315V11.6157H25.3768V2.32315H28.0869ZM15.7681 2.32315H18.6014V10.2707H15.7681V2.32315ZM6.15936 2.32315H8.86951V12.9607H6.15936V2.32315ZM3.44922 8.43668H4.80429V17.7293C4.80429 19.1965 6.03617 20.5415 7.63762 20.5415C9.23907 20.5415 10.471 19.3188 10.471 17.7293V8.43668H14.413V17.7293C14.413 19.1965 15.6449 20.5415 17.2463 20.5415C18.8478 20.5415 20.0797 19.3188 20.0797 17.7293V8.43668H24.1449V17.7293C24.1449 19.1965 25.3768 20.5415 26.9782 20.5415C28.5797 20.5415 29.8115 19.3188 29.8115 17.7293V8.43668H31.1666V24.5764H3.44922V8.43668Z" fill="#172851"/>
<path d="M6.1593 12.7161V17.4847C6.1593 18.2183 6.77524 18.8297 7.51437 18.8297H7.63756C8.37669 18.8297 8.99264 18.2183 8.99264 17.4847V12.7161H6.1593Z" fill="#008F8F"/>
<path d="M25.3767 11.6157V17.4847C25.3767 18.2183 25.9927 18.8297 26.7318 18.8297H26.855C27.5941 18.8297 28.21 18.2183 28.21 17.4847V11.6157H25.3767Z" fill="#008F8F"/>
<path d="M15.7679 9.53711V17.3624C15.7679 18.0961 16.3839 18.7074 17.123 18.7074H17.2462C17.9853 18.7074 18.6013 18.0961 18.6013 17.3624V9.53711H15.7679Z" fill="#008F8F"/>
</g>
<defs>
<clipPath id="clip0_3059_17172">
<rect width="34" height="28" fill="white"/>
</clipPath>
</defs>
</svg>
