<svg xmlns="http://www.w3.org/2000/svg" width="27" height="28" viewBox="0 0 27 28" fill="none">
<g clip-path="url(#clip0_704_6142)">
<path fill-rule="evenodd" clip-rule="evenodd" d="M9.99012 13.3501H24.7901C24.9701 13.3501 25.1401 13.4201 25.2601 13.5501C25.3801 13.6701 25.4601 13.8401 25.4601 14.0201V25.9501C25.4601 26.1301 25.3901 26.3001 25.2601 26.4201C25.1301 26.5501 24.9701 26.6201 24.7901 26.6201H2.04012C1.67012 26.6201 1.37012 26.3201 1.37012 25.9501V7.98006C1.37012 7.61006 1.67012 7.31006 2.04012 7.31006H7.34012C7.52012 7.31006 7.69012 7.38006 7.81012 7.51006C7.93012 7.64006 8.00012 7.81006 8.00012 7.98006L7.98012 11.3301C7.98012 11.8601 8.19012 12.3701 8.56012 12.7501C8.94012 13.1301 9.45012 13.3401 9.98012 13.3401L9.99012 13.3501Z" fill="white"/>
<path fill-rule="evenodd" clip-rule="evenodd" d="M26.75 14.07C26.75 13.54 26.54 13.03 26.16 12.66C25.79 12.28 25.28 12.07 24.75 12.07H9.95C9.77 12.07 9.6 12 9.48 11.87C9.36 11.74 9.29 11.57 9.29 11.4L9.31 8.05004C9.31 7.52004 9.1 7.01004 8.73 6.63004C8.35 6.25004 7.84 6.04004 7.31 6.04004H2C0.9 6.04004 0 6.94004 0 8.04004V26C0 27.1 0.9 28 2 28H24.75C25.28 28 25.79 27.79 26.16 27.41C26.53 27.03 26.75 26.53 26.75 26V14.07ZM25.42 14.07V26C25.42 26.18 25.35 26.35 25.22 26.47C25.1 26.6 24.93 26.66 24.75 26.66H2C1.63 26.66 1.33 26.36 1.33 25.99V8.04004C1.33 7.67004 1.63 7.37004 2 7.37004H7.3C7.48 7.37004 7.65 7.44004 7.77 7.57004C7.9 7.70004 7.97 7.87004 7.96 8.04004L7.94 11.39C7.94 11.92 8.15 12.43 8.52 12.81C8.9 13.19 9.41 13.4 9.94 13.4H24.74C24.92 13.4 25.09 13.47 25.21 13.59C25.34 13.72 25.41 13.88 25.41 14.06L25.42 14.07Z" fill="black"/>
<path fill-rule="evenodd" clip-rule="evenodd" d="M3.29988 10.39H6.28988C6.65988 10.39 6.95988 10.09 6.95988 9.72005C6.95988 9.35005 6.65988 9.05005 6.28988 9.05005H3.29988C2.92988 9.05005 2.62988 9.35005 2.62988 9.72005C2.62988 10.09 2.92988 10.39 3.29988 10.39Z" fill="black"/>
<path fill-rule="evenodd" clip-rule="evenodd" d="M1.5 6.1C0.64 6.32 0 7.11 0 8.04V26C0 27.1 0.9 28 2 28H24.75C25.28 28 25.79 27.79 26.16 27.41C26.54 27.04 26.75 26.53 26.75 26V14.07C26.75 13.54 26.54 13.03 26.16 12.66C26.11 12.61 26.05 12.56 26 12.51V6.52C26 5.99 25.79 5.48 25.41 5.11C25.03 4.73 24.53 4.52 24 4.52H22.47V2C22.47 1.47 22.26 0.96 21.88 0.59C21.51 0.21 21 0 20.47 0H3.5C2.97 0 2.46 0.21 2.09 0.59C1.72 0.96 1.5 1.47 1.5 2V6.1ZM9.95 13.41H24.75C24.93 13.41 25.1 13.48 25.22 13.61C25.34 13.73 25.42 13.9 25.42 14.08V26.01C25.42 26.19 25.35 26.36 25.22 26.48C25.09 26.61 24.93 26.68 24.75 26.68H2C1.63 26.68 1.33 26.38 1.33 26.01V8.04C1.33 7.67 1.63 7.37 2 7.37H7.3C7.48 7.37 7.65 7.44 7.77 7.57C7.89 7.7 7.96 7.87 7.96 8.04L7.94 11.39C7.94 11.92 8.15 12.43 8.52 12.81C8.9 13.19 9.41 13.4 9.94 13.4L9.95 13.41ZM22.47 5.86V12.07H24.66V6.52C24.66 6.34 24.59 6.17 24.47 6.05C24.34 5.93 24.18 5.85 24 5.85H22.47V5.86Z" fill="black"/>
<path fill-rule="evenodd" clip-rule="evenodd" d="M9.27979 9.05004V10.38H17.8398C18.2098 10.38 18.5098 10.08 18.5098 9.71004C18.5098 9.34004 18.2098 9.04004 17.8398 9.04004H9.27979V9.05004Z" fill="#FEEB83"/>
<path fill-rule="evenodd" clip-rule="evenodd" d="M7.33984 6.03002C7.84984 6.04002 8.33984 6.26002 8.69984 6.62002C8.90984 6.83002 9.06984 7.09002 9.16984 7.36002H17.8398C18.2098 7.36002 18.5098 7.06002 18.5098 6.69002C18.5098 6.32002 18.2098 6.02002 17.8398 6.02002H7.37984C7.37984 6.02002 7.35984 6.02002 7.34984 6.02002L7.33984 6.03002Z" fill="#FEEB83"/>
<path fill-rule="evenodd" clip-rule="evenodd" d="M5.85994 4.35001H17.8399C18.2099 4.35001 18.5099 4.05001 18.5099 3.68001C18.5099 3.31001 18.2099 3.01001 17.8399 3.01001H5.85994C5.48994 3.01001 5.18994 3.31001 5.18994 3.68001C5.18994 4.05001 5.48994 4.35001 5.85994 4.35001Z" fill="#FEEB83"/>
</g>
<defs>
<clipPath id="clip0_704_6142">
<rect width="26.75" height="28" fill="white"/>
</clipPath>
</defs>
</svg>
