<svg width="477" height="150" viewBox="0 0 477 150" fill="none" xmlns="http://www.w3.org/2000/svg">
<rect x="-0.125" y="0.125" width="12.75" height="88.75" transform="matrix(-1 0 0 1 20.25 61)" fill="#93C6EB" stroke="#555555" stroke-width="0.25"/>
<rect x="-0.125" y="0.125" width="11.75" height="149.75" transform="matrix(-1 0 0 1 34.25 0)" fill="#ADEBD0" stroke="#555555" stroke-width="0.25"/>
<rect x="-0.125" y="0.125" width="12.75" height="130.75" transform="matrix(-1 0 0 1 49.25 19)" fill="#F6DB7A" stroke="#555555" stroke-width="0.25"/>
<rect x="-0.125" y="0.125" width="12.75" height="58.75" transform="matrix(-1 0 0 1 80.25 91)" fill="#93C6EB" stroke="#555555" stroke-width="0.25"/>
<rect x="-0.125" y="0.125" width="11.75" height="99.75" transform="matrix(-1 0 0 1 94.25 50)" fill="#ADEBD0" stroke="#555555" stroke-width="0.25"/>
<rect x="-0.125" y="0.125" width="12.75" height="86.75" transform="matrix(-1 0 0 1 109.25 63)" fill="#F6DB7A" stroke="#555555" stroke-width="0.25"/>
<rect x="-0.125" y="0.125" width="12.75" height="58.75" transform="matrix(-1 0 0 1 140.25 91)" fill="#93C6EB" stroke="#555555" stroke-width="0.25"/>
<rect x="-0.125" y="0.125" width="11.75" height="99.75" transform="matrix(-1 0 0 1 154.25 50)" fill="#ADEBD0" stroke="#555555" stroke-width="0.25"/>
<rect x="-0.125" y="0.125" width="12.75" height="86.75" transform="matrix(-1 0 0 1 169.25 63)" fill="#F6DB7A" stroke="#555555" stroke-width="0.25"/>
<rect x="-0.125" y="0.125" width="12.75" height="46.75" transform="matrix(-1 0 0 1 200.25 103)" fill="#93C6EB" stroke="#555555" stroke-width="0.25"/>
<rect x="-0.125" y="0.125" width="11.75" height="79.75" transform="matrix(-1 0 0 1 214.25 70)" fill="#ADEBD0" stroke="#555555" stroke-width="0.25"/>
<rect x="-0.125" y="0.125" width="12.75" height="69.75" transform="matrix(-1 0 0 1 229.25 80)" fill="#F6DB7A" stroke="#555555" stroke-width="0.25"/>
<rect x="-0.125" y="0.125" width="12.75" height="46.75" transform="matrix(-1 0 0 1 260.25 103)" fill="#93C6EB" stroke="#555555" stroke-width="0.25"/>
<rect x="-0.125" y="0.125" width="11.75" height="79.75" transform="matrix(-1 0 0 1 274.25 70)" fill="#ADEBD0" stroke="#555555" stroke-width="0.25"/>
<rect x="-0.125" y="0.125" width="12.75" height="69.75" transform="matrix(-1 0 0 1 289.25 80)" fill="#F6DB7A" stroke="#555555" stroke-width="0.25"/>
<rect x="-0.125" y="0.125" width="12.75" height="27.75" transform="matrix(-1 0 0 1 320.25 122)" fill="#93C6EB" stroke="#555555" stroke-width="0.25"/>
<rect x="-0.125" y="0.125" width="11.75" height="48.75" transform="matrix(-1 0 0 1 334.25 101)" fill="#ADEBD0" stroke="#555555" stroke-width="0.25"/>
<rect x="-0.125" y="0.125" width="12.75" height="42.75" transform="matrix(-1 0 0 1 349.25 107)" fill="#F6DB7A" stroke="#555555" stroke-width="0.25"/>
<rect x="-0.125" y="0.125" width="12.75" height="5.75" transform="matrix(-1 0 0 1 380.25 144)" fill="#93C6EB" stroke="#555555" stroke-width="0.25"/>
<rect x="-0.125" y="0.125" width="11.75" height="10.75" transform="matrix(-1 0 0 1 394.25 139)" fill="#ADEBD0" stroke="#555555" stroke-width="0.25"/>
<rect x="-0.125" y="0.125" width="12.75" height="9.75" transform="matrix(-1 0 0 1 409.25 140)" fill="#F6DB7A" stroke="#555555" stroke-width="0.25"/>
<rect x="-0.125" y="0.125" width="12.75" height="2.75" transform="matrix(-1 0 0 1 440.25 147)" fill="#93C6EB" stroke="#555555" stroke-width="0.25"/>
<rect x="-0.125" y="0.125" width="12.75" height="4.75" transform="matrix(-1 0 0 1 469.25 145)" fill="#F6DB7A" stroke="#555555" stroke-width="0.25"/>
</svg>
