<svg width="42" height="30" viewBox="0 0 42 30" fill="none" xmlns="http://www.w3.org/2000/svg">
<path d="M41.867 29.7392H0.132812V7.95654H5.18345V22.1739L20.9999 27L36.9493 22.1739V7.95654H41.9999L41.867 29.7392ZM23.1265 28.0435H40.1391V9.52176H38.5442V23.4783L23.1265 28.0435ZM1.86066 28.0435H18.8733L3.4556 23.4783V9.52176H1.86066V28.0435Z" fill="white"/>
<path d="M21.0004 28.6958L3.45605 23.4784V0.260986L21.0004 5.60881L38.5447 0.260986V23.4784L21.0004 28.6958ZM5.1839 22.174L21.0004 27.0001L36.9497 22.174V2.47838L21.0004 7.30446L5.1839 2.47838V22.174Z" fill="white"/>
<path d="M34.0247 16.8262L24.0564 20.2175C23.7905 20.3479 23.5247 20.3479 23.2589 19.9566C23.126 19.8262 23.126 19.8262 23.126 19.5653C23.126 19.0435 23.5247 18.6522 23.9234 18.5218L33.8918 15.1305C34.1576 15.0001 34.4234 15.0001 34.6893 15.3914C34.8222 15.5218 34.8222 15.5218 34.8222 15.7827C34.6893 16.174 34.4234 16.6957 34.0247 16.8262Z" fill="white"/>
<path d="M34.0252 10.6956L29.905 12.1304C29.6392 12.2608 29.3733 12.2608 29.1075 11.8695C28.9746 11.7391 28.9746 11.7391 28.9746 11.4782C28.9746 10.9565 29.3733 10.5652 29.7721 10.3043L33.8923 8.86953C34.1582 8.73909 34.5569 8.86953 34.6898 9.1304C34.8227 9.26083 34.8227 9.26083 34.8227 9.5217C34.6898 10.0434 34.424 10.4347 34.0252 10.6956Z" fill="white"/>
<path d="M27.2462 12.9131L24.0564 13.9565C23.7905 14.087 23.5247 14.087 23.2589 13.6957C23.126 13.5652 23.126 13.5652 23.126 13.3044C23.126 12.7826 23.5247 12.3913 23.9234 12.2609L27.1133 11.2174C27.3791 11.087 27.645 11.087 27.9108 11.4783C28.0437 11.6087 28.0437 11.6087 28.0437 11.8696C27.9108 12.3913 27.645 12.7826 27.2462 12.9131Z" fill="white"/>
<path d="M31.3665 14.6087L26.7146 16.1739C26.4487 16.3043 26.1829 16.3043 25.9171 15.913C25.7842 15.7826 25.7842 15.7826 25.7842 15.5217C25.7842 15 26.1829 14.6087 26.5816 14.3478L31.2335 12.7826C31.4994 12.6522 31.7652 12.6522 32.031 13.0435C32.1639 13.1739 32.1639 13.1739 32.1639 13.4348C32.031 14.0869 31.7652 14.4783 31.3665 14.6087Z" fill="white"/>
<path d="M7.84141 10.4348L17.8098 13.8261C18.0756 13.9565 18.3414 13.9565 18.6072 13.5652C18.7401 13.4348 18.7401 13.4348 18.7401 13.1739C18.7401 12.6522 18.3414 12.2609 17.9427 12L7.84141 8.73914C7.57559 8.60871 7.30977 8.60871 7.04395 9.00001C7.04395 9.13045 7.04395 9.13045 7.04395 9.39132C7.04395 9.91306 7.30977 10.3044 7.84141 10.4348Z" fill="white"/>
<path d="M7.84141 13.6956L11.9617 15.1303C12.2275 15.2608 12.4933 15.2608 12.7591 14.8695C12.892 14.739 12.892 14.739 12.892 14.4782C12.892 13.9564 12.4933 13.5651 12.0946 13.4347L7.84141 11.9999C7.57559 11.8695 7.30977 11.9999 7.04395 12.2608C7.04395 12.3912 7.04395 12.3912 7.04395 12.6521C7.04395 13.0434 7.30977 13.5651 7.84141 13.6956Z" fill="white"/>
<path d="M14.6198 15.913L17.8097 16.9565C18.0755 17.0869 18.3414 17.0869 18.6072 16.6956C18.7401 16.5652 18.7401 16.5652 18.7401 16.3043C18.7401 15.7826 18.3414 15.3913 17.9426 15.2608L14.6198 14.3478C14.354 14.2174 14.0882 14.2174 13.8224 14.6087C13.6895 14.7391 13.6895 14.7391 13.6895 15C13.8224 15.3913 14.0882 15.7826 14.6198 15.913Z" fill="white"/>
<path d="M10.4996 17.7392L15.1515 19.3045C15.4173 19.4349 15.6832 19.4349 15.949 19.0436C16.0819 18.9132 16.0819 18.9132 16.0819 18.6523C16.0819 18.1305 15.6832 17.7392 15.2844 17.6088L10.6325 16.0436C10.3667 15.9132 10.1009 15.9132 9.83506 16.3045C9.70215 16.4349 9.70215 16.4349 9.70215 16.6958C9.70215 17.0871 9.96797 17.6088 10.4996 17.7392Z" fill="white"/>
<path d="M21.93 6.3916H20.2021V27.7829H21.93V6.3916Z" fill="white"/>
</svg>