<svg width="134" height="124" viewBox="0 0 134 124" fill="none" xmlns="http://www.w3.org/2000/svg">
<rect width="133.374" height="124" rx="20" fill="#00838F"/>
<path d="M44.9308 64.95C44.6475 65.1333 44.2391 65.3583 43.7058 65.625C43.1891 65.875 42.5725 66.0917 41.8558 66.275C41.1558 66.4583 40.3891 66.5417 39.5558 66.525C38.1391 66.5083 36.8725 66.2583 35.7558 65.775C34.6391 65.2917 33.6808 64.6333 32.8808 63.8C32.0975 62.95 31.4975 61.9833 31.0808 60.9C30.6641 59.8 30.4558 58.6333 30.4558 57.4C30.4558 56.0333 30.6725 54.7833 31.1058 53.65C31.5558 52.5 32.1808 51.5083 32.9808 50.675C33.7808 49.825 34.7225 49.1667 35.8058 48.7C36.9058 48.2333 38.1058 48 39.4058 48C40.5058 48 41.5058 48.15 42.4058 48.45C43.3058 48.75 44.0641 49.0917 44.6808 49.475L43.6308 51.925C43.1475 51.5917 42.5475 51.275 41.8308 50.975C41.1308 50.675 40.3475 50.525 39.4808 50.525C38.3475 50.525 37.2975 50.825 36.3308 51.425C35.3808 52.025 34.6141 52.8333 34.0308 53.85C33.4641 54.8667 33.1808 56.0083 33.1808 57.275C33.1808 58.5583 33.4391 59.7083 33.9558 60.725C34.4891 61.7417 35.2391 62.5417 36.2058 63.125C37.1725 63.7083 38.3058 64 39.6058 64C40.5391 64 41.3558 63.8583 42.0558 63.575C42.7725 63.2917 43.3558 62.9667 43.8058 62.6L44.9308 64.95Z" fill="white"/>
<path d="M63.2892 64.95C63.0059 65.1333 62.5975 65.3583 62.0642 65.625C61.5475 65.875 60.9309 66.0917 60.2142 66.275C59.5142 66.4583 58.7475 66.5417 57.9142 66.525C56.4975 66.5083 55.2309 66.2583 54.1142 65.775C52.9975 65.2917 52.0392 64.6333 51.2392 63.8C50.4559 62.95 49.8559 61.9833 49.4392 60.9C49.0225 59.8 48.8142 58.6333 48.8142 57.4C48.8142 56.0333 49.0309 54.7833 49.4642 53.65C49.9142 52.5 50.5392 51.5083 51.3392 50.675C52.1392 49.825 53.0809 49.1667 54.1642 48.7C55.2642 48.2333 56.4642 48 57.7642 48C58.8642 48 59.8642 48.15 60.7642 48.45C61.6642 48.75 62.4225 49.0917 63.0392 49.475L61.9892 51.925C61.5059 51.5917 60.9059 51.275 60.1892 50.975C59.4892 50.675 58.7059 50.525 57.8392 50.525C56.7059 50.525 55.6559 50.825 54.6892 51.425C53.7392 52.025 52.9725 52.8333 52.3892 53.85C51.8225 54.8667 51.5392 56.0083 51.5392 57.275C51.5392 58.5583 51.7975 59.7083 52.3142 60.725C52.8475 61.7417 53.5975 62.5417 54.5642 63.125C55.5309 63.7083 56.6642 64 57.9642 64C58.8975 64 59.7142 63.8583 60.4142 63.575C61.1309 63.2917 61.7142 62.9667 62.1642 62.6L63.2892 64.95Z" fill="white"/>
<path d="M68.2976 66.325V48.2H73.3226C75.1226 48.2 76.6476 48.475 77.8976 49.025C79.1476 49.5583 80.1643 50.2833 80.9476 51.2C81.7309 52.1 82.2976 53.1 82.6476 54.2C83.0143 55.3 83.1976 56.4 83.1976 57.5C83.1976 58.85 82.9559 60.075 82.4726 61.175C82.0059 62.2583 81.3476 63.1833 80.4976 63.95C79.6643 64.7167 78.7059 65.3083 77.6226 65.725C76.5393 66.125 75.3976 66.325 74.1976 66.325H68.2976ZM70.8976 63.8H73.6976C75.0143 63.8 76.1809 63.55 77.1976 63.05C78.2143 62.55 79.0143 61.8167 79.5976 60.85C80.1976 59.8833 80.4976 58.7083 80.4976 57.325C80.4976 56.1917 80.3059 55.2167 79.9226 54.4C79.5559 53.5667 79.0643 52.8833 78.4476 52.35C77.8309 51.8 77.1393 51.3917 76.3726 51.125C75.6059 50.8583 74.8226 50.725 74.0226 50.725H70.8976V63.8Z" fill="white"/>
<path d="M101.544 64.95C101.261 65.1333 100.852 65.3583 100.319 65.625C99.8024 65.875 99.1858 66.0917 98.4691 66.275C97.7691 66.4583 97.0024 66.5417 96.1691 66.525C94.7524 66.5083 93.4858 66.2583 92.3691 65.775C91.2524 65.2917 90.2941 64.6333 89.4941 63.8C88.7108 62.95 88.1108 61.9833 87.6941 60.9C87.2774 59.8 87.0691 58.6333 87.0691 57.4C87.0691 56.0333 87.2858 54.7833 87.7191 53.65C88.1691 52.5 88.7941 51.5083 89.5941 50.675C90.3941 49.825 91.3358 49.1667 92.4191 48.7C93.5191 48.2333 94.7191 48 96.0191 48C97.1191 48 98.1191 48.15 99.0191 48.45C99.9191 48.75 100.677 49.0917 101.294 49.475L100.244 51.925C99.7608 51.5917 99.1608 51.275 98.4441 50.975C97.7441 50.675 96.9608 50.525 96.0941 50.525C94.9608 50.525 93.9108 50.825 92.9441 51.425C91.9941 52.025 91.2274 52.8333 90.6441 53.85C90.0774 54.8667 89.7941 56.0083 89.7941 57.275C89.7941 58.5583 90.0524 59.7083 90.5691 60.725C91.1024 61.7417 91.8524 62.5417 92.8191 63.125C93.7858 63.7083 94.9191 64 96.2191 64C97.1524 64 97.9691 63.8583 98.6691 63.575C99.3858 63.2917 99.9691 62.9667 100.419 62.6L101.544 64.95Z" fill="white"/>
</svg>
