<svg width="133" height="124" viewBox="0 0 133 124" fill="none" xmlns="http://www.w3.org/2000/svg">
<rect width="133" height="124" rx="20" fill="#455299"/>
<path d="M54.1549 66.625C53.8716 66.8084 53.4633 67.0334 52.9299 67.3C52.4133 67.55 51.7966 67.7667 51.0799 67.9501C50.3799 68.1334 49.6133 68.2167 48.7799 68.2001C47.3633 68.1834 46.0966 67.9334 44.9799 67.4501C43.8633 66.9667 42.9049 66.3084 42.1049 65.475C41.3216 64.625 40.7216 63.6584 40.3049 62.5751C39.8883 61.475 39.6799 60.3084 39.6799 59.075C39.6799 57.7084 39.8966 56.4584 40.3299 55.325C40.7799 54.175 41.4049 53.1834 42.2049 52.35C43.0049 51.5 43.9466 50.8417 45.0299 50.375C46.1299 49.9084 47.3299 49.675 48.6299 49.675C49.7299 49.675 50.7299 49.825 51.6299 50.125C52.5299 50.425 53.2883 50.7667 53.9049 51.15L52.8549 53.6C52.3716 53.2667 51.7716 52.95 51.0549 52.65C50.3549 52.35 49.5716 52.2 48.7049 52.2C47.5716 52.2 46.5216 52.5 45.5549 53.1C44.6049 53.7 43.8383 54.5084 43.2549 55.525C42.6883 56.5417 42.4049 57.6834 42.4049 58.95C42.4049 60.2334 42.6633 61.3834 43.1799 62.4C43.7133 63.4167 44.4633 64.2167 45.4299 64.8C46.3966 65.3834 47.5299 65.675 48.8299 65.675C49.7633 65.675 50.5799 65.5334 51.2799 65.25C51.9966 64.9667 52.5799 64.6417 53.0299 64.275L54.1549 66.625Z" fill="white"/>
<path d="M73.4383 66.4C73.1883 66.6167 72.8383 66.8334 72.3883 67.05C71.9383 67.2667 71.43 67.4667 70.8633 67.65C70.3133 67.8167 69.7467 67.95 69.1633 68.05C68.58 68.15 68.03 68.2001 67.5133 68.2001C65.58 68.2001 63.905 67.8167 62.4883 67.05C61.0717 66.2667 59.9717 65.2084 59.1883 63.875C58.4217 62.5417 58.0383 61.025 58.0383 59.325C58.0383 57.775 58.28 56.4 58.7633 55.2C59.2633 54 59.9467 52.9917 60.8133 52.175C61.68 51.3584 62.6633 50.7417 63.7633 50.325C64.88 49.8917 66.0633 49.675 67.3133 49.675C68.3967 49.675 69.3967 49.8 70.3133 50.05C71.23 50.3 72.03 50.6167 72.7133 51L71.8383 53.425C71.505 53.225 71.0883 53.0417 70.5883 52.875C70.105 52.6917 69.5967 52.55 69.0633 52.45C68.5467 52.35 68.0717 52.3 67.6383 52.3C66.2383 52.3 65.0217 52.575 63.9883 53.125C62.955 53.675 62.155 54.4584 61.5883 55.475C61.0217 56.4917 60.7383 57.7 60.7383 59.1C60.7383 60.3834 61.0217 61.5167 61.5883 62.5C62.1717 63.4667 62.9717 64.225 63.9883 64.775C65.0217 65.325 66.2133 65.6 67.5633 65.6C68.1633 65.6 68.7467 65.5417 69.3133 65.425C69.8967 65.3084 70.3883 65.1334 70.7883 64.9V61.55H67.2633V59.025H73.4383V66.4Z" fill="white"/>
<path d="M92.3366 66.625C92.0532 66.8084 91.6449 67.0334 91.1116 67.3C90.5949 67.55 89.9782 67.7667 89.2616 67.9501C88.5616 68.1334 87.7949 68.2167 86.9616 68.2001C85.5449 68.1834 84.2782 67.9334 83.1616 67.4501C82.0449 66.9667 81.0866 66.3084 80.2866 65.475C79.5032 64.625 78.9032 63.6584 78.4866 62.5751C78.0699 61.475 77.8616 60.3084 77.8616 59.075C77.8616 57.7084 78.0782 56.4584 78.5116 55.325C78.9616 54.175 79.5866 53.1834 80.3866 52.35C81.1866 51.5 82.1282 50.8417 83.2116 50.375C84.3116 49.9084 85.5116 49.675 86.8116 49.675C87.9116 49.675 88.9116 49.825 89.8116 50.125C90.7116 50.425 91.4699 50.7667 92.0866 51.15L91.0366 53.6C90.5532 53.2667 89.9532 52.95 89.2366 52.65C88.5366 52.35 87.7532 52.2 86.8866 52.2C85.7532 52.2 84.7032 52.5 83.7366 53.1C82.7866 53.7 82.0199 54.5084 81.4366 55.525C80.8699 56.5417 80.5866 57.6834 80.5866 58.95C80.5866 60.2334 80.8449 61.3834 81.3616 62.4C81.8949 63.4167 82.6449 64.2167 83.6116 64.8C84.5782 65.3834 85.7116 65.675 87.0116 65.675C87.9449 65.675 88.7616 65.5334 89.4616 65.25C90.1782 64.9667 90.7616 64.6417 91.2116 64.275L92.3366 66.625Z" fill="white"/>
</svg>
