<svg width="134" height="124" viewBox="0 0 134 124" fill="none" xmlns="http://www.w3.org/2000/svg">
<rect x="0.348633" width="133.374" height="124" rx="20" fill="#00838F"/>
<path d="M46.9279 64.95C46.6445 65.1333 46.2362 65.3583 45.7029 65.625C45.1862 65.875 44.5695 66.0917 43.8529 66.275C43.1529 66.4583 42.3862 66.5417 41.5529 66.525C40.1362 66.5083 38.8695 66.2583 37.7529 65.775C36.6362 65.2917 35.6779 64.6333 34.8779 63.8C34.0945 62.95 33.4945 61.9833 33.0779 60.9C32.6612 59.8 32.4529 58.6333 32.4529 57.4C32.4529 56.0333 32.6695 54.7833 33.1029 53.65C33.5529 52.5 34.1779 51.5083 34.9779 50.675C35.7779 49.825 36.7195 49.1667 37.8029 48.7C38.9029 48.2333 40.1029 48 41.4029 48C42.5029 48 43.5029 48.15 44.4029 48.45C45.3029 48.75 46.0612 49.0917 46.6779 49.475L45.6279 51.925C45.1445 51.5917 44.5445 51.275 43.8279 50.975C43.1279 50.675 42.3445 50.525 41.4779 50.525C40.3445 50.525 39.2945 50.825 38.3279 51.425C37.3779 52.025 36.6112 52.8333 36.0279 53.85C35.4612 54.8667 35.1779 56.0083 35.1779 57.275C35.1779 58.5583 35.4362 59.7083 35.9529 60.725C36.4862 61.7417 37.2362 62.5417 38.2029 63.125C39.1695 63.7083 40.3029 64 41.6029 64C42.5362 64 43.3529 63.8583 44.0529 63.575C44.7695 63.2917 45.3529 62.9667 45.8029 62.6L46.9279 64.95Z" fill="white"/>
<path d="M51.9363 48.2H54.5363V66.325H51.9363V48.2Z" fill="white"/>
<path d="M62.2005 48.2L68.0755 62.875L66.5755 62.575L72.0755 48.2H75.1755L67.1255 67.175L59.0755 48.2H62.2005Z" fill="white"/>
<path d="M78.8246 55.875H81.3496V66.325H78.8246V55.875ZM78.6996 52.125C78.6996 51.7417 78.8496 51.4167 79.1496 51.15C79.4662 50.8833 79.8079 50.75 80.1746 50.75C80.5412 50.75 80.8746 50.8833 81.1746 51.15C81.4746 51.4167 81.6246 51.7417 81.6246 52.125C81.6246 52.5417 81.4746 52.875 81.1746 53.125C80.8746 53.375 80.5412 53.5 80.1746 53.5C79.8079 53.5 79.4662 53.375 79.1496 53.125C78.8496 52.875 78.6996 52.5417 78.6996 52.125Z" fill="white"/>
<path d="M100.244 64.95C99.961 65.1333 99.5526 65.3583 99.0193 65.625C98.5026 65.875 97.8859 66.0917 97.1693 66.275C96.4693 66.4583 95.7026 66.5417 94.8693 66.525C93.4526 66.5083 92.186 66.2583 91.0693 65.775C89.9526 65.2917 88.9943 64.6333 88.1943 63.8C87.411 62.95 86.811 61.9833 86.3943 60.9C85.9776 59.8 85.7693 58.6333 85.7693 57.4C85.7693 56.0333 85.986 54.7833 86.4193 53.65C86.8693 52.5 87.4943 51.5083 88.2943 50.675C89.0943 49.825 90.036 49.1667 91.1193 48.7C92.2193 48.2333 93.4193 48 94.7193 48C95.8193 48 96.8193 48.15 97.7193 48.45C98.6193 48.75 99.3776 49.0917 99.9943 49.475L98.9443 51.925C98.461 51.5917 97.861 51.275 97.1443 50.975C96.4443 50.675 95.6609 50.525 94.7943 50.525C93.6609 50.525 92.611 50.825 91.6443 51.425C90.6943 52.025 89.9276 52.8333 89.3443 53.85C88.7776 54.8667 88.4943 56.0083 88.4943 57.275C88.4943 58.5583 88.7526 59.7083 89.2693 60.725C89.8026 61.7417 90.5526 62.5417 91.5193 63.125C92.486 63.7083 93.6193 64 94.9193 64C95.8526 64 96.6693 63.8583 97.3693 63.575C98.086 63.2917 98.6693 62.9667 99.1193 62.6L100.244 64.95Z" fill="white"/>
</svg>
