<svg width="134" height="124" viewBox="0 0 134 124" fill="none" xmlns="http://www.w3.org/2000/svg">
<rect x="0.348633" width="133" height="124" rx="20" fill="#455299"/>
<path d="M31.3896 68.25C30.4063 68.25 29.5229 68.025 28.7396 67.575C27.9563 67.1083 27.3396 66.45 26.8896 65.6C26.4396 64.75 26.2146 63.7583 26.2146 62.625C26.2146 61.4583 26.4563 60.4666 26.9396 59.65C27.4229 58.8333 28.0729 58.2083 28.8896 57.775C29.7229 57.3416 30.6563 57.125 31.6896 57.125C32.4896 57.125 33.2479 57.2916 33.9646 57.625C34.6979 57.9416 35.2729 58.3916 35.6896 58.975L35.5896 59.85V48.575H38.1146V68H35.5646V65.5L35.8396 66.1749C35.3396 66.775 34.7063 67.275 33.9396 67.6749C33.1896 68.0583 32.3396 68.25 31.3896 68.25ZM32.1646 66.125C33.0479 66.125 33.7813 65.9 34.3646 65.45C34.9646 64.9833 35.3646 64.3666 35.5646 63.6V61.525C35.3813 60.825 34.9729 60.25 34.3396 59.8C33.7229 59.35 32.9979 59.125 32.1646 59.125C31.5646 59.125 31.0063 59.275 30.4896 59.575C29.9729 59.8583 29.5563 60.2666 29.2396 60.8C28.9396 61.3166 28.7896 61.9166 28.7896 62.6C28.7896 63.25 28.9396 63.8416 29.2396 64.375C29.5563 64.9083 29.9729 65.3333 30.4896 65.65C31.0063 65.9666 31.5646 66.125 32.1646 66.125Z" fill="white"/>
<path d="M49.531 68.25C48.5643 68.25 47.731 68.0583 47.031 67.6749C46.331 67.275 45.7643 66.7666 45.331 66.15L45.581 65.4249V68H43.056V48.575H45.581V59.85L45.506 58.925C45.9227 58.3916 46.506 57.9583 47.256 57.625C48.0227 57.2916 48.8893 57.125 49.856 57.125C50.7893 57.125 51.6393 57.35 52.406 57.8C53.1727 58.2333 53.7893 58.8583 54.256 59.675C54.7227 60.4916 54.956 61.4666 54.956 62.6C54.956 63.7833 54.6977 64.8 54.181 65.65C53.681 66.4833 53.0227 67.125 52.206 67.575C51.3893 68.025 50.4977 68.25 49.531 68.25ZM48.981 66.125C49.631 66.125 50.2143 65.9749 50.731 65.6749C51.2477 65.3583 51.6477 64.9333 51.931 64.4C52.231 63.8666 52.381 63.2666 52.381 62.6C52.381 61.9333 52.231 61.3416 51.931 60.825C51.631 60.3083 51.2227 59.9 50.706 59.6C50.206 59.2833 49.631 59.125 48.981 59.125C48.1477 59.125 47.4227 59.3416 46.806 59.775C46.1893 60.2083 45.781 60.7833 45.581 61.5V63.7C45.7977 64.4 46.1977 64.9833 46.781 65.45C47.381 65.9 48.1143 66.125 48.981 66.125Z" fill="white"/>
<path d="M73.8724 66.4C73.6224 66.6166 73.2724 66.8333 72.8224 67.0499C72.3724 67.2666 71.8641 67.4666 71.2974 67.65C70.7474 67.8166 70.1807 67.9499 69.5974 68.0499C69.0141 68.15 68.4641 68.2 67.9474 68.2C66.0141 68.2 64.3391 67.8166 62.9224 67.0499C61.5057 66.2666 60.4057 65.2083 59.6224 63.875C58.8557 62.5416 58.4724 61.025 58.4724 59.325C58.4724 57.775 58.7141 56.4 59.1974 55.2C59.6974 54 60.3807 52.9916 61.2474 52.175C62.1141 51.3583 63.0974 50.7416 64.1974 50.325C65.3141 49.8916 66.4974 49.675 67.7474 49.675C68.8307 49.675 69.8307 49.8 70.7474 50.05C71.6641 50.3 72.4641 50.6166 73.1474 51L72.2724 53.425C71.9391 53.225 71.5224 53.0416 71.0224 52.875C70.5391 52.6916 70.0307 52.5499 69.4974 52.45C68.9807 52.35 68.5057 52.3 68.0724 52.3C66.6724 52.3 65.4557 52.575 64.4224 53.125C63.3891 53.675 62.5891 54.4583 62.0224 55.4749C61.4557 56.4916 61.1724 57.7 61.1724 59.1C61.1724 60.3833 61.4557 61.5166 62.0224 62.5C62.6057 63.4666 63.4057 64.225 64.4224 64.775C65.4557 65.325 66.6474 65.6 67.9974 65.6C68.5974 65.6 69.1807 65.5416 69.7474 65.4249C70.3307 65.3083 70.8224 65.1333 71.2224 64.9V61.55H67.6974V59.025H73.8724V66.4Z" fill="white"/>
<path d="M83.1957 68.25C82.2123 68.25 81.3207 68.0416 80.5207 67.625C79.7207 67.2083 79.0873 66.5999 78.6207 65.7999C78.154 64.9833 77.9207 63.975 77.9207 62.775C77.9207 61.6083 78.1623 60.6083 78.6457 59.775C79.1457 58.925 79.7957 58.275 80.5957 57.825C81.4123 57.3583 82.2957 57.125 83.2457 57.125C84.2457 57.125 85.0707 57.3333 85.7207 57.75C86.3707 58.1666 86.8707 58.6666 87.2207 59.25L87.0707 59.65L87.3207 57.55H89.6457V68H87.1207V65.35L87.3707 65.975C87.304 66.1083 87.1623 66.2999 86.9457 66.5499C86.729 66.7999 86.4457 67.0583 86.0957 67.325C85.7457 67.575 85.3207 67.7916 84.8207 67.975C84.3373 68.1583 83.7957 68.25 83.1957 68.25ZM83.8707 66.1749C84.704 66.1749 85.404 65.9583 85.9707 65.525C86.554 65.075 86.9373 64.4666 87.1207 63.7V61.55C86.9207 60.8666 86.5123 60.3 85.8957 59.85C85.2957 59.4 84.5956 59.175 83.7957 59.175C83.1957 59.175 82.6457 59.325 82.1457 59.625C81.6457 59.9083 81.2457 60.3166 80.9457 60.85C80.6457 61.3666 80.4957 61.9666 80.4957 62.65C80.4957 63.3166 80.6457 63.9166 80.9457 64.45C81.2623 64.9833 81.679 65.4083 82.1957 65.725C82.7123 66.025 83.2707 66.1749 83.8707 66.1749Z" fill="white"/>
<path d="M100.841 68.25C100.074 68.25 99.3328 68.0833 98.6162 67.75C97.9162 67.4 97.3662 66.925 96.9662 66.325L97.1162 65.5499V73.025H94.5912V57.375H96.7662L97.1162 59.95L96.8662 59.225C97.3662 58.6083 97.9912 58.1083 98.7412 57.725C99.5078 57.325 100.366 57.125 101.316 57.125C102.299 57.125 103.183 57.3583 103.966 57.825C104.749 58.2916 105.366 58.95 105.816 59.8C106.266 60.6333 106.491 61.6166 106.491 62.75C106.491 63.8833 106.241 64.8666 105.741 65.7C105.258 66.5166 104.591 67.15 103.741 67.6C102.891 68.0333 101.924 68.25 100.841 68.25ZM100.341 66.25C100.991 66.25 101.583 66.0999 102.116 65.7999C102.666 65.5 103.1 65.0916 103.416 64.575C103.75 64.0416 103.916 63.4416 103.916 62.775C103.916 62.0916 103.766 61.4833 103.466 60.95C103.166 60.4166 102.758 60 102.241 59.7C101.724 59.4 101.149 59.25 100.516 59.25C99.6495 59.25 98.9162 59.4833 98.3162 59.95C97.7328 60.4166 97.3328 61.0333 97.1162 61.8V63.675C97.2495 64.425 97.6162 65.0416 98.2162 65.525C98.8162 66.0083 99.5245 66.25 100.341 66.25Z" fill="white"/>
</svg>
