<svg width="41" height="41" viewBox="0 0 41 41" fill="none" xmlns="http://www.w3.org/2000/svg">
<path d="M39.401 31.775L32.267 24.641C33.415 22.345 34.071 19.7825 34.071 17.0355C34.071 7.6465 26.445 0 17.0355 0C15.5185 0 13.9605 0.2255 12.4435 0.6355C11.357 0.943 10.7215 2.0705 11.029 3.157C11.3365 4.2435 12.4845 4.879 13.5505 4.5715C14.719 4.2435 15.8875 4.0795 17.0355 4.0795C23.862 4.0795 29.438 9.389 29.93 16.0925H22.9395C22.222 16.0925 21.566 16.4615 21.197 17.0765L19.3725 20.0695L16.4615 8.2615C16.2565 7.4005 15.498 6.765 14.6165 6.7035C13.7145 6.6625 12.8945 7.1545 12.5665 7.995L9.348 16.113H4.141C4.3665 12.833 5.8015 9.8195 8.2615 7.544C9.0815 6.7855 9.143 5.4735 8.364 4.6535C7.585 3.813 6.2935 3.772 5.4735 4.5305C2.009 7.749 0 12.3205 0 17.0355C0 26.4245 7.6465 34.071 17.0355 34.071C19.762 34.071 22.345 33.415 24.641 32.267L31.775 39.401C32.841 40.467 34.235 41 35.6495 41C37.064 41 38.3965 40.4875 39.442 39.442C41.533 37.3305 41.533 33.907 39.401 31.775ZM4.51 20.213H10.742C11.5825 20.213 12.341 19.7005 12.6485 18.9215L14.022 15.457L16.564 25.8095C16.769 26.609 17.425 27.224 18.245 27.347C18.3475 27.347 18.45 27.3675 18.5525 27.3675C19.2495 27.3675 19.926 26.9985 20.295 26.3835L24.0875 20.1925H29.561C28.1465 25.789 23.083 29.971 17.0355 29.971C10.988 29.971 5.9245 25.8095 4.51 20.1925V20.213ZM36.531 36.531C36.039 37.023 35.178 37.023 34.6655 36.49L28.126 29.9505C28.782 29.397 29.397 28.782 29.9505 28.126L36.49 34.6655C37.0025 35.178 37.023 36.039 36.531 36.531Z" fill="#004358"/>
</svg>
