<svg width="134" height="124" viewBox="0 0 134 124" fill="none" xmlns="http://www.w3.org/2000/svg">
<rect width="133.374" height="124" rx="20" fill="#00838F"/>
<path d="M38.2908 50V31.875H43.3158C45.1158 31.875 46.6408 32.15 47.8908 32.7C49.1408 33.2333 50.1574 33.9583 50.9408 34.875C51.7241 35.775 52.2908 36.775 52.6408 37.875C53.0074 38.975 53.1908 40.075 53.1908 41.175C53.1908 42.525 52.9491 43.75 52.4658 44.85C51.9991 45.9333 51.3408 46.8583 50.4908 47.625C49.6574 48.3917 48.6991 48.9833 47.6158 49.4C46.5324 49.8 45.3908 50 44.1908 50H38.2908ZM40.8908 47.475H43.6908C45.0074 47.475 46.1741 47.225 47.1908 46.725C48.2074 46.225 49.0074 45.4917 49.5908 44.525C50.1908 43.5583 50.4908 42.3833 50.4908 41C50.4908 39.8667 50.2991 38.8917 49.9158 38.075C49.5491 37.2417 49.0574 36.5583 48.4408 36.025C47.8241 35.475 47.1324 35.0667 46.3658 34.8C45.5991 34.5333 44.8158 34.4 44.0158 34.4H40.8908V47.475Z" fill="white"/>
<path d="M61.9623 50.25C60.9789 50.25 60.0873 50.0417 59.2873 49.625C58.4873 49.2083 57.8539 48.6 57.3873 47.8C56.9206 46.9833 56.6873 45.975 56.6873 44.775C56.6873 43.6083 56.9289 42.6083 57.4123 41.775C57.9123 40.925 58.5623 40.275 59.3623 39.825C60.1789 39.3583 61.0623 39.125 62.0123 39.125C63.0123 39.125 63.8373 39.3333 64.4873 39.75C65.1373 40.1667 65.6373 40.6667 65.9873 41.25L65.8373 41.65L66.0873 39.55H68.4123V50H65.8873V47.35L66.1373 47.975C66.0706 48.1083 65.9289 48.3 65.7123 48.55C65.4956 48.8 65.2123 49.0583 64.8623 49.325C64.5123 49.575 64.0873 49.7917 63.5873 49.975C63.1039 50.1583 62.5623 50.25 61.9623 50.25ZM62.6373 48.175C63.4706 48.175 64.1706 47.9583 64.7373 47.525C65.3206 47.075 65.7039 46.4667 65.8873 45.7V43.55C65.6873 42.8667 65.2789 42.3 64.6623 41.85C64.0623 41.4 63.3623 41.175 62.5623 41.175C61.9623 41.175 61.4123 41.325 60.9123 41.625C60.4123 41.9083 60.0123 42.3167 59.7123 42.85C59.4123 43.3667 59.2623 43.9667 59.2623 44.65C59.2623 45.3167 59.4123 45.9167 59.7123 46.45C60.0289 46.9833 60.4456 47.4083 60.9623 47.725C61.4789 48.025 62.0373 48.175 62.6373 48.175Z" fill="white"/>
<path d="M74.3578 34.975H76.9078V39.575H79.7078V41.55H76.9078V50H74.3578V41.55H72.5078V39.575H74.3578V34.975Z" fill="white"/>
<path d="M87.8636 50.25C86.8803 50.25 85.9886 50.0417 85.1886 49.625C84.3886 49.2083 83.7553 48.6 83.2886 47.8C82.822 46.9833 82.5886 45.975 82.5886 44.775C82.5886 43.6083 82.8303 42.6083 83.3136 41.775C83.8136 40.925 84.4636 40.275 85.2636 39.825C86.0803 39.3583 86.9636 39.125 87.9136 39.125C88.9136 39.125 89.7386 39.3333 90.3886 39.75C91.0386 40.1667 91.5386 40.6667 91.8886 41.25L91.7386 41.65L91.9886 39.55H94.3136V50H91.7886V47.35L92.0386 47.975C91.972 48.1083 91.8303 48.3 91.6136 48.55C91.3969 48.8 91.1136 49.0583 90.7636 49.325C90.4136 49.575 89.9886 49.7917 89.4886 49.975C89.0053 50.1583 88.4636 50.25 87.8636 50.25ZM88.5386 48.175C89.372 48.175 90.072 47.9583 90.6386 47.525C91.222 47.075 91.6053 46.4667 91.7886 45.7V43.55C91.5886 42.8667 91.1803 42.3 90.5636 41.85C89.9636 41.4 89.2636 41.175 88.4636 41.175C87.8636 41.175 87.3136 41.325 86.8136 41.625C86.3136 41.9083 85.9136 42.3167 85.6136 42.85C85.3136 43.3667 85.1636 43.9667 85.1636 44.65C85.1636 45.3167 85.3136 45.9167 85.6136 46.45C85.9303 46.9833 86.3469 47.4083 86.8636 47.725C87.3803 48.025 87.9386 48.175 88.5386 48.175Z" fill="white"/>
<path d="M11.7795 59.875H14.3795V78H11.7795V59.875Z" fill="white"/>
<path d="M22.1938 67.55L22.4188 69.975L22.3188 69.625C22.6521 68.875 23.1855 68.275 23.9188 67.825C24.6688 67.375 25.5438 67.15 26.5438 67.15C27.5271 67.15 28.3355 67.4417 28.9688 68.025C29.6021 68.5917 29.9271 69.3417 29.9438 70.275V78H27.4188V71.15C27.4021 70.6167 27.2438 70.1833 26.9438 69.85C26.6438 69.5 26.1771 69.3167 25.5438 69.3C24.6605 69.3 23.9188 69.6667 23.3188 70.4C22.7355 71.1333 22.4438 72.075 22.4438 73.225V78H19.9188V67.55H22.1938Z" fill="white"/>
<path d="M38.8918 78.3L33.0168 67.55H35.9918L39.8668 75.675L38.3168 75.6L41.8418 67.55H44.6418L39.0168 78.3H38.8918Z" fill="white"/>
<path d="M52.6733 78.25C51.4733 78.25 50.44 78.0167 49.5733 77.55C48.7066 77.0667 48.04 76.4083 47.5733 75.575C47.1066 74.725 46.8733 73.7667 46.8733 72.7C46.8733 71.6667 47.1316 70.7333 47.6483 69.9C48.1816 69.05 48.89 68.375 49.7733 67.875C50.6566 67.375 51.64 67.125 52.7233 67.125C54.1233 67.125 55.2816 67.5333 56.1983 68.35C57.1316 69.15 57.7566 70.2833 58.0733 71.75L49.5483 74.7L48.9483 73.25L55.7983 70.75L55.2733 71.1C55.0733 70.5667 54.7566 70.1083 54.3233 69.725C53.89 69.325 53.2983 69.125 52.5483 69.125C51.615 69.125 50.8483 69.45 50.2483 70.1C49.665 70.7333 49.3733 71.55 49.3733 72.55C49.3733 73.6167 49.69 74.475 50.3233 75.125C50.9566 75.775 51.7566 76.1 52.7233 76.1C53.1733 76.1 53.6066 76.025 54.0233 75.875C54.44 75.7083 54.8316 75.4917 55.1983 75.225L56.3483 77.1C55.815 77.45 55.2233 77.7333 54.5733 77.95C53.94 78.15 53.3066 78.25 52.6733 78.25Z" fill="white"/>
<path d="M64.1831 67.55L64.4081 69.975L64.3081 69.625C64.6414 68.875 65.1747 68.275 65.9081 67.825C66.6581 67.375 67.5331 67.15 68.5331 67.15C69.5164 67.15 70.3247 67.4417 70.9581 68.025C71.5914 68.5917 71.9164 69.3417 71.9331 70.275V78H69.4081V71.15C69.3914 70.6167 69.2331 70.1833 68.9331 69.85C68.6331 69.5 68.1664 69.3167 67.5331 69.3C66.6497 69.3 65.9081 69.6667 65.3081 70.4C64.7247 71.1333 64.4331 72.075 64.4331 73.225V78H61.9081V67.55H64.1831Z" fill="white"/>
<path d="M77.8973 62.975H80.4473V67.575H83.2473V69.55H80.4473V78H77.8973V69.55H76.0473V67.575H77.8973V62.975Z" fill="white"/>
<path d="M86.1282 72.675C86.1282 71.625 86.3782 70.6833 86.8782 69.85C87.3782 69 88.0698 68.3333 88.9532 67.85C89.8365 67.3667 90.8448 67.125 91.9782 67.125C93.1282 67.125 94.1282 67.3667 94.9782 67.85C95.8448 68.3333 96.5115 69 96.9782 69.85C97.4615 70.6833 97.7032 71.625 97.7032 72.675C97.7032 73.725 97.4615 74.675 96.9782 75.525C96.4949 76.3583 95.8198 77.025 94.9532 77.525C94.1032 78.0083 93.0948 78.25 91.9282 78.25C90.8282 78.25 89.8365 78.025 88.9532 77.575C88.0865 77.125 87.3948 76.4833 86.8782 75.65C86.3782 74.8 86.1282 73.8083 86.1282 72.675ZM88.6782 72.7C88.6782 73.35 88.8198 73.9417 89.1032 74.475C89.3865 74.9917 89.7698 75.4083 90.2532 75.725C90.7532 76.025 91.3032 76.175 91.9032 76.175C92.8532 76.175 93.6282 75.8417 94.2282 75.175C94.8448 74.5083 95.1532 73.6833 95.1532 72.7C95.1532 71.7167 94.8448 70.8917 94.2282 70.225C93.6282 69.5417 92.8532 69.2 91.9032 69.2C91.2865 69.2 90.7365 69.3583 90.2532 69.675C89.7698 69.9917 89.3865 70.4167 89.1032 70.95C88.8198 71.4833 88.6782 72.0667 88.6782 72.7Z" fill="white"/>
<path d="M103.999 67.55L104.249 70.55L104.149 70.15C104.432 69.5167 104.824 68.975 105.324 68.525C105.841 68.075 106.374 67.7333 106.924 67.5C107.491 67.25 107.966 67.125 108.349 67.125L108.224 69.625C107.441 69.575 106.749 69.725 106.149 70.075C105.566 70.425 105.107 70.8917 104.774 71.475C104.441 72.0583 104.274 72.6833 104.274 73.35V78H101.749V67.55H103.999Z" fill="white"/>
<path d="M113.17 83.025L120.045 67.55H122.37L115.62 83.025H113.17ZM115.77 78.075L110.745 67.55H113.57L117.745 76.8L115.77 78.075Z" fill="white"/>
</svg>
