<svg width="134" height="124" viewBox="0 0 134 124" fill="none" xmlns="http://www.w3.org/2000/svg">
<rect width="133.374" height="124" rx="20" fill="#00838F"/>
<path d="M43.4051 68V49.275H43.4301L53.0301 62.9L51.9051 62.675L61.4801 49.275H61.5301V68H58.9301V55.2L59.0801 56.525L52.3801 66.05H52.3301L45.4801 56.525L45.9301 55.3V68H43.4051ZM80.9973 66.625C80.7139 66.8083 80.3056 67.0333 79.7723 67.3C79.2556 67.55 78.6389 67.7667 77.9223 67.95C77.2223 68.1333 76.4556 68.2167 75.6223 68.2C74.2056 68.1833 72.9389 67.9333 71.8223 67.45C70.7056 66.9667 69.7473 66.3083 68.9473 65.475C68.1639 64.625 67.5639 63.6583 67.1473 62.575C66.7306 61.475 66.5223 60.3083 66.5223 59.075C66.5223 57.7083 66.7389 56.4583 67.1723 55.325C67.6223 54.175 68.2473 53.1833 69.0473 52.35C69.8473 51.5 70.7889 50.8417 71.8723 50.375C72.9723 49.9083 74.1723 49.675 75.4723 49.675C76.5723 49.675 77.5723 49.825 78.4723 50.125C79.3723 50.425 80.1306 50.7667 80.7473 51.15L79.6973 53.6C79.2139 53.2667 78.6139 52.95 77.8973 52.65C77.1973 52.35 76.4139 52.2 75.5473 52.2C74.4139 52.2 73.3639 52.5 72.3973 53.1C71.4473 53.7 70.6806 54.5083 70.0973 55.525C69.5306 56.5417 69.2473 57.6833 69.2473 58.95C69.2473 60.2333 69.5056 61.3833 70.0223 62.4C70.5556 63.4167 71.3056 64.2167 72.2723 64.8C73.2389 65.3833 74.3723 65.675 75.6723 65.675C76.6056 65.675 77.4223 65.5333 78.1223 65.25C78.8389 64.9667 79.4223 64.6417 79.8723 64.275L80.9973 66.625ZM86.0057 49.875H88.6057V68H86.0057V49.875Z" fill="white"/>
</svg>
