<svg width="134" height="124" viewBox="0 0 134 124" fill="none" xmlns="http://www.w3.org/2000/svg">
<rect x="0.348633" width="133.374" height="124" rx="20" fill="#00838F"/>
<path d="M41.5076 67.9999V49.2749H41.5326L51.1326 62.8999L50.0076 62.6749L59.5826 49.2749H59.6326V67.9999H57.0326V55.1999L57.1826 56.5249L50.4826 66.0499H50.4326L43.5826 56.5249L44.0326 55.2999V67.9999H41.5076Z" fill="white"/>
<path d="M64.4248 49.8749H76.4998V52.3999H71.6998V67.9999H69.0748V52.3999H64.4248V49.8749Z" fill="white"/>
<path d="M86.2505 49.8749C88.2505 49.8749 89.8172 50.3749 90.9505 51.3749C92.0839 52.3749 92.6505 53.7749 92.6505 55.5749C92.6505 56.2916 92.5422 56.9999 92.3255 57.6999C92.1089 58.3999 91.7589 59.0416 91.2755 59.6249C90.8089 60.1916 90.1839 60.6499 89.4005 60.9999C88.6339 61.3332 87.6922 61.4999 86.5755 61.4999H83.9005V67.9999H81.3005V49.8749H86.2505ZM86.5505 58.9499C87.2339 58.9499 87.8005 58.8416 88.2505 58.6249C88.7172 58.3916 89.0755 58.0999 89.3255 57.7499C89.5922 57.3999 89.7755 57.0332 89.8755 56.6499C89.9922 56.2666 90.0505 55.9249 90.0505 55.6249C90.0505 55.2916 89.9922 54.9416 89.8755 54.5749C89.7755 54.1916 89.5922 53.8416 89.3255 53.5249C89.0755 53.1916 88.7339 52.9249 88.3005 52.7249C87.8672 52.5082 87.3255 52.3999 86.6755 52.3999H83.9005V58.9499H86.5505Z" fill="white"/>
</svg>
