<svg width="134" height="124" viewBox="0 0 134 124" fill="none" xmlns="http://www.w3.org/2000/svg">
<rect width="133.374" height="124" rx="20" fill="#00838F"/>
<path d="M46.1928 54.625L32.2178 40.675L32.9928 40.925L33.0428 54H30.4178V35.3H30.5178L44.3178 49.25L43.7178 49.1L43.6678 35.875H46.2678V54.625H46.1928ZM65.7639 52.625C65.4805 52.8083 65.0722 53.0333 64.5389 53.3C64.0222 53.55 63.4055 53.7667 62.6889 53.95C61.9889 54.1333 61.2222 54.2167 60.3889 54.2C58.9722 54.1833 57.7055 53.9333 56.5889 53.45C55.4722 52.9667 54.5139 52.3083 53.7139 51.475C52.9305 50.625 52.3305 49.6583 51.9139 48.575C51.4972 47.475 51.2889 46.3083 51.2889 45.075C51.2889 43.7083 51.5055 42.4583 51.9389 41.325C52.3889 40.175 53.0139 39.1833 53.8139 38.35C54.6139 37.5 55.5555 36.8417 56.6389 36.375C57.7389 35.9083 58.9389 35.675 60.2389 35.675C61.3389 35.675 62.3389 35.825 63.2389 36.125C64.1389 36.425 64.8972 36.7667 65.5139 37.15L64.4639 39.6C63.9805 39.2667 63.3805 38.95 62.6639 38.65C61.9639 38.35 61.1805 38.2 60.3139 38.2C59.1805 38.2 58.1305 38.5 57.1639 39.1C56.2139 39.7 55.4472 40.5083 54.8639 41.525C54.2972 42.5417 54.0139 43.6833 54.0139 44.95C54.0139 46.2333 54.2722 47.3833 54.7889 48.4C55.3222 49.4167 56.0722 50.2167 57.0389 50.8C58.0055 51.3833 59.1389 51.675 60.4389 51.675C61.3722 51.675 62.1889 51.5333 62.8889 51.25C63.6055 50.9667 64.1889 50.6417 64.6389 50.275L65.7639 52.625ZM84.1223 52.625C83.8389 52.8083 83.4306 53.0333 82.8973 53.3C82.3806 53.55 81.7639 53.7667 81.0473 53.95C80.3473 54.1333 79.5806 54.2167 78.7473 54.2C77.3306 54.1833 76.0639 53.9333 74.9473 53.45C73.8306 52.9667 72.8723 52.3083 72.0723 51.475C71.2889 50.625 70.6889 49.6583 70.2723 48.575C69.8556 47.475 69.6473 46.3083 69.6473 45.075C69.6473 43.7083 69.8639 42.4583 70.2973 41.325C70.7473 40.175 71.3723 39.1833 72.1723 38.35C72.9723 37.5 73.9139 36.8417 74.9973 36.375C76.0973 35.9083 77.2973 35.675 78.5973 35.675C79.6973 35.675 80.6973 35.825 81.5973 36.125C82.4973 36.425 83.2556 36.7667 83.8723 37.15L82.8223 39.6C82.3389 39.2667 81.7389 38.95 81.0223 38.65C80.3223 38.35 79.5389 38.2 78.6723 38.2C77.5389 38.2 76.4889 38.5 75.5223 39.1C74.5723 39.7 73.8056 40.5083 73.2223 41.525C72.6556 42.5417 72.3723 43.6833 72.3723 44.95C72.3723 46.2333 72.6306 47.3833 73.1473 48.4C73.6806 49.4167 74.4306 50.2167 75.3973 50.8C76.3639 51.3833 77.4973 51.675 78.7973 51.675C79.7306 51.675 80.5473 51.5333 81.2473 51.25C81.9639 50.9667 82.5473 50.6417 82.9973 50.275L84.1223 52.625ZM94.0557 35.875C95.3223 35.875 96.4473 36.1 97.4307 36.55C98.414 36.9833 99.1807 37.625 99.7307 38.475C100.297 39.3083 100.581 40.3417 100.581 41.575C100.581 42.2917 100.472 43 100.256 43.7C100.039 44.4 99.689 45.0333 99.2057 45.6C98.739 46.1667 98.1057 46.625 97.3057 46.975C96.5223 47.3083 95.5557 47.475 94.4057 47.475H91.7307V54H89.1307V35.875H94.0557ZM94.3557 44.95C95.289 44.95 96.0057 44.775 96.5057 44.425C97.0223 44.0583 97.3807 43.625 97.5807 43.125C97.7807 42.6083 97.8807 42.125 97.8807 41.675C97.8807 41.3417 97.8223 40.9917 97.7057 40.625C97.589 40.2417 97.3973 39.8833 97.1307 39.55C96.8807 39.2 96.539 38.925 96.1057 38.725C95.6723 38.5083 95.139 38.4 94.5057 38.4H91.7307V44.95H94.3557ZM97.4057 46.5L102.106 54H99.0557L94.2807 46.55L97.4057 46.5ZM17.5164 63.875H29.3914V66.4H20.1164V71.625H28.3914V74.15H20.1164V79.475H29.7414V82H17.5164V63.875ZM38.3732 75.35L40.7982 71.55H43.3232L39.2982 77.175L38.3732 75.35ZM43.7732 82H40.7232L32.7732 71.55H35.8732L43.7732 82ZM38.0982 78.2L35.4232 82H32.8982L36.8982 76.525L38.0982 78.2ZM53.4135 82.25C52.6468 82.25 51.9051 82.0833 51.1885 81.75C50.4885 81.4 49.9385 80.925 49.5385 80.325L49.6885 79.55V87.025H47.1635V71.375H49.3385L49.6885 73.95L49.4385 73.225C49.9385 72.6083 50.5635 72.1083 51.3135 71.725C52.0801 71.325 52.9385 71.125 53.8885 71.125C54.8718 71.125 55.7551 71.3583 56.5385 71.825C57.3218 72.2917 57.9385 72.95 58.3885 73.8C58.8385 74.6333 59.0635 75.6167 59.0635 76.75C59.0635 77.8833 58.8135 78.8667 58.3135 79.7C57.8301 80.5167 57.1635 81.15 56.3135 81.6C55.4635 82.0333 54.4968 82.25 53.4135 82.25ZM52.9135 80.25C53.5635 80.25 54.1551 80.1 54.6885 79.8C55.2385 79.5 55.6718 79.0917 55.9885 78.575C56.3218 78.0417 56.4885 77.4417 56.4885 76.775C56.4885 76.0917 56.3385 75.4833 56.0385 74.95C55.7385 74.4167 55.3301 74 54.8135 73.7C54.2968 73.4 53.7218 73.25 53.0885 73.25C52.2218 73.25 51.4885 73.4833 50.8885 73.95C50.3051 74.4167 49.9051 75.0333 49.6885 75.8V77.675C49.8218 78.425 50.1885 79.0417 50.7885 79.525C51.3885 80.0083 52.0968 80.25 52.9135 80.25ZM63.1049 62.575H65.6299V82H63.1049V62.575ZM69.6746 76.675C69.6746 75.625 69.9246 74.6833 70.4246 73.85C70.9246 73 71.6163 72.3333 72.4996 71.85C73.3829 71.3667 74.3913 71.125 75.5246 71.125C76.6746 71.125 77.6746 71.3667 78.5246 71.85C79.3913 72.3333 80.0579 73 80.5246 73.85C81.0079 74.6833 81.2496 75.625 81.2496 76.675C81.2496 77.725 81.0079 78.675 80.5246 79.525C80.0413 80.3583 79.3663 81.025 78.4996 81.525C77.6496 82.0083 76.6413 82.25 75.4746 82.25C74.3746 82.25 73.3829 82.025 72.4996 81.575C71.6329 81.125 70.9413 80.4833 70.4246 79.65C69.9246 78.8 69.6746 77.8083 69.6746 76.675ZM72.2246 76.7C72.2246 77.35 72.3663 77.9417 72.6496 78.475C72.9329 78.9917 73.3163 79.4083 73.7996 79.725C74.2996 80.025 74.8496 80.175 75.4496 80.175C76.3996 80.175 77.1746 79.8417 77.7746 79.175C78.3913 78.5083 78.6996 77.6833 78.6996 76.7C78.6996 75.7167 78.3913 74.8917 77.7746 74.225C77.1746 73.5417 76.3996 73.2 75.4496 73.2C74.8329 73.2 74.2829 73.3583 73.7996 73.675C73.3163 73.9917 72.9329 74.4167 72.6496 74.95C72.3663 75.4833 72.2246 76.0667 72.2246 76.7ZM87.5453 71.55L87.7953 74.55L87.6953 74.15C87.9786 73.5167 88.3703 72.975 88.8703 72.525C89.387 72.075 89.9203 71.7333 90.4703 71.5C91.037 71.25 91.512 71.125 91.8953 71.125L91.7703 73.625C90.987 73.575 90.2953 73.725 89.6953 74.075C89.112 74.425 88.6536 74.8917 88.3203 75.475C87.987 76.0583 87.8203 76.6833 87.8203 77.35V82H85.2953V71.55H87.5453ZM100.277 82.25C99.0773 82.25 98.044 82.0167 97.1773 81.55C96.3107 81.0667 95.644 80.4083 95.1773 79.575C94.7107 78.725 94.4773 77.7667 94.4773 76.7C94.4773 75.6667 94.7357 74.7333 95.2523 73.9C95.7857 73.05 96.494 72.375 97.3773 71.875C98.2607 71.375 99.244 71.125 100.327 71.125C101.727 71.125 102.886 71.5333 103.802 72.35C104.736 73.15 105.361 74.2833 105.677 75.75L97.1523 78.7L96.5523 77.25L103.402 74.75L102.877 75.1C102.677 74.5667 102.361 74.1083 101.927 73.725C101.494 73.325 100.902 73.125 100.152 73.125C99.219 73.125 98.4523 73.45 97.8523 74.1C97.269 74.7333 96.9773 75.55 96.9773 76.55C96.9773 77.6167 97.294 78.475 97.9273 79.125C98.5607 79.775 99.3607 80.1 100.327 80.1C100.777 80.1 101.211 80.025 101.627 79.875C102.044 79.7083 102.436 79.4917 102.802 79.225L103.952 81.1C103.419 81.45 102.827 81.7333 102.177 81.95C101.544 82.15 100.911 82.25 100.277 82.25ZM111.762 71.55L112.012 74.55L111.912 74.15C112.195 73.5167 112.587 72.975 113.087 72.525C113.604 72.075 114.137 71.7333 114.687 71.5C115.254 71.25 115.729 71.125 116.112 71.125L115.987 73.625C115.204 73.575 114.512 73.725 113.912 74.075C113.329 74.425 112.87 74.8917 112.537 75.475C112.204 76.0583 112.037 76.6833 112.037 77.35V82H109.512V71.55H111.762Z" fill="white"/>
</svg>
