<svg width="34" height="43" viewBox="0 0 34 43" fill="none" xmlns="http://www.w3.org/2000/svg">
<path d="M32.8265 32.0063C32.352 31.5261 31.7642 31.175 31.1197 30.9958C31.2047 30.0498 31.1551 29.1038 30.971 28.1721C31.5376 27.5128 31.8562 26.6743 31.8704 25.8C31.8633 24.9185 31.5376 24.0656 30.9639 23.3991C30.8365 22.8401 24.9514 17.1856 24.4699 16.6123C26.0491 14.792 26.9202 12.4556 26.9131 10.0333C26.9131 9.39546 26.8494 8.75763 26.7361 8.12696C28.8181 7.03763 29.6396 4.44329 28.5632 2.33629C27.4867 0.229294 24.9231 -0.602039 22.841 0.487294C22.4515 0.687961 22.0974 0.953127 21.7929 1.26129C18.8185 -0.422873 15.1926 -0.422873 12.2183 1.26129C10.554 -0.415706 7.86291 -0.408539 6.20576 1.26846C4.5486 2.95263 4.55568 5.67596 6.21284 7.35296C6.52444 7.66113 6.87853 7.92629 7.26095 8.12696C7.14764 8.75763 7.08391 9.39546 7.08391 10.0333C7.08391 12.4556 7.94789 14.792 9.52715 16.6123C8.98185 17.2501 3.23846 22.7685 3.03308 23.392C1.82917 24.7536 1.82209 26.8105 3.026 28.1721C2.84187 29.1038 2.7923 30.0498 2.87728 30.9958C2.23283 31.175 1.64504 31.5261 1.17056 32.0063C0.391551 32.8233 -0.0333604 33.9198 0.00204893 35.0593C0.101195 37.1233 0.986427 39.0726 2.47362 40.4988C3.88291 41.9966 5.80209 42.8925 7.84167 43H7.84875C8.97476 43.0358 10.0654 42.6058 10.8727 41.8175C11.1914 41.4878 11.4463 41.1008 11.6375 40.678C12.0412 40.7496 12.4449 40.7998 12.8485 40.8285H21.191C21.5805 40.7998 21.97 40.7496 22.3595 40.678C22.5507 41.1008 22.8056 41.4878 23.1243 41.8175C23.9316 42.6058 25.0223 43.0358 26.1483 43C30.3407 42.6703 33.6692 39.302 33.9879 35.0593C34.0233 33.9198 33.6055 32.8233 32.8194 32.0063H32.8265ZM8.28782 38.9365C8.28782 39.0081 8.26658 39.0798 8.23117 39.1443C8.11078 39.2016 7.97622 39.2303 7.84167 39.216C6.79355 39.1085 5.82334 38.614 5.12223 37.8185C4.44946 37.1806 3.98205 36.3565 3.77668 35.4463C3.70586 35.1883 3.72002 34.916 3.81209 34.6723C3.96081 34.615 4.12369 34.5863 4.27949 34.6006C5.2922 34.7296 6.23409 35.2241 6.92103 35.991C7.58672 36.636 8.0612 37.4673 8.27366 38.3775C8.30907 38.5638 8.31615 38.7501 8.28782 38.9365ZM20.1853 9.31663C20.7731 9.31663 21.2476 9.79679 21.2476 10.3916C21.2476 10.9865 20.7731 11.4666 20.1853 11.4666C19.5976 11.4666 19.1231 10.9865 19.1231 10.3916C19.1231 9.79679 19.5976 9.31663 20.1853 9.31663ZM22.664 15.05C22.4303 17.6801 19.2222 18.6046 16.9985 18.6333C14.7748 18.6118 11.5667 17.6801 11.333 15.05C11.333 13.1078 13.925 11.4666 16.9985 11.4666C20.072 11.4666 22.664 13.1078 22.664 15.05ZM13.8117 9.31663C14.3995 9.31663 14.874 9.79679 14.874 10.3916C14.874 10.9865 14.3995 11.4666 13.8117 11.4666C13.2239 11.4666 12.7494 10.9865 12.7494 10.3916C12.7494 9.79679 13.2239 9.31663 13.8117 9.31663ZM16.9773 36.2561C16.9773 36.2561 10.3486 29.5338 10.2637 29.4406C11.7084 28.8028 12.6715 27.391 12.7494 25.8C12.6786 24.2591 11.7792 22.8831 10.3982 22.231C10.9648 21.887 11.6092 21.6935 12.2749 21.6791C13.2664 21.6505 14.8102 21.9873 16.4745 23.6786C16.7506 23.9581 17.2039 23.9581 17.4801 23.6786C18.5494 22.4531 20.072 21.7221 21.6867 21.6791C22.3524 21.7006 22.9968 21.8941 23.5705 22.2381C22.2108 22.9046 21.3184 24.2735 21.2476 25.8C21.3114 27.391 22.2674 28.8028 23.705 29.4335C23.62 29.5266 16.9773 36.2561 16.9773 36.2561ZM30.2203 35.4463C30.015 36.3565 29.5476 37.1806 28.8748 37.8185C28.1737 38.614 27.2035 39.1085 26.1554 39.216C26.0208 39.2303 25.8862 39.2016 25.7659 39.1443C25.6809 38.9006 25.6667 38.6355 25.7234 38.3775C25.9358 37.4673 26.4103 36.636 27.076 35.991C27.7629 35.2241 28.7048 34.7296 29.7175 34.6006C29.8733 34.5863 30.0362 34.615 30.1849 34.6723C30.277 34.916 30.2912 35.1883 30.2203 35.4463Z" fill="#004358"/>
<path d="M19.7039 16.0963C19.4348 15.8096 18.9886 15.7953 18.7053 16.0605C18.507 16.297 18.2238 16.4475 17.9193 16.4833C17.8343 16.469 17.7635 16.426 17.7068 16.3615V15.652C18.7478 15.437 19.4773 14.7776 19.4773 13.9391C19.4773 12.9215 18.4079 12.1475 16.9986 12.1475C15.5893 12.1475 14.52 12.9215 14.52 13.9391C14.52 14.7776 15.2494 15.4441 16.2904 15.652V16.3615C16.2338 16.426 16.163 16.469 16.078 16.4833C15.7735 16.4475 15.4973 16.297 15.299 16.0605C15.0086 15.7953 14.5625 15.824 14.3004 16.1178C14.0526 16.4045 14.0667 16.8345 14.3288 17.1068C14.7678 17.587 15.3769 17.8736 16.0284 17.9166C16.1205 17.9166 16.2196 17.9095 16.3117 17.8951C16.5595 17.8521 16.7932 17.7518 16.9986 17.6085C17.204 17.7518 17.4377 17.8521 17.6856 17.8951C17.7776 17.9095 17.8768 17.9166 17.9688 17.9166C18.6204 17.8736 19.2294 17.587 19.6685 17.0996C19.9517 16.8273 19.9659 16.3758 19.6968 16.0891L19.7039 16.0963Z" fill="#004358"/>
</svg>
