<svg xmlns="http://www.w3.org/2000/svg" width="39" height="28" viewBox="0 0 39 28" fill="none">
<g clip-path="url(#clip0_3059_17140)">
<path d="M38.3797 27.7565H0.620239V7.42609H5.18986V20.6957L19.5 25.2L33.9304 20.6957V7.42609H38.5L38.3797 27.7565ZM21.424 26.1739H36.8164V8.88696H35.3734V21.913L21.424 26.1739ZM2.18353 26.1739H17.5759L3.62657 21.913V8.88696H2.18353V26.1739Z" fill="#004358"/>
<path d="M20.3417 5.96521H18.7784V25.9304H20.3417V5.96521Z" fill="#004358"/>
<path d="M4.46832 1.70436V21.6696L19.3797 26.2957L34.5316 21.4261V1.21741L19.2595 6.45219L4.46832 1.70436Z" fill="#004358"/>
<path d="M19.5 26.7826L3.62659 21.913V0.243469L19.5 5.23477L35.3734 0.243469V21.913L19.5 26.7826ZM5.18988 20.6956L19.5 25.2L33.9304 20.6956V2.31303L19.5 6.81738L5.18988 2.31303V20.6956Z" fill="#004358"/>
<path d="M31.2848 15.7043L22.2658 18.8695C22.0253 18.9913 21.7848 18.9913 21.5443 18.626C21.4241 18.5043 21.4241 18.5043 21.4241 18.2608C21.4241 17.7739 21.7848 17.4087 22.1456 17.2869L31.1646 14.1217C31.4051 14 31.6456 14 31.8861 14.3652C32.0064 14.4869 32.0064 14.4869 32.0064 14.7304C31.8861 15.0956 31.6456 15.5826 31.2848 15.7043Z" fill="#ffffff"/>
<path d="M31.2848 9.98258L27.557 11.3217C27.3165 11.4434 27.076 11.4434 26.8355 11.0782C26.7152 10.9565 26.7152 10.9565 26.7152 10.713C26.7152 10.2261 27.076 9.86084 27.4367 9.61736L31.1646 8.27823C31.4051 8.15649 31.7658 8.27823 31.8861 8.52171C32.0064 8.64344 32.0064 8.64345 32.0064 8.88692C31.8861 9.37388 31.6456 9.7391 31.2848 9.98258Z" fill="#ffffff"/>
<path d="M25.1519 12.0521L22.2658 13.0261C22.0253 13.1478 21.7848 13.1478 21.5443 12.7826C21.4241 12.6608 21.4241 12.6608 21.4241 12.4174C21.4241 11.9304 21.7848 11.5652 22.1456 11.4434L25.0317 10.4695C25.2722 10.3478 25.5127 10.3478 25.7532 10.713C25.8734 10.8348 25.8734 10.8348 25.8734 11.0782C25.7532 11.5652 25.5127 11.9304 25.1519 12.0521Z" fill="#ffffff"/>
<path d="M28.8797 13.6348L24.6709 15.0956C24.4304 15.2174 24.1899 15.2174 23.9494 14.8522C23.8291 14.7304 23.8291 14.7304 23.8291 14.4869C23.8291 14 24.1899 13.6348 24.5506 13.3913L28.7595 11.9304C29 11.8087 29.2405 11.8087 29.481 12.1739C29.6013 12.2956 29.6013 12.2956 29.6013 12.5391C29.481 13.1478 29.2405 13.513 28.8797 13.6348Z" fill="#ffffff"/>
<path d="M7.59493 9.7391L16.6139 12.9043C16.8544 13.0261 17.0949 13.0261 17.3354 12.6608C17.4557 12.5391 17.4557 12.5391 17.4557 12.2956C17.4557 11.8087 17.0949 11.4434 16.7342 11.2L7.59493 8.15649C7.35443 8.03475 7.11392 8.03475 6.87341 8.39997C6.87341 8.52171 6.87341 8.52171 6.87341 8.76518C6.87341 9.25214 7.11392 9.61736 7.59493 9.7391Z" fill="#ffffff"/>
<path d="M7.59493 12.7826L11.3228 14.1217C11.5633 14.2435 11.8038 14.2435 12.0443 13.8782C12.1646 13.7565 12.1646 13.7565 12.1646 13.513C12.1646 13.0261 11.8038 12.6609 11.443 12.5391L7.59493 11.2C7.35443 11.0782 7.11392 11.2 6.87341 11.4435C6.87341 11.5652 6.87341 11.5652 6.87341 11.8087C6.87341 12.1739 7.11392 12.6609 7.59493 12.7826Z" fill="#ffffff"/>
<path d="M13.7278 14.8522L16.6139 15.8261C16.8544 15.9478 17.0949 15.9478 17.3354 15.5826C17.4557 15.4609 17.4557 15.4609 17.4557 15.2174C17.4557 14.7304 17.0949 14.3652 16.7341 14.2435L13.7278 13.3913C13.4873 13.2696 13.2468 13.2696 13.0063 13.6348C12.886 13.7565 12.886 13.7565 12.886 14C13.0063 14.3652 13.2468 14.7304 13.7278 14.8522Z" fill="#ffffff"/>
<path d="M10 16.5565L14.2089 18.0173C14.4494 18.1391 14.6899 18.1391 14.9304 17.7739C15.0507 17.6521 15.0507 17.6521 15.0507 17.4087C15.0507 16.9217 14.6899 16.5565 14.3291 16.4347L10.1203 14.9739C9.87977 14.8521 9.63926 14.8521 9.39876 15.2173C9.2785 15.3391 9.2785 15.3391 9.2785 15.5826C9.2785 15.9478 9.51901 16.4347 10 16.5565Z" fill="#ffffff"/>
</g>
<defs fill="#004358">
<clipPath id="clip0_3059_17140" fill="#004358">
<rect width="38" height="28" fill="#004358" transform="translate(0.5)"/>
</clipPath>
</defs>
</svg>