<svg width="37" height="40" viewBox="0 0 37 40" fill="none" xmlns="http://www.w3.org/2000/svg">
<path fill-rule="evenodd" clip-rule="evenodd" d="M2.96109 9.52794C1.83171 9.82841 1 10.8624 1 12.0907V35.907C1 37.374 2.17315 38.5582 3.62646 38.5582H33.4981C34.1984 38.5582 34.8638 38.2754 35.3541 37.7805C35.8444 37.2856 36.1245 36.6051 36.1245 35.907V20.0972C36.1245 19.3903 35.8444 18.7186 35.3541 18.2238C35.284 18.1531 35.214 18.0912 35.144 18.0293V10.0935C35.144 9.39538 34.8638 8.71492 34.3735 8.22003C33.8833 7.72515 33.2091 7.44236 32.5175 7.44236H30.5126V4.09306C30.5126 3.38608 30.2325 2.71445 29.7422 2.21957C29.2519 1.72469 28.5778 1.44189 27.8862 1.44189H5.58755C4.88716 1.44189 4.22179 1.72469 3.73152 2.21957C3.24125 2.71445 2.96109 3.38608 2.96109 4.09306V9.52794ZM14.0623 19.2135H33.4893C33.7257 19.2135 33.9446 19.3019 34.1109 19.4698C34.2772 19.6377 34.3648 19.8586 34.3648 20.0972V35.907C34.3648 36.1368 34.2685 36.3665 34.1109 36.5345C33.9446 36.7024 33.7257 36.7907 33.4893 36.7907H3.62646C3.14494 36.7907 2.75097 36.3931 2.75097 35.907V12.0907C2.75097 11.6047 3.14494 11.207 3.62646 11.207H10.5953C10.8317 11.207 11.0506 11.3042 11.2169 11.4633C11.3833 11.6312 11.4708 11.861 11.4708 12.0907L11.4446 16.5358C11.4446 17.2428 11.716 17.9233 12.2062 18.4182C12.6965 18.9219 13.3706 19.2047 14.071 19.2047L14.0623 19.2135ZM30.5039 9.2098V17.4461H33.3842V10.0935C33.3842 9.86375 33.2879 9.63399 33.1304 9.46608C32.964 9.29817 32.7451 9.2098 32.5088 9.2098H30.5039ZM13.2043 13.4428V15.2103H24.4455C24.927 15.2103 25.321 14.8126 25.321 14.3265C25.321 13.8405 24.927 13.4428 24.4455 13.4428H13.2043ZM10.6566 9.43957C11.3307 9.45724 11.9698 9.74004 12.4426 10.2172C12.7228 10.5 12.9241 10.8358 13.0554 11.1982H24.4368C24.9183 11.1982 25.3123 10.8005 25.3123 10.3145C25.3123 9.82841 24.9183 9.43073 24.4368 9.43073H10.6916C10.6916 9.43073 10.6654 9.43073 10.6479 9.43073L10.6566 9.43957ZM8.71304 7.20375H24.4455C24.927 7.20375 25.321 6.80608 25.321 6.32003C25.321 5.83399 24.927 5.43631 24.4455 5.43631H8.72179C8.24027 5.43631 7.8463 5.83399 7.8463 6.32003C7.8463 6.80608 8.24027 7.20375 8.72179 7.20375H8.71304Z" fill="#004358" stroke="#004358" stroke-miterlimit="10"/>
</svg>
