<svg width="496.6" height="100" xmlns="http://www.w3.org/2000/svg" xml:space="preserve" version="1.1">

 <g>
  <title>Layer 1</title>
  <g id="svg_1">
   <g id="svg_2">
    <path id="svg_3" fill="#606061" d="m98,50l-15,-27l-54.2,0c-3.2,0 -5.8,2.6 -5.8,5.8l0,42.4c0,3.2 2.6,5.8 5.8,5.8l54.2,0l15,-27z" class="st0"/>
    <path id="svg_4" fill="#BA1F40" d="m96.5,25.8c-1.1,-1.7 -3,-2.8 -5,-2.8l-4.5,0l15.2,27l-15.2,27l4.5,0c2.1,0 4,-1.1 5,-2.8l13.5,-24.2l-13.5,-24.2z" class="st1"/>
   </g>
   <g id="svg_5">
    <rect id="svg_6" fill="#FFFFFF" height="24" width="4" class="st2" y="38" x="55"/>
    <polygon id="svg_7" fill="#FFFFFF" points="47,38 47,55.6 36,38 32,38 32,62 36,62 36,44.4 47,62 51,62 51,38   " class="st2"/>
    <polygon id="svg_8" fill="#FFFFFF" points="78,38 78,48 67,48 67,38 63,38 63,62 67,62 67,52 78,52 78,62 82,62 82,38   " class="st2"/>
   </g>
  </g>
  <g id="svg_9">
   <g id="svg_10">
    <path id="svg_11" fill="#BB0E3D" d="m130.8,31l2.5,0l0,11.2l-2.5,0l-5.3,-7l0,7l-2.5,0l0,-11.2l2.3,0l5.5,7.2l0,-7.2z" class="st3"/>
    <path id="svg_12" fill="#BB0E3D" d="m144.1,42.2l-1,-2.4l-4.7,0l-1,2.4l-2.7,0l4.8,-11.2l2.4,0l4.8,11.2l-2.6,0zm-3.4,-7.9l-1.4,3.2l2.8,0l-1.4,-3.2z" class="st3"/>
    <path id="svg_13" fill="#BB0E3D" d="m151.9,33.2l0,9l-2.5,0l0,-9l-3.2,0l0,-2.2l8.8,0l0,2.2l-3.1,0z" class="st3"/>
    <path id="svg_14" fill="#BB0E3D" d="m156.9,31l2.5,0l0,11.2l-2.5,0l0,-11.2z" class="st3"/>
    <path id="svg_15" fill="#BB0E3D" d="m171.6,40.6c-1.1,1.1 -2.5,1.7 -4.2,1.7s-3,-0.6 -4.2,-1.7c-1.1,-1.1 -1.7,-2.5 -1.7,-4.1c0,-1.6 0.6,-3 1.7,-4.1c1.1,-1.1 2.5,-1.7 4.2,-1.7s3,0.6 4.2,1.7c1.1,1.1 1.7,2.5 1.7,4.1c0,1.7 -0.6,3 -1.7,4.1zm-0.9,-4.1c0,-1 -0.3,-1.8 -1,-2.6c-0.6,-0.7 -1.4,-1.1 -2.4,-1.1s-1.7,0.4 -2.4,1.1s-1,1.6 -1,2.6c0,1 0.3,1.8 1,2.5c0.6,0.7 1.4,1 2.4,1s1.7,-0.3 2.4,-1c0.7,-0.6 1,-1.5 1,-2.5z" class="st3"/>
    <path id="svg_16" fill="#BB0E3D" d="m183.2,31l2.5,0l0,11.2l-2.5,0l-5.3,-7l0,7l-2.5,0l0,-11.2l2.3,0l5.5,7.2l0,-7.2z" class="st3"/>
    <path id="svg_17" fill="#BB0E3D" d="m196.4,42.2l-1,-2.4l-4.7,0l-1,2.4l-2.7,0l4.8,-11.2l2.4,0l4.8,11.2l-2.6,0zm-3.3,-7.9l-1.4,3.2l2.8,0l-1.4,-3.2z" class="st3"/>
    <path id="svg_18" fill="#BB0E3D" d="m200.4,42.2l0,-11.2l2.5,0l0,9l4.8,0l0,2.2l-7.3,0z" class="st3"/>
    <path id="svg_19" fill="#BB0E3D" d="m218.8,40c1.2,0 2.2,-0.5 3,-1.5l1.6,1.6c-1.3,1.4 -2.8,2.1 -4.5,2.1s-3.1,-0.5 -4.3,-1.6c-1.1,-1.1 -1.7,-2.5 -1.7,-4.1c0,-1.7 0.6,-3 1.7,-4.2c1.1,-1.1 2.5,-1.7 4.2,-1.7c1.8,0 3.4,0.7 4.6,2.1l-1.6,1.8c-0.8,-1 -1.8,-1.5 -2.9,-1.5c-0.9,0 -1.7,0.3 -2.4,0.9c-0.7,0.6 -1,1.4 -1,2.5s0.3,1.9 0.9,2.5c0.8,0.8 1.5,1.1 2.4,1.1z" class="st3"/>
    <path id="svg_20" fill="#BB0E3D" d="m233.3,42.2l-1,-2.4l-4.7,0l-1,2.4l-2.7,0l4.8,-11.2l2.4,0l4.8,11.2l-2.6,0zm-3.4,-7.9l-1.4,3.2l2.8,0l-1.4,-3.2z" class="st3"/>
    <path id="svg_21" fill="#BB0E3D" d="m245.1,31l2.5,0l0,11.2l-2.5,0l-5.3,-7l0,7l-2.5,0l0,-11.2l2.3,0l5.5,7.2l0,-7.2z" class="st3"/>
    <path id="svg_22" fill="#BB0E3D" d="m255.5,40c1.2,0 2.2,-0.5 3,-1.5l1.6,1.6c-1.3,1.4 -2.8,2.1 -4.5,2.1s-3.1,-0.5 -4.3,-1.6c-1.1,-1.1 -1.7,-2.5 -1.7,-4.1c0,-1.7 0.6,-3 1.7,-4.2c1.1,-1.1 2.5,-1.7 4.2,-1.7c1.8,0 3.4,0.7 4.6,2.1l-1.6,1.8c-0.8,-1 -1.8,-1.5 -2.9,-1.5c-0.9,0 -1.7,0.3 -2.4,0.9c-0.7,0.6 -1,1.4 -1,2.5s0.3,1.9 0.9,2.5c0.7,0.8 1.5,1.1 2.4,1.1z" class="st3"/>
    <path id="svg_23" fill="#BB0E3D" d="m270.1,31l0,2.2l-5.6,0l0,2.3l5,0l0,2.1l-5,0l0,2.4l5.7,0l0,2.2l-8.2,0l0,-11.2l8.1,0z" class="st3"/>
    <path id="svg_24" fill="#BB0E3D" d="m281.6,34.7c0,1.8 -0.7,2.9 -2.1,3.5l2.8,4l-3.1,0l-2.5,-3.6l-1.7,0l0,3.6l-2.5,0l0,-11.2l4.2,0c1.7,0 3,0.3 3.7,0.9s1.2,1.5 1.2,2.8zm-3,1.3c0.3,-0.3 0.5,-0.7 0.5,-1.3s-0.2,-1 -0.5,-1.2s-0.9,-0.3 -1.7,-0.3l-1.9,0l0,3.3l1.8,0c0.9,0 1.4,-0.2 1.8,-0.5z" class="st3"/>
    <path id="svg_25" fill="#BB0E3D" d="m288.4,31l2.5,0l0,11.2l-2.5,0l0,-11.2z" class="st3"/>
    <path id="svg_26" fill="#BB0E3D" d="m301.4,31l2.5,0l0,11.2l-2.5,0l-5.3,-7l0,7l-2.5,0l0,-11.2l2.3,0l5.5,7.2l0,-7.2z" class="st3"/>
    <path id="svg_27" fill="#BB0E3D" d="m309.3,33.2c-0.2,0.2 -0.4,0.5 -0.4,0.8s0.1,0.6 0.4,0.8c0.3,0.2 1,0.4 2,0.7s1.9,0.7 2.5,1.2c0.6,0.5 0.9,1.3 0.9,2.3c0,1 -0.4,1.8 -1.1,2.4s-1.7,0.9 -3,0.9c-1.8,0 -3.4,-0.7 -4.8,-2l1.5,-1.8c1.2,1.1 2.3,1.6 3.3,1.6c0.5,0 0.8,-0.1 1.1,-0.3c0.3,-0.2 0.4,-0.5 0.4,-0.8s-0.1,-0.6 -0.4,-0.8s-0.8,-0.4 -1.6,-0.6c-1.3,-0.3 -2.3,-0.7 -2.9,-1.2s-0.9,-1.3 -0.9,-2.3s0.4,-1.9 1.1,-2.5c0.8,-0.6 1.7,-0.9 2.9,-0.9c0.7,0 1.5,0.1 2.2,0.4c0.7,0.3 1.4,0.6 2,1.1l-1.3,1.8c-1,-0.7 -2,-1.1 -3,-1.1c-0.3,0 -0.7,0.1 -0.9,0.3z" class="st3"/>
    <path id="svg_28" fill="#BB0E3D" d="m321.5,33.2l0,9l-2.5,0l0,-9l-3.2,0l0,-2.2l8.8,0l0,2.2l-3.1,0z" class="st3"/>
    <path id="svg_29" fill="#BB0E3D" d="m326.5,31l2.5,0l0,11.2l-2.5,0l0,-11.2z" class="st3"/>
    <path id="svg_30" fill="#BB0E3D" d="m336.5,33.2l0,9l-2.5,0l0,-9l-3.2,0l0,-2.2l8.8,0l0,2.2l-3.1,0z" class="st3"/>
    <path id="svg_31" fill="#BB0E3D" d="m344.4,39.3c0.4,0.5 1,0.8 1.7,0.8s1.3,-0.3 1.7,-0.8c0.4,-0.5 0.6,-1.2 0.6,-2.1l0,-6.2l2.5,0l0,6.3c0,1.6 -0.4,2.9 -1.3,3.7c-0.9,0.9 -2,1.3 -3.4,1.3c-1.4,0 -2.5,-0.4 -3.4,-1.3s-1.4,-2.1 -1.4,-3.7l0,-6.3l2.5,0l0,6.2c-0.1,0.9 0.1,1.6 0.5,2.1z" class="st3"/>
    <path id="svg_32" fill="#BB0E3D" d="m358.2,33.2l0,9l-2.5,0l0,-9l-3.2,0l0,-2.2l8.8,0l0,2.2l-3.1,0z" class="st3"/>
    <path id="svg_33" fill="#BB0E3D" d="m371.3,31l0,2.2l-5.6,0l0,2.3l5,0l0,2.1l-5,0l0,2.4l5.7,0l0,2.2l-8.2,0l0,-11.2l8.1,0z" class="st3"/>
   </g>
  </g>
  <rect id="svg_34" fill="none" height="54.1" width="628.1" class="st4" y="53.2" x="120"/>
  <text style="cursor: move;" id="svg_35" font-size="21px" font-family="'Montserrat-Bold'" stroke-miterlimit="10" stroke-width="0.125" stroke="#606060" fill="#606060" class="st5 st6 st7" transform="matrix(1 0 0 1 119.983 68.7989)">Childhood Cancer Clinical Data</text>
 </g>
</svg>
