<svg width="480" height="47" viewBox="0 0 480 47" fill="none" xmlns="http://www.w3.org/2000/svg">
<path d="M63.3518 2.59716C62.3405 1.14611 60.7465 0.134766 59.0096 0.134766H55.1072L68.2656 23.4176L55.1072 46.7005H59.0096C60.8894 46.7005 62.4834 45.6891 63.3518 44.2381L74.9273 23.4066L63.3518 2.57518V2.59716Z" fill="#BA1F40"/>
<path d="M64.6489 23.4286L51.7763 0.145752H5.05671C2.16559 0.145752 0 2.45425 0 5.20246V41.7976C0 44.5459 2.16559 46.8654 5.0677 46.8654H51.7873L64.6599 23.4286H64.6489Z" fill="#606061"/>
<path d="M31.0987 13.1614H27.625V33.8499H31.0987V13.1614Z" fill="white"/>
<path d="M20.6771 13.1616V28.1998L11.1353 13.1616H7.80444V33.8502H11.1353V18.658L20.6771 33.8502H24.1508V13.1616H20.6771Z" fill="white"/>
<path d="M47.4337 13.1616V21.6921H37.892V13.1616H34.4182V33.8502H37.892V25.1658H47.4337V33.8502H50.9075V13.1616H47.4337Z" fill="white"/>
<path d="M93.3837 5.74756H95.7554V16.3618H93.3837L88.3222 9.70498V16.3618H85.9504V5.74756H88.1755L93.3837 12.5753V5.74756Z" fill="#BB0E3D"/>
<path d="M105.94 16.3618L104.949 14.0655H100.499L99.509 16.3618H96.9905L101.587 5.74756H103.886L108.483 16.3618H105.964H105.94ZM102.737 8.89884L101.404 11.9768H104.069L102.749 8.89884H102.737Z" fill="#BB0E3D"/>
<path d="M113.422 7.79956V16.3618H111.05V7.79956H108.042V5.74756H116.429V7.79956H113.422Z" fill="#BB0E3D"/>
<path d="M118.165 5.74756H120.537V16.3618H118.165V5.74756Z" fill="#BB0E3D"/>
<path d="M132.09 14.8962C131.014 15.9466 129.694 16.4718 128.117 16.4718C126.54 16.4718 125.219 15.9466 124.143 14.8962C123.067 13.8458 122.53 12.5388 122.53 10.9876C122.53 9.43641 123.067 8.12949 124.143 7.07906C125.219 6.02863 126.54 5.50342 128.117 5.50342C129.694 5.50342 131.014 6.02863 132.09 7.07906C133.166 8.12949 133.704 9.43641 133.704 10.9876C133.704 12.5388 133.166 13.8458 132.09 14.8962ZM131.283 10.9876C131.283 10.0471 130.977 9.22877 130.366 8.5692C129.755 7.89742 129.009 7.56763 128.129 7.56763C127.249 7.56763 126.491 7.89742 125.892 8.5692C125.293 9.24099 124.975 10.0471 124.975 10.9876C124.975 11.9281 125.28 12.7343 125.892 13.4061C126.503 14.0656 127.249 14.3954 128.129 14.3954C129.009 14.3954 129.767 14.0656 130.366 13.4061C130.977 12.7465 131.283 11.9403 131.283 10.9876Z" fill="#BB0E3D"/>
<path d="M143.142 5.74756H145.514V16.3618H143.142L138.081 9.70498V16.3618H135.709V5.74756H137.934L143.142 12.5753V5.74756Z" fill="#BB0E3D"/>
<path d="M155.699 16.3618L154.708 14.0655H150.258L149.268 16.3618H146.75L151.346 5.74756H153.645L158.242 16.3618H155.723H155.699ZM152.496 8.89884L151.163 11.9768H153.828L152.508 8.89884H152.496Z" fill="#BB0E3D"/>
<path d="M159.451 16.3618V5.74756H161.823V14.2487H166.359V16.3618H159.451Z" fill="#BB0E3D"/>
<path d="M176.971 14.2735C178.132 14.2735 179.086 13.8094 179.831 12.8933L181.347 14.4567C180.137 15.8125 178.719 16.4965 177.081 16.4965C175.442 16.4965 174.098 15.9835 173.034 14.9453C171.97 13.9071 171.445 12.6124 171.445 11.0367C171.445 9.46108 171.983 8.15415 173.058 7.09151C174.134 6.04108 175.455 5.51587 177.02 5.51587C178.768 5.51587 180.223 6.17544 181.396 7.5068L179.917 9.18015C179.171 8.25187 178.23 7.78772 177.117 7.78772C176.225 7.78772 175.467 8.08087 174.831 8.65494C174.195 9.24122 173.877 10.0229 173.877 11.0123C173.877 12.0017 174.171 12.7956 174.77 13.3941C175.369 13.9926 176.09 14.2857 176.946 14.2857L176.971 14.2735Z" fill="#BB0E3D"/>
<path d="M190.712 16.3618L189.722 14.0655H185.272L184.282 16.3618H181.763L186.36 5.74756H188.658L193.255 16.3618H190.737H190.712ZM187.509 8.89884L186.177 11.9768H188.842L187.521 8.89884H187.509Z" fill="#BB0E3D"/>
<path d="M201.911 5.74756H204.283V16.3618H201.911L196.85 9.70498V16.3618H194.478V5.74756H196.703L201.911 12.5753V5.74756Z" fill="#BB0E3D"/>
<path d="M211.765 14.2735C212.926 14.2735 213.88 13.8094 214.625 12.8933L216.141 14.4567C214.931 15.8125 213.513 16.4965 211.875 16.4965C210.236 16.4965 208.892 15.9835 207.828 14.9453C206.764 13.9071 206.239 12.6124 206.239 11.0367C206.239 9.46108 206.776 8.15415 207.852 7.09151C208.928 6.04108 210.249 5.51587 211.813 5.51587C213.562 5.51587 215.017 6.17544 216.19 7.5068L214.711 9.18015C213.965 8.25187 213.024 7.78772 211.911 7.78772C211.019 7.78772 210.261 8.08087 209.625 8.65494C208.989 9.24122 208.671 10.0229 208.671 11.0123C208.671 12.0017 208.965 12.7956 209.564 13.3941C210.163 13.9926 210.884 14.2857 211.74 14.2857L211.765 14.2735Z" fill="#BB0E3D"/>
<path d="M225.677 5.74756V7.86063H220.383V10.047H225.139V12.0623H220.383V14.2609H225.836V16.3618H218.012V5.74756H225.677Z" fill="#BB0E3D"/>
<path d="M236.583 9.27772C236.583 10.9755 235.911 12.0748 234.566 12.5756L237.256 16.3742H234.334L231.974 12.9909H230.336V16.3742H227.964V5.76001H231.999C233.649 5.76001 234.835 6.04094 235.532 6.59058C236.229 7.14022 236.583 8.04408 236.583 9.27772ZM233.722 10.5358C234.016 10.2671 234.163 9.85179 234.163 9.27772C234.163 8.70365 234.016 8.31279 233.71 8.10515C233.405 7.89751 232.879 7.78758 232.109 7.78758H230.336V10.9266H232.072C232.879 10.9266 233.429 10.7923 233.735 10.5358H233.722Z" fill="#BB0E3D"/>
<path d="M243.027 5.74756H245.398V16.3618H243.027V5.74756Z" fill="#BB0E3D"/>
<path d="M255.447 5.74756H257.819V16.3618H255.447L250.385 9.70498V16.3618H248.014V5.74756H250.239L255.447 12.5753V5.74756Z" fill="#BB0E3D"/>
<path d="M262.918 7.87299C262.686 8.0562 262.576 8.3127 262.576 8.61806C262.576 8.92342 262.71 9.1677 262.991 9.35091C263.272 9.53413 263.908 9.74177 264.923 9.99827C265.938 10.2548 266.72 10.6212 267.27 11.1098C267.833 11.6106 268.102 12.3312 268.102 13.2839C268.102 14.2366 267.747 15.0061 267.026 15.6046C266.304 16.2031 265.375 16.4963 264.202 16.4963C262.514 16.4963 260.998 15.8733 259.654 14.6275L261.072 12.8931C262.221 13.8946 263.272 14.3954 264.25 14.3954C264.691 14.3954 265.033 14.2977 265.277 14.1145C265.522 13.9313 265.656 13.6748 265.656 13.3572C265.656 13.0396 265.522 12.7831 265.265 12.5999C265.008 12.4167 264.483 12.2213 263.7 12.0258C262.465 11.7327 261.561 11.3541 260.986 10.8777C260.412 10.4013 260.13 9.66849 260.13 8.6547C260.13 7.64092 260.497 6.87142 261.218 6.32177C261.94 5.77213 262.844 5.50342 263.933 5.50342C264.642 5.50342 265.351 5.62556 266.06 5.86985C266.769 6.11413 267.392 6.45613 267.918 6.90806L266.72 8.64249C265.803 7.94627 264.849 7.59206 263.859 7.59206C263.468 7.59206 263.15 7.68977 262.93 7.87299H262.918Z" fill="#BB0E3D"/>
<path d="M274.532 7.79956V16.3618H272.16V7.79956H269.153V5.74756H277.539V7.79956H274.532Z" fill="#BB0E3D"/>
<path d="M279.276 5.74756H281.647V16.3618H279.276V5.74756Z" fill="#BB0E3D"/>
<path d="M288.762 7.79956V16.3618H286.391V7.79956H283.383V5.74756H291.77V7.79956H288.762Z" fill="#BB0E3D"/>
<path d="M296.318 13.626C296.709 14.1146 297.247 14.3589 297.919 14.3589C298.592 14.3589 299.117 14.1146 299.509 13.626C299.9 13.1374 300.095 12.4657 300.095 11.6107V5.74781H302.467V11.6839C302.467 13.2229 302.039 14.4077 301.196 15.2261C300.34 16.0567 299.252 16.4597 297.932 16.4597C296.611 16.4597 295.511 16.0444 294.655 15.2139C293.799 14.3833 293.371 13.1985 293.371 11.6717V5.7356H295.743V11.5984C295.743 12.4534 295.939 13.113 296.33 13.6138L296.318 13.626Z" fill="#BB0E3D"/>
<path d="M309.423 7.79956V16.3618H307.052V7.79956H304.044V5.74756H312.431V7.79956H309.423Z" fill="#BB0E3D"/>
<path d="M321.833 5.74756V7.86063H316.539V10.047H321.295V12.0623H316.539V14.2609H321.992V16.3618H314.167V5.74756H321.833Z" fill="#BB0E3D"/>
<path d="M92.524 41.216C91.552 41.216 90.646 41.06 89.806 40.748C88.978 40.424 88.258 39.968 87.646 39.38C87.034 38.792 86.554 38.102 86.206 37.31C85.87 36.518 85.702 35.648 85.702 34.7C85.702 33.752 85.87 32.882 86.206 32.09C86.554 31.298 87.034 30.608 87.646 30.02C88.27 29.432 88.996 28.982 89.824 28.67C90.652 28.346 91.558 28.184 92.542 28.184C93.634 28.184 94.618 28.376 95.494 28.76C96.382 29.132 97.126 29.684 97.726 30.416L95.854 32.144C95.422 31.652 94.942 31.286 94.414 31.046C93.886 30.794 93.31 30.668 92.686 30.668C92.098 30.668 91.558 30.764 91.066 30.956C90.574 31.148 90.148 31.424 89.788 31.784C89.428 32.144 89.146 32.57 88.942 33.062C88.75 33.554 88.654 34.1 88.654 34.7C88.654 35.3 88.75 35.846 88.942 36.338C89.146 36.83 89.428 37.256 89.788 37.616C90.148 37.976 90.574 38.252 91.066 38.444C91.558 38.636 92.098 38.732 92.686 38.732C93.31 38.732 93.886 38.612 94.414 38.372C94.942 38.12 95.422 37.742 95.854 37.238L97.726 38.966C97.126 39.698 96.382 40.256 95.494 40.64C94.618 41.024 93.628 41.216 92.524 41.216ZM105.383 31.172C106.151 31.172 106.835 31.328 107.435 31.64C108.047 31.94 108.527 32.408 108.875 33.044C109.223 33.668 109.397 34.472 109.397 35.456V41H106.589V35.888C106.589 35.108 106.415 34.532 106.067 34.16C105.731 33.788 105.251 33.602 104.627 33.602C104.183 33.602 103.781 33.698 103.421 33.89C103.073 34.07 102.797 34.352 102.593 34.736C102.401 35.12 102.305 35.612 102.305 36.212V41H99.4972V27.644H102.305V33.998L101.675 33.188C102.023 32.54 102.521 32.042 103.169 31.694C103.817 31.346 104.555 31.172 105.383 31.172ZM111.942 41V31.316H114.75V41H111.942ZM113.346 29.966C112.83 29.966 112.41 29.816 112.086 29.516C111.762 29.216 111.6 28.844 111.6 28.4C111.6 27.956 111.762 27.584 112.086 27.284C112.41 26.984 112.83 26.834 113.346 26.834C113.862 26.834 114.282 26.978 114.606 27.266C114.93 27.542 115.092 27.902 115.092 28.346C115.092 28.814 114.93 29.204 114.606 29.516C114.294 29.816 113.874 29.966 113.346 29.966ZM117.357 41V27.644H120.165V41H117.357ZM126.929 41.144C126.017 41.144 125.195 40.94 124.463 40.532C123.731 40.112 123.149 39.53 122.717 38.786C122.297 38.042 122.087 37.166 122.087 36.158C122.087 35.138 122.297 34.256 122.717 33.512C123.149 32.768 123.731 32.192 124.463 31.784C125.195 31.376 126.017 31.172 126.929 31.172C127.745 31.172 128.459 31.352 129.071 31.712C129.683 32.072 130.157 32.618 130.493 33.35C130.829 34.082 130.997 35.018 130.997 36.158C130.997 37.286 130.835 38.222 130.511 38.966C130.187 39.698 129.719 40.244 129.107 40.604C128.507 40.964 127.781 41.144 126.929 41.144ZM127.415 38.84C127.871 38.84 128.285 38.732 128.657 38.516C129.029 38.3 129.323 37.994 129.539 37.598C129.767 37.19 129.881 36.71 129.881 36.158C129.881 35.594 129.767 35.114 129.539 34.718C129.323 34.322 129.029 34.016 128.657 33.8C128.285 33.584 127.871 33.476 127.415 33.476C126.947 33.476 126.527 33.584 126.155 33.8C125.783 34.016 125.483 34.322 125.255 34.718C125.039 35.114 124.931 35.594 124.931 36.158C124.931 36.71 125.039 37.19 125.255 37.598C125.483 37.994 125.783 38.3 126.155 38.516C126.527 38.732 126.947 38.84 127.415 38.84ZM129.953 41V39.02L130.007 36.14L129.827 33.278V27.644H132.635V41H129.953ZM141.12 31.172C141.888 31.172 142.572 31.328 143.172 31.64C143.784 31.94 144.264 32.408 144.612 33.044C144.96 33.668 145.134 34.472 145.134 35.456V41H142.326V35.888C142.326 35.108 142.152 34.532 141.804 34.16C141.468 33.788 140.988 33.602 140.364 33.602C139.92 33.602 139.518 33.698 139.158 33.89C138.81 34.07 138.534 34.352 138.33 34.736C138.138 35.12 138.042 35.612 138.042 36.212V41H135.234V27.644H138.042V33.998L137.412 33.188C137.76 32.54 138.258 32.042 138.906 31.694C139.554 31.346 140.292 31.172 141.12 31.172ZM152.357 41.144C151.325 41.144 150.407 40.928 149.603 40.496C148.811 40.064 148.181 39.476 147.713 38.732C147.257 37.976 147.029 37.118 147.029 36.158C147.029 35.186 147.257 34.328 147.713 33.584C148.181 32.828 148.811 32.24 149.603 31.82C150.407 31.388 151.325 31.172 152.357 31.172C153.377 31.172 154.289 31.388 155.093 31.82C155.897 32.24 156.527 32.822 156.983 33.566C157.439 34.31 157.667 35.174 157.667 36.158C157.667 37.118 157.439 37.976 156.983 38.732C156.527 39.476 155.897 40.064 155.093 40.496C154.289 40.928 153.377 41.144 152.357 41.144ZM152.357 38.84C152.825 38.84 153.245 38.732 153.617 38.516C153.989 38.3 154.283 37.994 154.499 37.598C154.715 37.19 154.823 36.71 154.823 36.158C154.823 35.594 154.715 35.114 154.499 34.718C154.283 34.322 153.989 34.016 153.617 33.8C153.245 33.584 152.825 33.476 152.357 33.476C151.889 33.476 151.469 33.584 151.097 33.8C150.725 34.016 150.425 34.322 150.197 34.718C149.981 35.114 149.873 35.594 149.873 36.158C149.873 36.71 149.981 37.19 150.197 37.598C150.425 37.994 150.725 38.3 151.097 38.516C151.469 38.732 151.889 38.84 152.357 38.84ZM164.152 41.144C163.12 41.144 162.202 40.928 161.398 40.496C160.606 40.064 159.976 39.476 159.508 38.732C159.052 37.976 158.824 37.118 158.824 36.158C158.824 35.186 159.052 34.328 159.508 33.584C159.976 32.828 160.606 32.24 161.398 31.82C162.202 31.388 163.12 31.172 164.152 31.172C165.172 31.172 166.084 31.388 166.888 31.82C167.692 32.24 168.322 32.822 168.778 33.566C169.234 34.31 169.462 35.174 169.462 36.158C169.462 37.118 169.234 37.976 168.778 38.732C168.322 39.476 167.692 40.064 166.888 40.496C166.084 40.928 165.172 41.144 164.152 41.144ZM164.152 38.84C164.62 38.84 165.04 38.732 165.412 38.516C165.784 38.3 166.078 37.994 166.294 37.598C166.51 37.19 166.618 36.71 166.618 36.158C166.618 35.594 166.51 35.114 166.294 34.718C166.078 34.322 165.784 34.016 165.412 33.8C165.04 33.584 164.62 33.476 164.152 33.476C163.684 33.476 163.264 33.584 162.892 33.8C162.52 34.016 162.22 34.322 161.992 34.718C161.776 35.114 161.668 35.594 161.668 36.158C161.668 36.71 161.776 37.19 161.992 37.598C162.22 37.994 162.52 38.3 162.892 38.516C163.264 38.732 163.684 38.84 164.152 38.84ZM175.497 41.144C174.585 41.144 173.763 40.94 173.031 40.532C172.299 40.112 171.717 39.53 171.285 38.786C170.865 38.042 170.655 37.166 170.655 36.158C170.655 35.138 170.865 34.256 171.285 33.512C171.717 32.768 172.299 32.192 173.031 31.784C173.763 31.376 174.585 31.172 175.497 31.172C176.313 31.172 177.027 31.352 177.639 31.712C178.251 32.072 178.725 32.618 179.061 33.35C179.397 34.082 179.565 35.018 179.565 36.158C179.565 37.286 179.403 38.222 179.079 38.966C178.755 39.698 178.287 40.244 177.675 40.604C177.075 40.964 176.349 41.144 175.497 41.144ZM175.983 38.84C176.439 38.84 176.853 38.732 177.225 38.516C177.597 38.3 177.891 37.994 178.107 37.598C178.335 37.19 178.449 36.71 178.449 36.158C178.449 35.594 178.335 35.114 178.107 34.718C177.891 34.322 177.597 34.016 177.225 33.8C176.853 33.584 176.439 33.476 175.983 33.476C175.515 33.476 175.095 33.584 174.723 33.8C174.351 34.016 174.051 34.322 173.823 34.718C173.607 35.114 173.499 35.594 173.499 36.158C173.499 36.71 173.607 37.19 173.823 37.598C174.051 37.994 174.351 38.3 174.723 38.516C175.095 38.732 175.515 38.84 175.983 38.84ZM178.521 41V39.02L178.575 36.14L178.395 33.278V27.644H181.203V41H178.521ZM195.128 41.216C194.156 41.216 193.25 41.06 192.41 40.748C191.582 40.424 190.862 39.968 190.25 39.38C189.638 38.792 189.158 38.102 188.81 37.31C188.474 36.518 188.306 35.648 188.306 34.7C188.306 33.752 188.474 32.882 188.81 32.09C189.158 31.298 189.638 30.608 190.25 30.02C190.874 29.432 191.6 28.982 192.428 28.67C193.256 28.346 194.162 28.184 195.146 28.184C196.238 28.184 197.222 28.376 198.098 28.76C198.986 29.132 199.73 29.684 200.33 30.416L198.458 32.144C198.026 31.652 197.546 31.286 197.018 31.046C196.49 30.794 195.914 30.668 195.29 30.668C194.702 30.668 194.162 30.764 193.67 30.956C193.178 31.148 192.752 31.424 192.392 31.784C192.032 32.144 191.75 32.57 191.546 33.062C191.354 33.554 191.258 34.1 191.258 34.7C191.258 35.3 191.354 35.846 191.546 36.338C191.75 36.83 192.032 37.256 192.392 37.616C192.752 37.976 193.178 38.252 193.67 38.444C194.162 38.636 194.702 38.732 195.29 38.732C195.914 38.732 196.49 38.612 197.018 38.372C197.546 38.12 198.026 37.742 198.458 37.238L200.33 38.966C199.73 39.698 198.986 40.256 198.098 40.64C197.222 41.024 196.232 41.216 195.128 41.216ZM207.988 41V39.11L207.808 38.696V35.312C207.808 34.712 207.622 34.244 207.25 33.908C206.89 33.572 206.332 33.404 205.576 33.404C205.06 33.404 204.55 33.488 204.046 33.656C203.554 33.812 203.134 34.028 202.786 34.304L201.778 32.342C202.306 31.97 202.942 31.682 203.686 31.478C204.43 31.274 205.186 31.172 205.954 31.172C207.43 31.172 208.576 31.52 209.392 32.216C210.208 32.912 210.616 33.998 210.616 35.474V41H207.988ZM205.036 41.144C204.28 41.144 203.632 41.018 203.092 40.766C202.552 40.502 202.138 40.148 201.85 39.704C201.562 39.26 201.418 38.762 201.418 38.21C201.418 37.634 201.556 37.13 201.832 36.698C202.12 36.266 202.57 35.93 203.182 35.69C203.794 35.438 204.592 35.312 205.576 35.312H208.15V36.95H205.882C205.222 36.95 204.766 37.058 204.514 37.274C204.274 37.49 204.154 37.76 204.154 38.084C204.154 38.444 204.292 38.732 204.568 38.948C204.856 39.152 205.246 39.254 205.738 39.254C206.206 39.254 206.626 39.146 206.998 38.93C207.37 38.702 207.64 38.372 207.808 37.94L208.24 39.236C208.036 39.86 207.664 40.334 207.124 40.658C206.584 40.982 205.888 41.144 205.036 41.144ZM219.043 31.172C219.811 31.172 220.495 31.328 221.095 31.64C221.707 31.94 222.187 32.408 222.535 33.044C222.883 33.668 223.057 34.472 223.057 35.456V41H220.249V35.888C220.249 35.108 220.075 34.532 219.727 34.16C219.391 33.788 218.911 33.602 218.287 33.602C217.843 33.602 217.441 33.698 217.081 33.89C216.733 34.07 216.457 34.352 216.253 34.736C216.061 35.12 215.965 35.612 215.965 36.212V41H213.157V31.316H215.839V33.998L215.335 33.188C215.683 32.54 216.181 32.042 216.829 31.694C217.477 31.346 218.215 31.172 219.043 31.172ZM230.353 41.144C229.309 41.144 228.379 40.934 227.563 40.514C226.747 40.082 226.105 39.488 225.637 38.732C225.181 37.976 224.953 37.118 224.953 36.158C224.953 35.186 225.181 34.328 225.637 33.584C226.105 32.828 226.747 32.24 227.563 31.82C228.379 31.388 229.309 31.172 230.353 31.172C231.373 31.172 232.261 31.388 233.017 31.82C233.773 32.24 234.331 32.846 234.691 33.638L232.513 34.808C232.261 34.352 231.943 34.016 231.559 33.8C231.187 33.584 230.779 33.476 230.335 33.476C229.855 33.476 229.423 33.584 229.039 33.8C228.655 34.016 228.349 34.322 228.121 34.718C227.905 35.114 227.797 35.594 227.797 36.158C227.797 36.722 227.905 37.202 228.121 37.598C228.349 37.994 228.655 38.3 229.039 38.516C229.423 38.732 229.855 38.84 230.335 38.84C230.779 38.84 231.187 38.738 231.559 38.534C231.943 38.318 232.261 37.976 232.513 37.508L234.691 38.696C234.331 39.476 233.773 40.082 233.017 40.514C232.261 40.934 231.373 41.144 230.353 41.144ZM240.991 41.144C239.887 41.144 238.915 40.928 238.075 40.496C237.247 40.064 236.605 39.476 236.149 38.732C235.693 37.976 235.465 37.118 235.465 36.158C235.465 35.186 235.687 34.328 236.131 33.584C236.587 32.828 237.205 32.24 237.985 31.82C238.765 31.388 239.647 31.172 240.631 31.172C241.579 31.172 242.431 31.376 243.187 31.784C243.955 32.18 244.561 32.756 245.005 33.512C245.449 34.256 245.671 35.15 245.671 36.194C245.671 36.302 245.665 36.428 245.653 36.572C245.641 36.704 245.629 36.83 245.617 36.95H237.751V35.312H244.141L243.061 35.798C243.061 35.294 242.959 34.856 242.755 34.484C242.551 34.112 242.269 33.824 241.909 33.62C241.549 33.404 241.129 33.296 240.649 33.296C240.169 33.296 239.743 33.404 239.371 33.62C239.011 33.824 238.729 34.118 238.525 34.502C238.321 34.874 238.219 35.318 238.219 35.834V36.266C238.219 36.794 238.333 37.262 238.561 37.67C238.801 38.066 239.131 38.372 239.551 38.588C239.983 38.792 240.487 38.894 241.063 38.894C241.579 38.894 242.029 38.816 242.413 38.66C242.809 38.504 243.169 38.27 243.493 37.958L244.987 39.578C244.543 40.082 243.985 40.472 243.313 40.748C242.641 41.012 241.867 41.144 240.991 41.144ZM247.54 41V31.316H250.222V34.052L249.844 33.26C250.132 32.576 250.594 32.06 251.23 31.712C251.866 31.352 252.64 31.172 253.552 31.172V33.764C253.432 33.752 253.324 33.746 253.228 33.746C253.132 33.734 253.03 33.728 252.922 33.728C252.154 33.728 251.53 33.95 251.05 34.394C250.582 34.826 250.348 35.504 250.348 36.428V41H247.54ZM266.618 41.216C265.646 41.216 264.74 41.06 263.9 40.748C263.072 40.424 262.352 39.968 261.74 39.38C261.128 38.792 260.648 38.102 260.3 37.31C259.964 36.518 259.796 35.648 259.796 34.7C259.796 33.752 259.964 32.882 260.3 32.09C260.648 31.298 261.128 30.608 261.74 30.02C262.364 29.432 263.09 28.982 263.918 28.67C264.746 28.346 265.652 28.184 266.636 28.184C267.728 28.184 268.712 28.376 269.588 28.76C270.476 29.132 271.22 29.684 271.82 30.416L269.948 32.144C269.516 31.652 269.036 31.286 268.508 31.046C267.98 30.794 267.404 30.668 266.78 30.668C266.192 30.668 265.652 30.764 265.16 30.956C264.668 31.148 264.242 31.424 263.882 31.784C263.522 32.144 263.24 32.57 263.036 33.062C262.844 33.554 262.748 34.1 262.748 34.7C262.748 35.3 262.844 35.846 263.036 36.338C263.24 36.83 263.522 37.256 263.882 37.616C264.242 37.976 264.668 38.252 265.16 38.444C265.652 38.636 266.192 38.732 266.78 38.732C267.404 38.732 267.98 38.612 268.508 38.372C269.036 38.12 269.516 37.742 269.948 37.238L271.82 38.966C271.22 39.698 270.476 40.256 269.588 40.64C268.712 41.024 267.722 41.216 266.618 41.216ZM273.591 41V27.644H276.399V41H273.591ZM279.005 41V31.316H281.813V41H279.005ZM280.409 29.966C279.893 29.966 279.473 29.816 279.149 29.516C278.825 29.216 278.663 28.844 278.663 28.4C278.663 27.956 278.825 27.584 279.149 27.284C279.473 26.984 279.893 26.834 280.409 26.834C280.925 26.834 281.345 26.978 281.669 27.266C281.993 27.542 282.155 27.902 282.155 28.346C282.155 28.814 281.993 29.204 281.669 29.516C281.357 29.816 280.937 29.966 280.409 29.966ZM290.305 31.172C291.073 31.172 291.757 31.328 292.357 31.64C292.969 31.94 293.449 32.408 293.797 33.044C294.145 33.668 294.319 34.472 294.319 35.456V41H291.511V35.888C291.511 35.108 291.337 34.532 290.989 34.16C290.653 33.788 290.173 33.602 289.549 33.602C289.105 33.602 288.703 33.698 288.343 33.89C287.995 34.07 287.719 34.352 287.515 34.736C287.323 35.12 287.227 35.612 287.227 36.212V41H284.419V31.316H287.101V33.998L286.597 33.188C286.945 32.54 287.443 32.042 288.091 31.694C288.739 31.346 289.477 31.172 290.305 31.172ZM296.864 41V31.316H299.672V41H296.864ZM298.268 29.966C297.752 29.966 297.332 29.816 297.008 29.516C296.684 29.216 296.522 28.844 296.522 28.4C296.522 27.956 296.684 27.584 297.008 27.284C297.332 26.984 297.752 26.834 298.268 26.834C298.784 26.834 299.204 26.978 299.528 27.266C299.852 27.542 300.014 27.902 300.014 28.346C300.014 28.814 299.852 29.204 299.528 29.516C299.216 29.816 298.796 29.966 298.268 29.966ZM306.958 41.144C305.914 41.144 304.984 40.934 304.168 40.514C303.352 40.082 302.71 39.488 302.242 38.732C301.786 37.976 301.558 37.118 301.558 36.158C301.558 35.186 301.786 34.328 302.242 33.584C302.71 32.828 303.352 32.24 304.168 31.82C304.984 31.388 305.914 31.172 306.958 31.172C307.978 31.172 308.866 31.388 309.622 31.82C310.378 32.24 310.936 32.846 311.296 33.638L309.118 34.808C308.866 34.352 308.548 34.016 308.164 33.8C307.792 33.584 307.384 33.476 306.94 33.476C306.46 33.476 306.028 33.584 305.644 33.8C305.26 34.016 304.954 34.322 304.726 34.718C304.51 35.114 304.402 35.594 304.402 36.158C304.402 36.722 304.51 37.202 304.726 37.598C304.954 37.994 305.26 38.3 305.644 38.516C306.028 38.732 306.46 38.84 306.94 38.84C307.384 38.84 307.792 38.738 308.164 38.534C308.548 38.318 308.866 37.976 309.118 37.508L311.296 38.696C310.936 39.476 310.378 40.082 309.622 40.514C308.866 40.934 307.978 41.144 306.958 41.144ZM318.853 41V39.11L318.673 38.696V35.312C318.673 34.712 318.487 34.244 318.115 33.908C317.755 33.572 317.197 33.404 316.441 33.404C315.925 33.404 315.415 33.488 314.911 33.656C314.419 33.812 313.999 34.028 313.651 34.304L312.643 32.342C313.171 31.97 313.807 31.682 314.551 31.478C315.295 31.274 316.051 31.172 316.819 31.172C318.295 31.172 319.441 31.52 320.257 32.216C321.073 32.912 321.481 33.998 321.481 35.474V41H318.853ZM315.901 41.144C315.145 41.144 314.497 41.018 313.957 40.766C313.417 40.502 313.003 40.148 312.715 39.704C312.427 39.26 312.283 38.762 312.283 38.21C312.283 37.634 312.421 37.13 312.697 36.698C312.985 36.266 313.435 35.93 314.047 35.69C314.659 35.438 315.457 35.312 316.441 35.312H319.015V36.95H316.747C316.087 36.95 315.631 37.058 315.379 37.274C315.139 37.49 315.019 37.76 315.019 38.084C315.019 38.444 315.157 38.732 315.433 38.948C315.721 39.152 316.111 39.254 316.603 39.254C317.071 39.254 317.491 39.146 317.863 38.93C318.235 38.702 318.505 38.372 318.673 37.94L319.105 39.236C318.901 39.86 318.529 40.334 317.989 40.658C317.449 40.982 316.753 41.144 315.901 41.144ZM324.023 41V27.644H326.831V41H324.023ZM334.732 41V28.4H340.456C341.824 28.4 343.03 28.664 344.074 29.192C345.118 29.708 345.934 30.434 346.522 31.37C347.11 32.306 347.404 33.416 347.404 34.7C347.404 35.972 347.11 37.082 346.522 38.03C345.934 38.966 345.118 39.698 344.074 40.226C343.03 40.742 341.824 41 340.456 41H334.732ZM337.648 38.606H340.312C341.152 38.606 341.878 38.45 342.49 38.138C343.114 37.814 343.594 37.358 343.93 36.77C344.278 36.182 344.452 35.492 344.452 34.7C344.452 33.896 344.278 33.206 343.93 32.63C343.594 32.042 343.114 31.592 342.49 31.28C341.878 30.956 341.152 30.794 340.312 30.794H337.648V38.606ZM355.345 41V39.11L355.165 38.696V35.312C355.165 34.712 354.979 34.244 354.607 33.908C354.247 33.572 353.689 33.404 352.933 33.404C352.417 33.404 351.907 33.488 351.403 33.656C350.911 33.812 350.491 34.028 350.143 34.304L349.135 32.342C349.663 31.97 350.299 31.682 351.043 31.478C351.787 31.274 352.543 31.172 353.311 31.172C354.787 31.172 355.933 31.52 356.749 32.216C357.565 32.912 357.973 33.998 357.973 35.474V41H355.345ZM352.393 41.144C351.637 41.144 350.989 41.018 350.449 40.766C349.909 40.502 349.495 40.148 349.207 39.704C348.919 39.26 348.775 38.762 348.775 38.21C348.775 37.634 348.913 37.13 349.189 36.698C349.477 36.266 349.927 35.93 350.539 35.69C351.151 35.438 351.949 35.312 352.933 35.312H355.507V36.95H353.239C352.579 36.95 352.123 37.058 351.871 37.274C351.631 37.49 351.511 37.76 351.511 38.084C351.511 38.444 351.649 38.732 351.925 38.948C352.213 39.152 352.603 39.254 353.095 39.254C353.563 39.254 353.983 39.146 354.355 38.93C354.727 38.702 354.997 38.372 355.165 37.94L355.597 39.236C355.393 39.86 355.021 40.334 354.481 40.658C353.941 40.982 353.245 41.144 352.393 41.144ZM364.475 41.144C363.335 41.144 362.447 40.856 361.811 40.28C361.175 39.692 360.857 38.822 360.857 37.67V29.174H363.665V37.634C363.665 38.042 363.773 38.36 363.989 38.588C364.205 38.804 364.499 38.912 364.871 38.912C365.315 38.912 365.693 38.792 366.005 38.552L366.761 40.532C366.473 40.736 366.125 40.892 365.717 41C365.321 41.096 364.907 41.144 364.475 41.144ZM359.363 33.692V31.532H366.077V33.692H359.363ZM374.277 41V39.11L374.097 38.696V35.312C374.097 34.712 373.911 34.244 373.539 33.908C373.179 33.572 372.621 33.404 371.865 33.404C371.349 33.404 370.839 33.488 370.335 33.656C369.843 33.812 369.423 34.028 369.075 34.304L368.067 32.342C368.595 31.97 369.231 31.682 369.975 31.478C370.719 31.274 371.475 31.172 372.243 31.172C373.719 31.172 374.865 31.52 375.681 32.216C376.497 32.912 376.905 33.998 376.905 35.474V41H374.277ZM371.325 41.144C370.569 41.144 369.921 41.018 369.381 40.766C368.841 40.502 368.427 40.148 368.139 39.704C367.851 39.26 367.707 38.762 367.707 38.21C367.707 37.634 367.845 37.13 368.121 36.698C368.409 36.266 368.859 35.93 369.471 35.69C370.083 35.438 370.881 35.312 371.865 35.312H374.439V36.95H372.171C371.511 36.95 371.055 37.058 370.803 37.274C370.563 37.49 370.443 37.76 370.443 38.084C370.443 38.444 370.581 38.732 370.857 38.948C371.145 39.152 371.535 39.254 372.027 39.254C372.495 39.254 372.915 39.146 373.287 38.93C373.659 38.702 373.929 38.372 374.097 37.94L374.529 39.236C374.325 39.86 373.953 40.334 373.413 40.658C372.873 40.982 372.177 41.144 371.325 41.144ZM390.772 41.216C389.8 41.216 388.894 41.06 388.054 40.748C387.226 40.424 386.506 39.968 385.894 39.38C385.282 38.792 384.802 38.102 384.454 37.31C384.118 36.518 383.95 35.648 383.95 34.7C383.95 33.752 384.118 32.882 384.454 32.09C384.802 31.298 385.282 30.608 385.894 30.02C386.518 29.432 387.244 28.982 388.072 28.67C388.9 28.346 389.806 28.184 390.79 28.184C391.882 28.184 392.866 28.376 393.742 28.76C394.63 29.132 395.374 29.684 395.974 30.416L394.102 32.144C393.67 31.652 393.19 31.286 392.662 31.046C392.134 30.794 391.558 30.668 390.934 30.668C390.346 30.668 389.806 30.764 389.314 30.956C388.822 31.148 388.396 31.424 388.036 31.784C387.676 32.144 387.394 32.57 387.19 33.062C386.998 33.554 386.902 34.1 386.902 34.7C386.902 35.3 386.998 35.846 387.19 36.338C387.394 36.83 387.676 37.256 388.036 37.616C388.396 37.976 388.822 38.252 389.314 38.444C389.806 38.636 390.346 38.732 390.934 38.732C391.558 38.732 392.134 38.612 392.662 38.372C393.19 38.12 393.67 37.742 394.102 37.238L395.974 38.966C395.374 39.698 394.63 40.256 393.742 40.64C392.866 41.024 391.876 41.216 390.772 41.216ZM402.019 41.144C400.987 41.144 400.069 40.928 399.265 40.496C398.473 40.064 397.843 39.476 397.375 38.732C396.919 37.976 396.691 37.118 396.691 36.158C396.691 35.186 396.919 34.328 397.375 33.584C397.843 32.828 398.473 32.24 399.265 31.82C400.069 31.388 400.987 31.172 402.019 31.172C403.039 31.172 403.951 31.388 404.755 31.82C405.559 32.24 406.189 32.822 406.645 33.566C407.101 34.31 407.329 35.174 407.329 36.158C407.329 37.118 407.101 37.976 406.645 38.732C406.189 39.476 405.559 40.064 404.755 40.496C403.951 40.928 403.039 41.144 402.019 41.144ZM402.019 38.84C402.487 38.84 402.907 38.732 403.279 38.516C403.651 38.3 403.945 37.994 404.161 37.598C404.377 37.19 404.485 36.71 404.485 36.158C404.485 35.594 404.377 35.114 404.161 34.718C403.945 34.322 403.651 34.016 403.279 33.8C402.907 33.584 402.487 33.476 402.019 33.476C401.551 33.476 401.131 33.584 400.759 33.8C400.387 34.016 400.087 34.322 399.859 34.718C399.643 35.114 399.535 35.594 399.535 36.158C399.535 36.71 399.643 37.19 399.859 37.598C400.087 37.994 400.387 38.3 400.759 38.516C401.131 38.732 401.551 38.84 402.019 38.84ZM421.608 31.172C422.376 31.172 423.054 31.328 423.642 31.64C424.242 31.94 424.71 32.408 425.046 33.044C425.394 33.668 425.568 34.472 425.568 35.456V41H422.76V35.888C422.76 35.108 422.598 34.532 422.274 34.16C421.95 33.788 421.494 33.602 420.906 33.602C420.498 33.602 420.132 33.698 419.808 33.89C419.484 34.07 419.232 34.346 419.052 34.718C418.872 35.09 418.782 35.564 418.782 36.14V41H415.974V35.888C415.974 35.108 415.812 34.532 415.488 34.16C415.176 33.788 414.726 33.602 414.138 33.602C413.73 33.602 413.364 33.698 413.04 33.89C412.716 34.07 412.464 34.346 412.284 34.718C412.104 35.09 412.014 35.564 412.014 36.14V41H409.206V31.316H411.888V33.962L411.384 33.188C411.72 32.528 412.194 32.03 412.806 31.694C413.43 31.346 414.138 31.172 414.93 31.172C415.818 31.172 416.592 31.4 417.252 31.856C417.924 32.3 418.368 32.984 418.584 33.908L417.594 33.638C417.918 32.882 418.434 32.282 419.142 31.838C419.862 31.394 420.684 31.172 421.608 31.172ZM440.487 31.172C441.255 31.172 441.933 31.328 442.521 31.64C443.121 31.94 443.589 32.408 443.925 33.044C444.273 33.668 444.447 34.472 444.447 35.456V41H441.639V35.888C441.639 35.108 441.477 34.532 441.153 34.16C440.829 33.788 440.373 33.602 439.785 33.602C439.377 33.602 439.011 33.698 438.687 33.89C438.363 34.07 438.111 34.346 437.931 34.718C437.751 35.09 437.661 35.564 437.661 36.14V41H434.853V35.888C434.853 35.108 434.691 34.532 434.367 34.16C434.055 33.788 433.605 33.602 433.017 33.602C432.609 33.602 432.243 33.698 431.919 33.89C431.595 34.07 431.343 34.346 431.163 34.718C430.983 35.09 430.893 35.564 430.893 36.14V41H428.085V31.316H430.767V33.962L430.263 33.188C430.599 32.528 431.073 32.03 431.685 31.694C432.309 31.346 433.017 31.172 433.809 31.172C434.697 31.172 435.471 31.4 436.131 31.856C436.803 32.3 437.247 32.984 437.463 33.908L436.473 33.638C436.797 32.882 437.313 32.282 438.021 31.838C438.741 31.394 439.563 31.172 440.487 31.172ZM451.642 41.144C450.61 41.144 449.692 40.928 448.888 40.496C448.096 40.064 447.466 39.476 446.998 38.732C446.542 37.976 446.314 37.118 446.314 36.158C446.314 35.186 446.542 34.328 446.998 33.584C447.466 32.828 448.096 32.24 448.888 31.82C449.692 31.388 450.61 31.172 451.642 31.172C452.662 31.172 453.574 31.388 454.378 31.82C455.182 32.24 455.812 32.822 456.268 33.566C456.724 34.31 456.952 35.174 456.952 36.158C456.952 37.118 456.724 37.976 456.268 38.732C455.812 39.476 455.182 40.064 454.378 40.496C453.574 40.928 452.662 41.144 451.642 41.144ZM451.642 38.84C452.11 38.84 452.53 38.732 452.902 38.516C453.274 38.3 453.568 37.994 453.784 37.598C454 37.19 454.108 36.71 454.108 36.158C454.108 35.594 454 35.114 453.784 34.718C453.568 34.322 453.274 34.016 452.902 33.8C452.53 33.584 452.11 33.476 451.642 33.476C451.174 33.476 450.754 33.584 450.382 33.8C450.01 34.016 449.71 34.322 449.482 34.718C449.266 35.114 449.158 35.594 449.158 36.158C449.158 36.71 449.266 37.19 449.482 37.598C449.71 37.994 450.01 38.3 450.382 38.516C450.754 38.732 451.174 38.84 451.642 38.84ZM464.715 31.172C465.483 31.172 466.167 31.328 466.767 31.64C467.379 31.94 467.859 32.408 468.207 33.044C468.555 33.668 468.729 34.472 468.729 35.456V41H465.921V35.888C465.921 35.108 465.747 34.532 465.399 34.16C465.063 33.788 464.583 33.602 463.959 33.602C463.515 33.602 463.113 33.698 462.753 33.89C462.405 34.07 462.129 34.352 461.925 34.736C461.733 35.12 461.637 35.612 461.637 36.212V41H458.829V31.316H461.511V33.998L461.007 33.188C461.355 32.54 461.853 32.042 462.501 31.694C463.149 31.346 463.887 31.172 464.715 31.172ZM474.533 41.144C473.705 41.144 472.907 41.048 472.139 40.856C471.383 40.652 470.783 40.4 470.339 40.1L471.275 38.084C471.719 38.36 472.241 38.588 472.841 38.768C473.453 38.936 474.053 39.02 474.641 39.02C475.289 39.02 475.745 38.942 476.009 38.786C476.285 38.63 476.423 38.414 476.423 38.138C476.423 37.91 476.315 37.742 476.099 37.634C475.895 37.514 475.619 37.424 475.271 37.364C474.923 37.304 474.539 37.244 474.119 37.184C473.711 37.124 473.297 37.046 472.877 36.95C472.457 36.842 472.073 36.686 471.725 36.482C471.377 36.278 471.095 36.002 470.879 35.654C470.675 35.306 470.573 34.856 470.573 34.304C470.573 33.692 470.747 33.152 471.095 32.684C471.455 32.216 471.971 31.85 472.643 31.586C473.315 31.31 474.119 31.172 475.055 31.172C475.715 31.172 476.387 31.244 477.071 31.388C477.755 31.532 478.325 31.742 478.781 32.018L477.845 34.016C477.377 33.74 476.903 33.554 476.423 33.458C475.955 33.35 475.499 33.296 475.055 33.296C474.431 33.296 473.975 33.38 473.687 33.548C473.399 33.716 473.255 33.932 473.255 34.196C473.255 34.436 473.357 34.616 473.561 34.736C473.777 34.856 474.059 34.952 474.407 35.024C474.755 35.096 475.133 35.162 475.541 35.222C475.961 35.27 476.381 35.348 476.801 35.456C477.221 35.564 477.599 35.72 477.935 35.924C478.283 36.116 478.565 36.386 478.781 36.734C478.997 37.07 479.105 37.514 479.105 38.066C479.105 38.666 478.925 39.2 478.565 39.668C478.205 40.124 477.683 40.484 476.999 40.748C476.327 41.012 475.505 41.144 474.533 41.144Z" fill="#606061"/>
</svg>
