<svg width="312" height="40" viewBox="0 0 312 40" fill="none" xmlns="http://www.w3.org/2000/svg">
<path d="M49.9616 18.9946L39.9715 1.00793H3.84235C1.71513 1.00793 0 2.73421 0 4.86142V33.1277C0 35.2549 1.71513 36.9812 3.84235 36.9812H39.9715L49.9616 18.9946Z" fill="#606061"/>
<path d="M48.9593 2.89016C48.2576 1.73189 46.988 1.0191 45.6181 1.0191H42.6333L52.757 19.0057L42.6333 36.9924H45.6181C46.988 36.9924 48.2576 36.2796 48.9593 35.1213L57.947 19.0057L48.9593 2.89016Z" fill="#BA1F40"/>
<path d="M23.9786 10.998H21.3168V26.9911H23.9786V10.998Z" fill="white"/>
<path d="M15.982 10.998V22.7256L8.66488 10.998H5.99194V26.9911H8.66488V15.2636L15.982 26.9911H18.655V10.998H15.982Z" fill="white"/>
<path d="M36.6416 10.998V17.6693H29.3133V10.998H26.6515V26.9911H29.3133V20.331H36.6416V26.9911H39.3034V10.998H36.6416Z" fill="white"/>
<path d="M70.5385 23.5563C69.823 23.5563 69.1561 23.4415 68.5378 23.2118C67.9283 22.9733 67.3983 22.6377 66.9477 22.2048C66.4973 21.772 66.1439 21.2641 65.8878 20.6811C65.6404 20.0981 65.5168 19.4577 65.5168 18.7598C65.5168 18.062 65.6404 17.4216 65.8878 16.8386C66.1439 16.2556 66.4973 15.7477 66.9477 15.3148C67.4071 14.882 67.9415 14.5508 68.551 14.3211C69.1605 14.0826 69.8274 13.9633 70.5518 13.9633C71.3556 13.9633 72.0799 14.1047 72.7248 14.3873C73.3784 14.6612 73.9261 15.0675 74.3678 15.6063L72.9898 16.8783C72.6718 16.5162 72.3184 16.2468 71.9298 16.0701C71.5411 15.8846 71.1171 15.7918 70.6578 15.7918C70.2249 15.7918 69.8274 15.8625 69.4653 16.0038C69.1031 16.1452 68.7895 16.3483 68.5245 16.6133C68.2595 16.8783 68.0519 17.1919 67.9018 17.5541C67.7604 17.9163 67.6898 18.3182 67.6898 18.7598C67.6898 19.2015 67.7604 19.6034 67.9018 19.9656C68.0519 20.3278 68.2595 20.6413 68.5245 20.9063C68.7895 21.1713 69.1031 21.3745 69.4653 21.5158C69.8274 21.6572 70.2249 21.7278 70.6578 21.7278C71.1171 21.7278 71.5411 21.6395 71.9298 21.4628C72.3184 21.2773 72.6718 20.9991 72.9898 20.6281L74.3678 21.9001C73.9261 22.4389 73.3784 22.8497 72.7248 23.1323C72.0799 23.415 71.3512 23.5563 70.5385 23.5563ZM80.0043 16.1628C80.5696 16.1628 81.0731 16.2777 81.5148 16.5073C81.9653 16.7282 82.3186 17.0727 82.5748 17.5408C82.8309 18.0002 82.959 18.592 82.959 19.3163V23.3973H80.892V19.6343C80.892 19.0602 80.7639 18.6362 80.5078 18.3623C80.2604 18.0885 79.9071 17.9516 79.4478 17.9516C79.1209 17.9516 78.825 18.0223 78.56 18.1636C78.3039 18.2961 78.1007 18.5037 77.9505 18.7863C77.8092 19.069 77.7385 19.4312 77.7385 19.8728V23.3973H75.6715V13.5658H77.7385V18.2431L77.2748 17.6468C77.5309 17.1698 77.8975 16.8033 78.3745 16.5471C78.8515 16.2909 79.3948 16.1628 80.0043 16.1628ZM84.8327 23.3973V16.2688H86.8997V23.3973H84.8327ZM85.8662 15.2751C85.4863 15.2751 85.1772 15.1647 84.9387 14.9438C84.7002 14.723 84.5809 14.4492 84.5809 14.1223C84.5809 13.7955 84.7002 13.5217 84.9387 13.3008C85.1772 13.08 85.4863 12.9696 85.8662 12.9696C86.246 12.9696 86.5552 13.0756 86.7937 13.2876C87.0322 13.4908 87.1514 13.7558 87.1514 14.0826C87.1514 14.4271 87.0322 14.7142 86.7937 14.9438C86.564 15.1647 86.2548 15.2751 85.8662 15.2751ZM88.818 23.3973V13.5658H90.885V23.3973H88.818ZM95.8641 23.5033C95.1928 23.5033 94.5877 23.3532 94.0489 23.0528C93.51 22.7437 93.0816 22.3153 92.7636 21.7676C92.4544 21.2199 92.2999 20.5751 92.2999 19.8331C92.2999 19.0823 92.4544 18.433 92.7636 17.8853C93.0816 17.3377 93.51 16.9137 94.0489 16.6133C94.5877 16.313 95.1928 16.1628 95.8641 16.1628C96.4648 16.1628 96.9904 16.2953 97.4409 16.5603C97.8914 16.8253 98.2403 17.2273 98.4876 17.7661C98.7349 18.3049 98.8586 18.9939 98.8586 19.8331C98.8586 20.6634 98.7394 21.3524 98.5009 21.9001C98.2624 22.4389 97.9179 22.8408 97.4674 23.1058C97.0257 23.3708 96.4913 23.5033 95.8641 23.5033ZM96.2219 21.8073C96.5575 21.8073 96.8623 21.7278 97.1361 21.5688C97.4099 21.4098 97.6264 21.1846 97.7854 20.8931C97.9532 20.5928 98.0371 20.2394 98.0371 19.8331C98.0371 19.4179 97.9532 19.0646 97.7854 18.7731C97.6264 18.4816 97.4099 18.2563 97.1361 18.0973C96.8623 17.9383 96.5575 17.8588 96.2219 17.8588C95.8774 17.8588 95.5682 17.9383 95.2944 18.0973C95.0205 18.2563 94.7997 18.4816 94.6319 18.7731C94.4729 19.0646 94.3934 19.4179 94.3934 19.8331C94.3934 20.2394 94.4729 20.5928 94.6319 20.8931C94.7997 21.1846 95.0205 21.4098 95.2944 21.5688C95.5682 21.7278 95.8774 21.8073 96.2219 21.8073ZM98.0901 23.3973V21.9398L98.1299 19.8198L97.9974 17.7131V13.5658H100.064V23.3973H98.0901ZM106.31 16.1628C106.876 16.1628 107.379 16.2777 107.821 16.5073C108.271 16.7282 108.625 17.0727 108.881 17.5408C109.137 18.0002 109.265 18.592 109.265 19.3163V23.3973H107.198V19.6343C107.198 19.0602 107.07 18.6362 106.814 18.3623C106.566 18.0885 106.213 17.9516 105.754 17.9516C105.427 17.9516 105.131 18.0223 104.866 18.1636C104.61 18.2961 104.407 18.5037 104.256 18.7863C104.115 19.069 104.044 19.4312 104.044 19.8728V23.3973H101.977V13.5658H104.044V18.2431L103.581 17.6468C103.837 17.1698 104.203 16.8033 104.68 16.5471C105.157 16.2909 105.701 16.1628 106.31 16.1628ZM114.582 23.5033C113.823 23.5033 113.147 23.3443 112.555 23.0263C111.972 22.7083 111.508 22.2755 111.164 21.7278C110.828 21.1713 110.66 20.5398 110.66 19.8331C110.66 19.1176 110.828 18.486 111.164 17.9383C111.508 17.3818 111.972 16.949 112.555 16.6398C113.147 16.3218 113.823 16.1628 114.582 16.1628C115.333 16.1628 116.004 16.3218 116.596 16.6398C117.188 16.949 117.652 17.3774 117.988 17.9251C118.323 18.4728 118.491 19.1088 118.491 19.8331C118.491 20.5398 118.323 21.1713 117.988 21.7278C117.652 22.2755 117.188 22.7083 116.596 23.0263C116.004 23.3443 115.333 23.5033 114.582 23.5033ZM114.582 21.8073C114.927 21.8073 115.236 21.7278 115.51 21.5688C115.784 21.4098 116 21.1846 116.159 20.8931C116.318 20.5928 116.398 20.2394 116.398 19.8331C116.398 19.4179 116.318 19.0646 116.159 18.7731C116 18.4816 115.784 18.2563 115.51 18.0973C115.236 17.9383 114.927 17.8588 114.582 17.8588C114.238 17.8588 113.929 17.9383 113.655 18.0973C113.381 18.2563 113.16 18.4816 112.992 18.7731C112.833 19.0646 112.754 19.4179 112.754 19.8331C112.754 20.2394 112.833 20.5928 112.992 20.8931C113.16 21.1846 113.381 21.4098 113.655 21.5688C113.929 21.7278 114.238 21.8073 114.582 21.8073ZM123.265 23.5033C122.505 23.5033 121.829 23.3443 121.237 23.0263C120.654 22.7083 120.191 22.2755 119.846 21.7278C119.511 21.1713 119.343 20.5398 119.343 19.8331C119.343 19.1176 119.511 18.486 119.846 17.9383C120.191 17.3818 120.654 16.949 121.237 16.6398C121.829 16.3218 122.505 16.1628 123.265 16.1628C124.016 16.1628 124.687 16.3218 125.279 16.6398C125.871 16.949 126.334 17.3774 126.67 17.9251C127.006 18.4728 127.173 19.1088 127.173 19.8331C127.173 20.5398 127.006 21.1713 126.67 21.7278C126.334 22.2755 125.871 22.7083 125.279 23.0263C124.687 23.3443 124.016 23.5033 123.265 23.5033ZM123.265 21.8073C123.609 21.8073 123.918 21.7278 124.192 21.5688C124.466 21.4098 124.682 21.1846 124.841 20.8931C125 20.5928 125.08 20.2394 125.08 19.8331C125.08 19.4179 125 19.0646 124.841 18.7731C124.682 18.4816 124.466 18.2563 124.192 18.0973C123.918 17.9383 123.609 17.8588 123.265 17.8588C122.92 17.8588 122.611 17.9383 122.337 18.0973C122.063 18.2563 121.843 18.4816 121.675 18.7731C121.516 19.0646 121.436 19.4179 121.436 19.8331C121.436 20.2394 121.516 20.5928 121.675 20.8931C121.843 21.1846 122.063 21.4098 122.337 21.5688C122.611 21.7278 122.92 21.8073 123.265 21.8073ZM131.616 23.5033C130.944 23.5033 130.339 23.3532 129.801 23.0528C129.262 22.7437 128.833 22.3153 128.515 21.7676C128.206 21.2199 128.052 20.5751 128.052 19.8331C128.052 19.0823 128.206 18.433 128.515 17.8853C128.833 17.3377 129.262 16.9137 129.801 16.6133C130.339 16.313 130.944 16.1628 131.616 16.1628C132.216 16.1628 132.742 16.2953 133.193 16.5603C133.643 16.8253 133.992 17.2273 134.239 17.7661C134.487 18.3049 134.61 18.9939 134.61 19.8331C134.61 20.6634 134.491 21.3524 134.253 21.9001C134.014 22.4389 133.67 22.8408 133.219 23.1058C132.777 23.3708 132.243 23.5033 131.616 23.5033ZM131.974 21.8073C132.309 21.8073 132.614 21.7278 132.888 21.5688C133.162 21.4098 133.378 21.1846 133.537 20.8931C133.705 20.5928 133.789 20.2394 133.789 19.8331C133.789 19.4179 133.705 19.0646 133.537 18.7731C133.378 18.4816 133.162 18.2563 132.888 18.0973C132.614 17.9383 132.309 17.8588 131.974 17.8588C131.629 17.8588 131.32 17.9383 131.046 18.0973C130.772 18.2563 130.551 18.4816 130.384 18.7731C130.225 19.0646 130.145 19.4179 130.145 19.8331C130.145 20.2394 130.225 20.5928 130.384 20.8931C130.551 21.1846 130.772 21.4098 131.046 21.5688C131.32 21.7278 131.629 21.8073 131.974 21.8073ZM133.842 23.3973V21.9398L133.882 19.8198L133.749 17.7131V13.5658H135.816V23.3973H133.842ZM146.066 23.5563C145.351 23.5563 144.684 23.4415 144.065 23.2118C143.456 22.9733 142.926 22.6377 142.475 22.2048C142.025 21.772 141.672 21.2641 141.415 20.6811C141.168 20.0981 141.044 19.4577 141.044 18.7598C141.044 18.062 141.168 17.4216 141.415 16.8386C141.672 16.2556 142.025 15.7477 142.475 15.3148C142.935 14.882 143.469 14.5508 144.079 14.3211C144.688 14.0826 145.355 13.9633 146.079 13.9633C146.883 13.9633 147.608 14.1047 148.252 14.3873C148.906 14.6612 149.454 15.0675 149.895 15.6063L148.517 16.8783C148.199 16.5162 147.846 16.2468 147.457 16.0701C147.069 15.8846 146.645 15.7918 146.185 15.7918C145.753 15.7918 145.355 15.8625 144.993 16.0038C144.631 16.1452 144.317 16.3483 144.052 16.6133C143.787 16.8783 143.58 17.1919 143.429 17.5541C143.288 17.9163 143.217 18.3182 143.217 18.7598C143.217 19.2015 143.288 19.6034 143.429 19.9656C143.58 20.3278 143.787 20.6413 144.052 20.9063C144.317 21.1713 144.631 21.3745 144.993 21.5158C145.355 21.6572 145.753 21.7278 146.185 21.7278C146.645 21.7278 147.069 21.6395 147.457 21.4628C147.846 21.2773 148.199 20.9991 148.517 20.6281L149.895 21.9001C149.454 22.4389 148.906 22.8497 148.252 23.1323C147.608 23.415 146.879 23.5563 146.066 23.5563ZM155.533 23.3973V22.0061L155.4 21.7013V19.2103C155.4 18.7687 155.263 18.4242 154.99 18.1768C154.725 17.9295 154.314 17.8058 153.757 17.8058C153.377 17.8058 153.002 17.8677 152.631 17.9913C152.269 18.1062 151.96 18.2652 151.704 18.4683L150.962 17.0241C151.35 16.7503 151.818 16.5383 152.366 16.3881C152.914 16.2379 153.47 16.1628 154.036 16.1628C155.122 16.1628 155.966 16.419 156.566 16.9313C157.167 17.4437 157.467 18.2431 157.467 19.3296V23.3973H155.533ZM153.36 23.5033C152.803 23.5033 152.326 23.4106 151.929 23.2251C151.531 23.0308 151.227 22.7702 151.015 22.4433C150.803 22.1165 150.697 21.7499 150.697 21.3436C150.697 20.9196 150.798 20.5486 151.001 20.2306C151.213 19.9126 151.545 19.6653 151.995 19.4886C152.446 19.3031 153.033 19.2103 153.757 19.2103H155.652V20.4161H153.983C153.497 20.4161 153.161 20.4956 152.976 20.6546C152.799 20.8136 152.711 21.0123 152.711 21.2508C152.711 21.5158 152.812 21.7278 153.015 21.8868C153.227 22.037 153.514 22.1121 153.877 22.1121C154.221 22.1121 154.53 22.0326 154.804 21.8736C155.078 21.7058 155.277 21.4628 155.4 21.1448L155.718 22.0988C155.568 22.5582 155.294 22.9071 154.897 23.1456C154.499 23.3841 153.987 23.5033 153.36 23.5033ZM163.671 16.1628C164.236 16.1628 164.74 16.2777 165.181 16.5073C165.632 16.7282 165.985 17.0727 166.241 17.5408C166.497 18.0002 166.626 18.592 166.626 19.3163V23.3973H164.559V19.6343C164.559 19.0602 164.43 18.6362 164.174 18.3623C163.927 18.0885 163.574 17.9516 163.114 17.9516C162.787 17.9516 162.492 18.0223 162.227 18.1636C161.97 18.2961 161.767 18.5037 161.617 18.7863C161.476 19.069 161.405 19.4312 161.405 19.8728V23.3973H159.338V16.2688H161.312V18.2431L160.941 17.6468C161.197 17.1698 161.564 16.8033 162.041 16.5471C162.518 16.2909 163.061 16.1628 163.671 16.1628ZM171.996 23.5033C171.227 23.5033 170.543 23.3488 169.942 23.0396C169.342 22.7216 168.869 22.2843 168.524 21.7278C168.189 21.1713 168.021 20.5398 168.021 19.8331C168.021 19.1176 168.189 18.486 168.524 17.9383C168.869 17.3818 169.342 16.949 169.942 16.6398C170.543 16.3218 171.227 16.1628 171.996 16.1628C172.747 16.1628 173.4 16.3218 173.957 16.6398C174.513 16.949 174.924 17.3951 175.189 17.9781L173.586 18.8393C173.4 18.5037 173.166 18.2563 172.884 18.0973C172.61 17.9383 172.31 17.8588 171.983 17.8588C171.629 17.8588 171.311 17.9383 171.029 18.0973C170.746 18.2563 170.521 18.4816 170.353 18.7731C170.194 19.0646 170.114 19.4179 170.114 19.8331C170.114 20.2483 170.194 20.6016 170.353 20.8931C170.521 21.1846 170.746 21.4098 171.029 21.5688C171.311 21.7278 171.629 21.8073 171.983 21.8073C172.31 21.8073 172.61 21.7323 172.884 21.5821C173.166 21.4231 173.4 21.1713 173.586 20.8268L175.189 21.7013C174.924 22.2755 174.513 22.7216 173.957 23.0396C173.4 23.3488 172.747 23.5033 171.996 23.5033ZM179.826 23.5033C179.014 23.5033 178.298 23.3443 177.68 23.0263C177.07 22.7083 176.598 22.2755 176.262 21.7278C175.927 21.1713 175.759 20.5398 175.759 19.8331C175.759 19.1176 175.922 18.486 176.249 17.9383C176.585 17.3818 177.04 16.949 177.614 16.6398C178.188 16.3218 178.837 16.1628 179.561 16.1628C180.259 16.1628 180.886 16.313 181.443 16.6133C182.008 16.9048 182.454 17.3288 182.781 17.8853C183.108 18.433 183.271 19.0911 183.271 19.8596C183.271 19.9391 183.267 20.0318 183.258 20.1378C183.249 20.235 183.241 20.3278 183.232 20.4161H177.441V19.2103H182.145L181.35 19.5681C181.35 19.1971 181.275 18.8747 181.125 18.6008C180.975 18.327 180.767 18.115 180.502 17.9648C180.237 17.8058 179.928 17.7263 179.575 17.7263C179.221 17.7263 178.908 17.8058 178.634 17.9648C178.369 18.115 178.161 18.3314 178.011 18.6141C177.861 18.8879 177.786 19.2148 177.786 19.5946V19.9126C177.786 20.3013 177.87 20.6458 178.038 20.9461C178.214 21.2376 178.457 21.4628 178.766 21.6218C179.084 21.772 179.455 21.8471 179.879 21.8471C180.259 21.8471 180.591 21.7897 180.873 21.6748C181.165 21.56 181.43 21.3878 181.668 21.1581L182.768 22.3506C182.441 22.7216 182.03 23.0087 181.536 23.2118C181.041 23.4062 180.471 23.5033 179.826 23.5033ZM184.648 23.3973V16.2688H186.622V18.2828L186.344 17.6998C186.556 17.1963 186.896 16.8165 187.364 16.5603C187.832 16.2953 188.402 16.1628 189.073 16.1628V18.0708C188.985 18.062 188.905 18.0576 188.835 18.0576C188.764 18.0488 188.689 18.0443 188.609 18.0443C188.044 18.0443 187.585 18.2078 187.231 18.5346C186.887 18.8526 186.715 19.3517 186.715 20.0318V23.3973H184.648ZM198.691 23.5563C197.975 23.5563 197.308 23.4415 196.69 23.2118C196.081 22.9733 195.551 22.6377 195.1 22.2048C194.65 21.772 194.296 21.2641 194.04 20.6811C193.793 20.0981 193.669 19.4577 193.669 18.7598C193.669 18.062 193.793 17.4216 194.04 16.8386C194.296 16.2556 194.65 15.7477 195.1 15.3148C195.559 14.882 196.094 14.5508 196.703 14.3211C197.313 14.0826 197.98 13.9633 198.704 13.9633C199.508 13.9633 200.232 14.1047 200.877 14.3873C201.531 14.6612 202.078 15.0675 202.52 15.6063L201.142 16.8783C200.824 16.5162 200.471 16.2468 200.082 16.0701C199.693 15.8846 199.269 15.7918 198.81 15.7918C198.377 15.7918 197.98 15.8625 197.618 16.0038C197.255 16.1452 196.942 16.3483 196.677 16.6133C196.412 16.8783 196.204 17.1919 196.054 17.5541C195.913 17.9163 195.842 18.3182 195.842 18.7598C195.842 19.2015 195.913 19.6034 196.054 19.9656C196.204 20.3278 196.412 20.6413 196.677 20.9063C196.942 21.1713 197.255 21.3745 197.618 21.5158C197.98 21.6572 198.377 21.7278 198.81 21.7278C199.269 21.7278 199.693 21.6395 200.082 21.4628C200.471 21.2773 200.824 20.9991 201.142 20.6281L202.52 21.9001C202.078 22.4389 201.531 22.8497 200.877 23.1323C200.232 23.415 199.504 23.5563 198.691 23.5563ZM203.824 23.3973V13.5658H205.891V23.3973H203.824ZM207.809 23.3973V16.2688H209.876V23.3973H207.809ZM208.843 15.2751C208.463 15.2751 208.154 15.1647 207.915 14.9438C207.677 14.723 207.557 14.4492 207.557 14.1223C207.557 13.7955 207.677 13.5217 207.915 13.3008C208.154 13.08 208.463 12.9696 208.843 12.9696C209.223 12.9696 209.532 13.0756 209.77 13.2876C210.009 13.4908 210.128 13.7558 210.128 14.0826C210.128 14.4271 210.009 14.7142 209.77 14.9438C209.541 15.1647 209.231 15.2751 208.843 15.2751ZM216.127 16.1628C216.693 16.1628 217.196 16.2777 217.638 16.5073C218.088 16.7282 218.442 17.0727 218.698 17.5408C218.954 18.0002 219.082 18.592 219.082 19.3163V23.3973H217.015V19.6343C217.015 19.0602 216.887 18.6362 216.631 18.3623C216.383 18.0885 216.03 17.9516 215.571 17.9516C215.244 17.9516 214.948 18.0223 214.683 18.1636C214.427 18.2961 214.224 18.5037 214.074 18.7863C213.932 19.069 213.862 19.4312 213.862 19.8728V23.3973H211.795V16.2688H213.769V18.2431L213.398 17.6468C213.654 17.1698 214.021 16.8033 214.498 16.5471C214.975 16.2909 215.518 16.1628 216.127 16.1628ZM220.956 23.3973V16.2688H223.023V23.3973H220.956ZM221.989 15.2751C221.609 15.2751 221.3 15.1647 221.062 14.9438C220.823 14.723 220.704 14.4492 220.704 14.1223C220.704 13.7955 220.823 13.5217 221.062 13.3008C221.3 13.08 221.609 12.9696 221.989 12.9696C222.369 12.9696 222.678 13.0756 222.917 13.2876C223.155 13.4908 223.274 13.7558 223.274 14.0826C223.274 14.4271 223.155 14.7142 222.917 14.9438C222.687 15.1647 222.378 15.2751 221.989 15.2751ZM228.386 23.5033C227.618 23.5033 226.933 23.3488 226.332 23.0396C225.732 22.7216 225.259 22.2843 224.915 21.7278C224.579 21.1713 224.411 20.5398 224.411 19.8331C224.411 19.1176 224.579 18.486 224.915 17.9383C225.259 17.3818 225.732 16.949 226.332 16.6398C226.933 16.3218 227.618 16.1628 228.386 16.1628C229.137 16.1628 229.791 16.3218 230.347 16.6398C230.904 16.949 231.314 17.3951 231.579 17.9781L229.976 18.8393C229.791 18.5037 229.556 18.2563 229.274 18.0973C229 17.9383 228.7 17.8588 228.373 17.8588C228.019 17.8588 227.701 17.9383 227.419 18.0973C227.136 18.2563 226.911 18.4816 226.743 18.7731C226.584 19.0646 226.505 19.4179 226.505 19.8331C226.505 20.2483 226.584 20.6016 226.743 20.8931C226.911 21.1846 227.136 21.4098 227.419 21.5688C227.701 21.7278 228.019 21.8073 228.373 21.8073C228.7 21.8073 229 21.7323 229.274 21.5821C229.556 21.4231 229.791 21.1713 229.976 20.8268L231.579 21.7013C231.314 22.2755 230.904 22.7216 230.347 23.0396C229.791 23.3488 229.137 23.5033 228.386 23.5033ZM237.142 23.3973V22.0061L237.009 21.7013V19.2103C237.009 18.7687 236.873 18.4242 236.599 18.1768C236.334 17.9295 235.923 17.8058 235.366 17.8058C234.987 17.8058 234.611 17.8677 234.24 17.9913C233.878 18.1062 233.569 18.2652 233.313 18.4683L232.571 17.0241C232.959 16.7503 233.428 16.5383 233.975 16.3881C234.523 16.2379 235.079 16.1628 235.645 16.1628C236.731 16.1628 237.575 16.419 238.175 16.9313C238.776 17.4437 239.076 18.2431 239.076 19.3296V23.3973H237.142ZM234.969 23.5033C234.412 23.5033 233.935 23.4106 233.538 23.2251C233.14 23.0308 232.836 22.7702 232.624 22.4433C232.412 22.1165 232.306 21.7499 232.306 21.3436C232.306 20.9196 232.407 20.5486 232.61 20.2306C232.822 19.9126 233.154 19.6653 233.604 19.4886C234.055 19.3031 234.642 19.2103 235.366 19.2103H237.261V20.4161H235.592C235.106 20.4161 234.77 20.4956 234.585 20.6546C234.408 20.8136 234.32 21.0123 234.32 21.2508C234.32 21.5158 234.421 21.7278 234.624 21.8868C234.836 22.037 235.124 22.1121 235.486 22.1121C235.83 22.1121 236.139 22.0326 236.413 21.8736C236.687 21.7058 236.886 21.4628 237.009 21.1448L237.327 22.0988C237.177 22.5582 236.903 22.9071 236.506 23.1456C236.108 23.3841 235.596 23.5033 234.969 23.5033ZM240.947 23.3973V13.5658H243.014V23.3973H240.947ZM248.831 23.3973V14.1223H253.044C254.051 14.1223 254.939 14.3167 255.707 14.7053C256.476 15.0852 257.077 15.6196 257.509 16.3086C257.942 16.9976 258.159 17.8147 258.159 18.7598C258.159 19.6962 257.942 20.5133 257.509 21.2111C257.077 21.9001 256.476 22.4389 255.707 22.8276C254.939 23.2074 254.051 23.3973 253.044 23.3973H248.831ZM250.977 21.6351H252.938C253.557 21.6351 254.091 21.5203 254.541 21.2906C255.001 21.0521 255.354 20.7164 255.601 20.2836C255.858 19.8508 255.986 19.3428 255.986 18.7598C255.986 18.168 255.858 17.6601 255.601 17.2361C255.354 16.8033 255.001 16.472 254.541 16.2423C254.091 16.0038 253.557 15.8846 252.938 15.8846H250.977V21.6351ZM264.004 23.3973V22.0061L263.872 21.7013V19.2103C263.872 18.7687 263.735 18.4242 263.461 18.1768C263.196 17.9295 262.785 17.8058 262.229 17.8058C261.849 17.8058 261.473 17.8677 261.102 17.9913C260.74 18.1062 260.431 18.2652 260.175 18.4683L259.433 17.0241C259.822 16.7503 260.29 16.5383 260.837 16.3881C261.385 16.2379 261.942 16.1628 262.507 16.1628C263.593 16.1628 264.437 16.419 265.038 16.9313C265.638 17.4437 265.939 18.2431 265.939 19.3296V23.3973H264.004ZM261.831 23.5033C261.275 23.5033 260.798 23.4106 260.4 23.2251C260.003 23.0308 259.698 22.7702 259.486 22.4433C259.274 22.1165 259.168 21.7499 259.168 21.3436C259.168 20.9196 259.27 20.5486 259.473 20.2306C259.685 19.9126 260.016 19.6653 260.466 19.4886C260.917 19.3031 261.504 19.2103 262.229 19.2103H264.123V20.4161H262.454C261.968 20.4161 261.632 20.4956 261.447 20.6546C261.27 20.8136 261.182 21.0123 261.182 21.2508C261.182 21.5158 261.284 21.7278 261.487 21.8868C261.699 22.037 261.986 22.1121 262.348 22.1121C262.692 22.1121 263.002 22.0326 263.275 21.8736C263.549 21.7058 263.748 21.4628 263.872 21.1448L264.19 22.0988C264.04 22.5582 263.766 22.9071 263.368 23.1456C262.971 23.3841 262.458 23.5033 261.831 23.5033ZM270.724 23.5033C269.885 23.5033 269.232 23.2913 268.763 22.8673C268.295 22.4345 268.061 21.7941 268.061 20.9461V14.6921H270.128V20.9196C270.128 21.2199 270.208 21.454 270.367 21.6218C270.526 21.7808 270.742 21.8603 271.016 21.8603C271.343 21.8603 271.621 21.772 271.851 21.5953L272.407 23.0528C272.195 23.203 271.939 23.3178 271.639 23.3973C271.347 23.468 271.042 23.5033 270.724 23.5033ZM266.961 18.0178V16.4278H271.904V18.0178H266.961ZM277.94 23.3973V22.0061L277.808 21.7013V19.2103C277.808 18.7687 277.671 18.4242 277.397 18.1768C277.132 17.9295 276.721 17.8058 276.165 17.8058C275.785 17.8058 275.409 17.8677 275.038 17.9913C274.676 18.1062 274.367 18.2652 274.111 18.4683L273.369 17.0241C273.757 16.7503 274.226 16.5383 274.773 16.3881C275.321 16.2379 275.877 16.1628 276.443 16.1628C277.529 16.1628 278.373 16.419 278.974 16.9313C279.574 17.4437 279.875 18.2431 279.875 19.3296V23.3973H277.94ZM275.767 23.5033C275.211 23.5033 274.734 23.4106 274.336 23.2251C273.939 23.0308 273.634 22.7702 273.422 22.4433C273.21 22.1165 273.104 21.7499 273.104 21.3436C273.104 20.9196 273.205 20.5486 273.409 20.2306C273.621 19.9126 273.952 19.6653 274.402 19.4886C274.853 19.3031 275.44 19.2103 276.165 19.2103H278.059V20.4161H276.39C275.904 20.4161 275.568 20.4956 275.383 20.6546C275.206 20.8136 275.118 21.0123 275.118 21.2508C275.118 21.5158 275.219 21.7278 275.423 21.8868C275.635 22.037 275.922 22.1121 276.284 22.1121C276.628 22.1121 276.937 22.0326 277.211 21.8736C277.485 21.7058 277.684 21.4628 277.808 21.1448L278.126 22.0988C277.975 22.5582 277.702 22.9071 277.304 23.1456C276.907 23.3841 276.394 23.5033 275.767 23.5033ZM70.5385 39.5563C69.823 39.5563 69.1561 39.4415 68.5378 39.2118C67.9283 38.9733 67.3983 38.6377 66.9477 38.2048C66.4973 37.772 66.1439 37.2641 65.8878 36.6811C65.6404 36.0981 65.5168 35.4577 65.5168 34.7598C65.5168 34.062 65.6404 33.4216 65.8878 32.8386C66.1439 32.2556 66.4973 31.7477 66.9477 31.3148C67.4071 30.882 67.9415 30.5508 68.551 30.3211C69.1605 30.0826 69.8274 29.9633 70.5518 29.9633C71.3556 29.9633 72.0799 30.1047 72.7248 30.3873C73.3784 30.6612 73.9261 31.0675 74.3678 31.6063L72.9898 32.8783C72.6718 32.5162 72.3184 32.2468 71.9298 32.0701C71.5411 31.8846 71.1171 31.7918 70.6578 31.7918C70.2249 31.7918 69.8274 31.8625 69.4653 32.0038C69.1031 32.1452 68.7895 32.3483 68.5245 32.6133C68.2595 32.8783 68.0519 33.1919 67.9018 33.5541C67.7604 33.9163 67.6898 34.3182 67.6898 34.7598C67.6898 35.2015 67.7604 35.6034 67.9018 35.9656C68.0519 36.3278 68.2595 36.6413 68.5245 36.9063C68.7895 37.1713 69.1031 37.3745 69.4653 37.5158C69.8274 37.6572 70.2249 37.7278 70.6578 37.7278C71.1171 37.7278 71.5411 37.6395 71.9298 37.4628C72.3184 37.2773 72.6718 36.9991 72.9898 36.6281L74.3678 37.9001C73.9261 38.4389 73.3784 38.8497 72.7248 39.1323C72.0799 39.415 71.3512 39.5563 70.5385 39.5563ZM78.8177 39.5033C78.058 39.5033 77.3823 39.3443 76.7904 39.0263C76.2074 38.7083 75.7437 38.2755 75.3992 37.7278C75.0635 37.1713 74.8957 36.5398 74.8957 35.8331C74.8957 35.1176 75.0635 34.486 75.3992 33.9383C75.7437 33.3818 76.2074 32.949 76.7904 32.6398C77.3823 32.3218 78.058 32.1628 78.8177 32.1628C79.5685 32.1628 80.2398 32.3218 80.8317 32.6398C81.4235 32.949 81.8873 33.3774 82.2229 33.9251C82.5586 34.4728 82.7264 35.1088 82.7264 35.8331C82.7264 36.5398 82.5586 37.1713 82.2229 37.7278C81.8873 38.2755 81.4235 38.7083 80.8317 39.0263C80.2398 39.3443 79.5685 39.5033 78.8177 39.5033ZM78.8177 37.8073C79.1622 37.8073 79.4713 37.7278 79.7452 37.5688C80.019 37.4098 80.2354 37.1846 80.3944 36.8931C80.5534 36.5928 80.6329 36.2394 80.6329 35.8331C80.6329 35.4179 80.5534 35.0646 80.3944 34.7731C80.2354 34.4816 80.019 34.2563 79.7452 34.0973C79.4713 33.9383 79.1622 33.8588 78.8177 33.8588C78.4732 33.8588 78.164 33.9383 77.8902 34.0973C77.6163 34.2563 77.3955 34.4816 77.2277 34.7731C77.0687 35.0646 76.9892 35.4179 76.9892 35.8331C76.9892 36.2394 77.0687 36.5928 77.2277 36.8931C77.3955 37.1846 77.6163 37.4098 77.8902 37.5688C78.164 37.7278 78.4732 37.8073 78.8177 37.8073ZM93.2373 32.1628C93.8026 32.1628 94.3017 32.2777 94.7346 32.5073C95.1762 32.7282 95.5207 33.0727 95.7681 33.5408C96.0242 34.0002 96.1523 34.592 96.1523 35.3163V39.3973H94.0853V35.6343C94.0853 35.0602 93.9661 34.6362 93.7276 34.3623C93.4891 34.0885 93.1534 33.9516 92.7206 33.9516C92.4202 33.9516 92.1508 34.0223 91.9123 34.1636C91.6738 34.2961 91.4883 34.4993 91.3558 34.7731C91.2233 35.0469 91.1571 35.3958 91.1571 35.8198V39.3973H89.0901V35.6343C89.0901 35.0602 88.9708 34.6362 88.7323 34.3623C88.5026 34.0885 88.1714 33.9516 87.7386 33.9516C87.4382 33.9516 87.1688 34.0223 86.9303 34.1636C86.6918 34.2961 86.5063 34.4993 86.3738 34.7731C86.2413 35.0469 86.1751 35.3958 86.1751 35.8198V39.3973H84.1081V32.2688H86.0823V34.2166L85.7113 33.6468C85.9586 33.161 86.3076 32.7944 86.7581 32.5471C87.2174 32.2909 87.7386 32.1628 88.3216 32.1628C88.9752 32.1628 89.545 32.3307 90.0308 32.6663C90.5255 32.9932 90.8523 33.4967 91.0113 34.1768L90.2826 33.9781C90.5211 33.4216 90.9009 32.9799 91.4221 32.6531C91.9521 32.3263 92.5571 32.1628 93.2373 32.1628ZM107.134 32.1628C107.7 32.1628 108.199 32.2777 108.632 32.5073C109.073 32.7282 109.418 33.0727 109.665 33.5408C109.921 34.0002 110.049 34.592 110.049 35.3163V39.3973H107.982V35.6343C107.982 35.0602 107.863 34.6362 107.625 34.3623C107.386 34.0885 107.05 33.9516 106.618 33.9516C106.317 33.9516 106.048 34.0223 105.809 34.1636C105.571 34.2961 105.385 34.4993 105.253 34.7731C105.12 35.0469 105.054 35.3958 105.054 35.8198V39.3973H102.987V35.6343C102.987 35.0602 102.868 34.6362 102.629 34.3623C102.4 34.0885 102.068 33.9516 101.636 33.9516C101.335 33.9516 101.066 34.0223 100.827 34.1636C100.589 34.2961 100.403 34.4993 100.271 34.7731C100.138 35.0469 100.072 35.3958 100.072 35.8198V39.3973H98.005V32.2688H99.9793V34.2166L99.6083 33.6468C99.8556 33.161 100.205 32.7944 100.655 32.5471C101.114 32.2909 101.636 32.1628 102.219 32.1628C102.872 32.1628 103.442 32.3307 103.928 32.6663C104.422 32.9932 104.749 33.4967 104.908 34.1768L104.18 33.9781C104.418 33.4216 104.798 32.9799 105.319 32.6531C105.849 32.3263 106.454 32.1628 107.134 32.1628ZM115.346 39.5033C114.586 39.5033 113.91 39.3443 113.319 39.0263C112.736 38.7083 112.272 38.2755 111.927 37.7278C111.592 37.1713 111.424 36.5398 111.424 35.8331C111.424 35.1176 111.592 34.486 111.927 33.9383C112.272 33.3818 112.736 32.949 113.319 32.6398C113.91 32.3218 114.586 32.1628 115.346 32.1628C116.097 32.1628 116.768 32.3218 117.36 32.6398C117.952 32.949 118.415 33.3774 118.751 33.9251C119.087 34.4728 119.255 35.1088 119.255 35.8331C119.255 36.5398 119.087 37.1713 118.751 37.7278C118.415 38.2755 117.952 38.7083 117.36 39.0263C116.768 39.3443 116.097 39.5033 115.346 39.5033ZM115.346 37.8073C115.69 37.8073 115.999 37.7278 116.273 37.5688C116.547 37.4098 116.764 37.1846 116.923 36.8931C117.082 36.5928 117.161 36.2394 117.161 35.8331C117.161 35.4179 117.082 35.0646 116.923 34.7731C116.764 34.4816 116.547 34.2563 116.273 34.0973C115.999 33.9383 115.69 33.8588 115.346 33.8588C115.001 33.8588 114.692 33.9383 114.418 34.0973C114.144 34.2563 113.924 34.4816 113.756 34.7731C113.597 35.0646 113.517 35.4179 113.517 35.8331C113.517 36.2394 113.597 36.5928 113.756 36.8931C113.924 37.1846 114.144 37.4098 114.418 37.5688C114.692 37.7278 115.001 37.8073 115.346 37.8073ZM124.969 32.1628C125.534 32.1628 126.038 32.2777 126.479 32.5073C126.93 32.7282 127.283 33.0727 127.539 33.5408C127.796 34.0002 127.924 34.592 127.924 35.3163V39.3973H125.857V35.6343C125.857 35.0602 125.729 34.6362 125.472 34.3623C125.225 34.0885 124.872 33.9516 124.412 33.9516C124.086 33.9516 123.79 34.0223 123.525 34.1636C123.268 34.2961 123.065 34.5037 122.915 34.7863C122.774 35.069 122.703 35.4312 122.703 35.8728V39.3973H120.636V32.2688H122.61V34.2431L122.239 33.6468C122.496 33.1698 122.862 32.8033 123.339 32.5471C123.816 32.2909 124.359 32.1628 124.969 32.1628ZM132.196 39.5033C131.586 39.5033 130.999 39.4327 130.433 39.2913C129.877 39.1412 129.435 38.9557 129.108 38.7348L129.797 37.2508C130.124 37.454 130.508 37.6218 130.95 37.7543C131.401 37.878 131.842 37.9398 132.275 37.9398C132.752 37.9398 133.088 37.8824 133.282 37.7676C133.485 37.6528 133.587 37.4938 133.587 37.2906C133.587 37.1228 133.507 36.9991 133.348 36.9196C133.198 36.8313 132.995 36.765 132.739 36.7208C132.483 36.6767 132.2 36.6325 131.891 36.5883C131.59 36.5442 131.286 36.4868 130.977 36.4161C130.667 36.3366 130.385 36.2218 130.129 36.0716C129.872 35.9214 129.665 35.7183 129.506 35.4621C129.356 35.2059 129.281 34.8747 129.281 34.4683C129.281 34.0178 129.409 33.6203 129.665 33.2758C129.93 32.9313 130.31 32.6619 130.804 32.4676C131.299 32.2644 131.891 32.1628 132.58 32.1628C133.066 32.1628 133.56 32.2158 134.064 32.3218C134.567 32.4278 134.987 32.5824 135.323 32.7856L134.634 34.2563C134.289 34.0532 133.94 33.9163 133.587 33.8456C133.242 33.7661 132.907 33.7263 132.58 33.7263C132.12 33.7263 131.785 33.7882 131.573 33.9118C131.361 34.0355 131.255 34.1945 131.255 34.3888C131.255 34.5655 131.33 34.698 131.48 34.7863C131.639 34.8747 131.847 34.9453 132.103 34.9983C132.359 35.0513 132.637 35.0999 132.938 35.1441C133.247 35.1794 133.556 35.2368 133.865 35.3163C134.174 35.3958 134.452 35.5107 134.7 35.6608C134.956 35.8022 135.164 36.0009 135.323 36.2571C135.482 36.5044 135.561 36.8313 135.561 37.2376C135.561 37.6793 135.429 38.0723 135.164 38.4168C134.899 38.7525 134.514 39.0175 134.011 39.2118C133.516 39.4062 132.911 39.5033 132.196 39.5033Z" fill="#606061"/>
<path d="M71.728 0.195312H73.6314V8.68668H71.728L67.6661 3.36125V8.68668H65.7627V0.195312H67.5484L71.728 5.65754V0.195312Z" fill="#BB0E3D"/>
<path d="M81.805 8.68668L81.0103 6.84965H77.4389L76.6442 8.68668H74.623L78.3121 0.195312H80.1567L83.8457 8.68668H81.8246H81.805ZM79.2344 2.71634L78.165 5.17874H80.3038L79.2442 2.71634H79.2344Z" fill="#BB0E3D"/>
<path d="M87.8091 1.83691V8.68668H85.9057V1.83691H83.4921V0.195312H90.2227V1.83691H87.8091Z" fill="#BB0E3D"/>
<path d="M91.6155 0.195312H93.5189V8.68668H91.6155V0.195312Z" fill="#BB0E3D"/>
<path d="M102.791 7.51422C101.928 8.35456 100.868 8.77474 99.6022 8.77474C98.3365 8.77474 97.2769 8.35456 96.4135 7.51422C95.5501 6.67388 95.1184 5.62834 95.1184 4.38737C95.1184 3.1464 95.5501 2.10086 96.4135 1.26051C97.2769 0.420171 98.3365 0 99.6022 0C100.868 0 101.928 0.420171 102.791 1.26051C103.654 2.10086 104.086 3.1464 104.086 4.38737C104.086 5.62834 103.654 6.67388 102.791 7.51422ZM102.143 4.38737C102.143 3.63497 101.898 2.98028 101.408 2.45263C100.917 1.9152 100.318 1.65137 99.612 1.65137C98.9056 1.65137 98.2973 1.9152 97.8165 2.45263C97.3358 2.99006 97.0807 3.63497 97.0807 4.38737C97.0807 5.13977 97.326 5.78468 97.8165 6.32211C98.3071 6.84977 98.9056 7.11359 99.612 7.11359C100.318 7.11359 100.927 6.84977 101.408 6.32211C101.898 5.79445 102.143 5.14954 102.143 4.38737Z" fill="#BB0E3D"/>
<path d="M111.661 0.195312H113.564V8.68668H111.661L107.599 3.36125V8.68668H105.695V0.195312H107.481L111.661 5.65754V0.195312Z" fill="#BB0E3D"/>
<path d="M121.738 8.68668L120.943 6.84965H117.372L116.577 8.68668H114.556L118.245 0.195312H120.089L123.778 8.68668H121.757H121.738ZM119.167 2.71634L118.098 5.17874H120.236L119.177 2.71634H119.167Z" fill="#BB0E3D"/>
<path d="M124.749 8.68668V0.195312H126.652V6.99622H130.292V8.68668H124.749Z" fill="#BB0E3D"/>
<path d="M138.808 7.01612C139.74 7.01612 140.505 6.6448 141.104 5.91195L142.321 7.16269C141.349 8.24732 140.211 8.79452 138.896 8.79452C137.582 8.79452 136.502 8.38412 135.649 7.55355C134.795 6.72298 134.373 5.68721 134.373 4.42669C134.373 3.16618 134.805 2.12064 135.668 1.27052C136.532 0.430181 137.591 0.0100098 138.847 0.0100098C140.25 0.0100098 141.418 0.537667 142.36 1.60275L141.173 2.94144C140.574 2.19881 139.819 1.82749 138.926 1.82749C138.21 1.82749 137.601 2.06201 137.091 2.52126C136.581 2.99029 136.326 3.61566 136.326 4.40715C136.326 5.19863 136.561 5.83378 137.042 6.31258C137.523 6.79138 138.102 7.02589 138.788 7.02589L138.808 7.01612Z" fill="#BB0E3D"/>
<path d="M149.836 8.68668L149.042 6.84965H145.47L144.676 8.68668H142.654L146.344 0.195312H148.188L151.877 8.68668H149.856H149.836ZM147.266 2.71634L146.196 5.17874H148.335L147.276 2.71634H147.266Z" fill="#BB0E3D"/>
<path d="M158.823 0.195312H160.726V8.68668H158.823L154.761 3.36125V8.68668H152.857V0.195312H154.643L158.823 5.65754V0.195312Z" fill="#BB0E3D"/>
<path d="M166.732 7.01612C167.664 7.01612 168.429 6.6448 169.027 5.91195L170.244 7.16269C169.273 8.24732 168.135 8.79452 166.82 8.79452C165.505 8.79452 164.426 8.38412 163.572 7.55355C162.719 6.72298 162.297 5.68721 162.297 4.42669C162.297 3.16618 162.729 2.12064 163.592 1.27052C164.455 0.430181 165.515 0.0100098 166.771 0.0100098C168.174 0.0100098 169.341 0.537667 170.283 1.60275L169.096 2.94144C168.498 2.19881 167.742 1.82749 166.849 1.82749C166.133 1.82749 165.525 2.06201 165.015 2.52126C164.504 2.99029 164.249 3.61566 164.249 4.40715C164.249 5.19863 164.485 5.83378 164.966 6.31258C165.446 6.79138 166.025 7.02589 166.712 7.02589L166.732 7.01612Z" fill="#BB0E3D"/>
<path d="M177.897 0.195312V1.88577H173.649V3.63485H177.465V5.24714H173.649V7.00599H178.024V8.68668H171.745V0.195312H177.897Z" fill="#BB0E3D"/>
<path d="M186.649 3.01949C186.649 4.37772 186.109 5.25715 185.03 5.65778L187.188 8.69669H184.843L182.95 5.99H181.635V8.69669H179.732V0.205322H182.969C184.294 0.205322 185.246 0.430065 185.805 0.869779C186.364 1.30949 186.649 2.03258 186.649 3.01949ZM184.353 4.02595C184.588 3.81098 184.706 3.47875 184.706 3.01949C184.706 2.56024 184.588 2.24755 184.343 2.08144C184.098 1.91532 183.676 1.82738 183.058 1.82738H181.635V4.33863H183.028C183.676 4.33863 184.117 4.23115 184.363 4.02595H184.353Z" fill="#BB0E3D"/>
<path d="M191.82 0.195312H193.724V8.68668H191.82V0.195312Z" fill="#BB0E3D"/>
<path d="M201.788 0.195312H203.691V8.68668H201.788L197.726 3.36125V8.68668H195.822V0.195312H197.608L201.788 5.65754V0.195312Z" fill="#BB0E3D"/>
<path d="M207.782 1.89566C207.596 2.04223 207.508 2.24743 207.508 2.49171C207.508 2.736 207.616 2.93143 207.841 3.078C208.067 3.22457 208.577 3.39068 209.392 3.59588C210.206 3.80108 210.834 4.09423 211.275 4.48508C211.727 4.88571 211.943 5.46222 211.943 6.22439C211.943 6.98657 211.658 7.60216 211.079 8.08096C210.5 8.55976 209.755 8.79428 208.813 8.79428C207.459 8.79428 206.242 8.29594 205.163 7.29925L206.301 5.91171C207.223 6.71297 208.067 7.11359 208.852 7.11359C209.205 7.11359 209.48 7.03542 209.676 6.88885C209.872 6.74228 209.98 6.53708 209.98 6.28302C209.98 6.02897 209.872 5.82377 209.666 5.6772C209.46 5.53062 209.038 5.37428 208.41 5.21794C207.419 4.98342 206.693 4.68051 206.232 4.29942C205.771 3.91834 205.545 3.33205 205.545 2.52103C205.545 1.71 205.84 1.0944 206.419 0.654685C206.998 0.214971 207.724 0 208.597 0C209.166 0 209.735 0.0977144 210.304 0.293143C210.873 0.488571 211.373 0.76217 211.795 1.12371L210.834 2.51125C210.098 1.95428 209.333 1.67091 208.538 1.67091C208.224 1.67091 207.969 1.74908 207.792 1.89566H207.782Z" fill="#BB0E3D"/>
<path d="M217.103 1.83691V8.68668H215.2V1.83691H212.786V0.195312H219.517V1.83691H217.103Z" fill="#BB0E3D"/>
<path d="M220.91 0.195312H222.814V8.68668H220.91V0.195312Z" fill="#BB0E3D"/>
<path d="M228.524 1.83691V8.68668H226.621V1.83691H224.207V0.195312H230.938V1.83691H228.524Z" fill="#BB0E3D"/>
<path d="M234.587 6.49813C234.901 6.88899 235.333 7.08442 235.872 7.08442C236.412 7.08442 236.834 6.88899 237.148 6.49813C237.462 6.10727 237.619 5.56984 237.619 4.88584V0.195563H239.522V4.94447C239.522 6.17567 239.179 7.1235 238.502 7.77819C237.815 8.44264 236.942 8.7651 235.882 8.7651C234.823 8.7651 233.94 8.43287 233.253 7.76841C232.566 7.10396 232.223 6.15613 232.223 4.9347V0.185791H234.126V4.87607C234.126 5.56007 234.283 6.08773 234.597 6.48836L234.587 6.49813Z" fill="#BB0E3D"/>
<path d="M245.104 1.83691V8.68668H243.201V1.83691H240.787V0.195312H247.518V1.83691H245.104Z" fill="#BB0E3D"/>
<path d="M255.064 0.195312V1.88577H250.816V3.63485H254.632V5.24714H250.816V7.00599H255.191V8.68668H248.912V0.195312H255.064Z" fill="#BB0E3D"/>
</svg>
