<svg width="67" height="67" viewBox="0 0 67 67" fill="none" xmlns="http://www.w3.org/2000/svg">
<g filter="url(#filter0_d_4300_855)">
<circle cx="33.5" cy="29.5" r="29.5" fill="white"/>
<circle cx="33.5" cy="29.5" r="29" stroke="#E0E0E0"/>
</g>
<path d="M15.2068 15.585C14.5506 15.585 14.0189 16.1136 14.0189 16.766C14.0189 17.4185 14.5506 17.9471 15.2068 17.9471H18.9931L23.0763 37.1032C23.2382 37.8245 23.7134 38.4242 24.3137 38.42H44.1113C44.7391 38.4284 45.3161 37.8632 45.3161 37.2389C45.3161 36.6146 44.7391 36.0487 44.1113 36.0578H25.2788L24.7711 33.6956H45.6951C46.2268 33.6921 46.7295 33.2886 46.8455 32.7733L49.6171 20.9624C49.7713 20.277 49.1731 19.5282 48.4668 19.5226H21.7654L21.122 16.5207C21.0089 15.9955 20.4977 15.585 19.9582 15.585H15.2068ZM22.2597 21.8841H28.4464L29.0404 25.4273H23.0141L22.2597 21.8841ZM30.8716 21.8841H38.3452L37.7513 25.4273H31.4656L30.8716 21.8841ZM40.7704 21.8841H46.9699L46.1405 25.4273H40.1765L40.7704 21.8841ZM23.5218 27.7895H29.4363L30.0302 31.3328H24.2762L23.5218 27.7895ZM31.8615 27.7895H37.3553L36.7614 31.3328H32.4554L31.8615 27.7895ZM39.7806 27.7895H45.5834L44.754 31.3328H39.1859L39.7798 27.7895H39.7806ZM28.6691 39.9941C26.4964 39.9941 24.7096 41.7706 24.7096 43.931C24.7096 46.0914 26.4964 47.868 28.6691 47.868C30.8419 47.868 32.6287 46.0914 32.6287 43.931C32.6287 41.7706 30.8419 39.9941 28.6691 39.9941ZM39.7558 39.9941C37.583 39.9941 35.7963 41.7706 35.7963 43.931C35.7963 46.0914 37.583 47.868 39.7558 47.868C41.9286 47.868 43.7153 46.0914 43.7153 43.931C43.7153 41.7706 41.9286 39.9941 39.7558 39.9941ZM28.6691 42.3562C29.5579 42.3562 30.253 43.0473 30.253 43.931C30.253 44.8147 29.5579 45.5058 28.6691 45.5058C27.7804 45.5058 27.0853 44.8147 27.0853 43.931C27.0853 43.0473 27.7804 42.3562 28.6691 42.3562ZM39.7558 42.3562C40.6446 42.3562 41.3396 43.0473 41.3396 43.931C41.3396 44.8147 40.6446 45.5058 39.7558 45.5058C38.867 45.5058 38.172 44.8147 38.172 43.931C38.172 43.0473 38.867 42.3562 39.7558 42.3562Z" fill="#5666BD"/>
<defs>
<filter id="filter0_d_4300_855" x="0" y="0" width="67" height="67" filterUnits="userSpaceOnUse" color-interpolation-filters="sRGB">
<feFlood flood-opacity="0" result="BackgroundImageFix"/>
<feColorMatrix in="SourceAlpha" type="matrix" values="0 0 0 0 0 0 0 0 0 0 0 0 0 0 0 0 0 0 127 0" result="hardAlpha"/>
<feOffset dy="4"/>
<feGaussianBlur stdDeviation="2"/>
<feComposite in2="hardAlpha" operator="out"/>
<feColorMatrix type="matrix" values="0 0 0 0 0 0 0 0 0 0 0 0 0 0 0 0 0 0 0.25 0"/>
<feBlend mode="normal" in2="BackgroundImageFix" result="effect1_dropShadow_4300_855"/>
<feBlend mode="normal" in="SourceGraphic" in2="effect1_dropShadow_4300_855" result="shape"/>
</filter>
</defs>
</svg>
