<svg width="319" height="52" viewBox="0 0 319 52" fill="none" xmlns="http://www.w3.org/2000/svg">
<g clip-path="url(#clip0_396_2060)">
<path d="M99.3707 0.262451H101.652V10.5606H99.3707L94.501 4.10687V10.5606H92.2192V0.262451H94.3478L99.3554 6.88597V0.262451H99.3707Z" fill="#BB0E3D"/>
<path d="M111.423 10.5606L110.473 8.33727H106.201L105.251 10.5606H102.832L107.242 0.262451H109.447L113.857 10.5606H111.423ZM108.344 3.3349L107.058 6.33015H109.616L108.344 3.3349Z" fill="#BB0E3D"/>
<path d="M118.62 2.25414V10.5606H116.338V2.25414H113.444V0.262451H121.499V2.25414H118.605H118.62Z" fill="#BB0E3D"/>
<path d="M123.168 0.262451H125.45V10.5606H123.168V0.262451Z" fill="#BB0E3D"/>
<path d="M136.553 9.14008C135.527 10.1591 134.255 10.6686 132.739 10.6686C131.223 10.6686 129.952 10.1591 128.926 9.14008C127.9 8.12108 127.38 6.85505 127.38 5.34198C127.38 3.82892 127.9 2.56289 128.926 1.54388C129.952 0.524882 131.223 0.0153809 132.739 0.0153809C134.255 0.0153809 135.527 0.524882 136.553 1.54388C137.579 2.56289 138.099 3.82892 138.099 5.34198C138.099 6.85505 137.579 8.12108 136.553 9.14008ZM135.772 5.35742C135.772 4.4465 135.481 3.65909 134.899 3.01063C134.317 2.36217 133.597 2.03795 132.739 2.03795C131.882 2.03795 131.162 2.36217 130.58 3.01063C129.998 3.65909 129.707 4.4465 129.707 5.35742C129.707 6.26835 129.998 7.05576 130.58 7.70422C131.162 8.35267 131.882 8.66146 132.739 8.66146C133.597 8.66146 134.317 8.33723 134.899 7.70422C135.481 7.05576 135.772 6.28379 135.772 5.35742Z" fill="#BB0E3D"/>
<path d="M147.165 0.262451H149.447V10.5606H147.165L142.295 4.10687V10.5606H140.013V0.262451H142.142L147.15 6.88597V0.262451H147.165Z" fill="#BB0E3D"/>
<path d="M159.232 10.5606L158.283 8.33727H154.01L153.061 10.5606H150.641L155.051 0.262451H157.257L161.667 10.5606H159.232ZM156.154 3.3349L154.868 6.33015H157.425L156.154 3.3349Z" fill="#BB0E3D"/>
<path d="M162.831 10.5606V0.262451H165.113V8.50711H169.462V10.5606H162.831Z" fill="#BB0E3D"/>
<path d="M179.676 8.52257C180.794 8.52257 181.713 8.07483 182.417 7.17934L183.872 8.6924C182.708 10.0048 181.345 10.6687 179.768 10.6687C178.19 10.6687 176.904 10.1746 175.878 9.17103C174.867 8.16746 174.347 6.90143 174.347 5.37293C174.347 3.84442 174.867 2.57839 175.909 1.55939C176.95 0.540385 178.221 0.0308838 179.706 0.0308838C181.376 0.0308838 182.785 0.67934 183.918 1.96081L182.494 3.58195C181.774 2.68647 180.87 2.22328 179.814 2.22328C178.956 2.22328 178.221 2.50119 177.609 3.07245C176.996 3.64371 176.69 4.40024 176.69 5.35749C176.69 6.31473 176.981 7.0867 177.547 7.65796C178.114 8.24466 178.818 8.52257 179.63 8.52257H179.676Z" fill="#BB0E3D"/>
<path d="M192.876 10.5606L191.927 8.33727H187.654L186.705 10.5606H184.285L188.696 0.262451H190.901L195.311 10.5606H192.876ZM189.798 3.3349L188.512 6.33015H191.069L189.798 3.3349Z" fill="#BB0E3D"/>
<path d="M203.627 0.262451H205.908V10.5606H203.627L198.757 4.10687V10.5606H196.475V0.262451H198.604L203.611 6.88597V0.262451H203.627Z" fill="#BB0E3D"/>
<path d="M213.106 8.52257C214.224 8.52257 215.143 8.07483 215.847 7.17934L217.302 8.6924C216.138 10.0048 214.775 10.6687 213.198 10.6687C211.62 10.6687 210.334 10.1746 209.308 9.17103C208.297 8.16746 207.777 6.90143 207.777 5.37293C207.777 3.84442 208.297 2.57839 209.339 1.55939C210.38 0.540385 211.636 0.0308838 213.136 0.0308838C214.806 0.0308838 216.214 0.67934 217.348 1.96081L215.924 3.58195C215.204 2.68647 214.3 2.22328 213.244 2.22328C212.386 2.22328 211.651 2.50119 211.038 3.07245C210.426 3.64371 210.12 4.40024 210.12 5.35749C210.12 6.31473 210.411 7.0867 210.977 7.65796C211.544 8.24466 212.248 8.52257 213.06 8.52257H213.106Z" fill="#BB0E3D"/>
<path d="M226.475 0.262451V2.3159H221.39V4.4311H225.969V6.3919H221.39V8.52255H226.628V10.5606H219.109V0.262451H226.475Z" fill="#BB0E3D"/>
<path d="M236.949 3.69C236.949 5.34202 236.306 6.40734 235.004 6.88597L237.592 10.5606H234.79L232.524 7.27195H230.946V10.5606H228.665V0.262451H232.539C234.132 0.262451 235.265 0.524921 235.939 1.0653C236.612 1.60568 236.949 2.47029 236.949 3.67457V3.69ZM234.208 4.90972C234.484 4.64725 234.637 4.24582 234.637 3.69C234.637 3.13419 234.499 2.7482 234.193 2.54749C233.887 2.34677 233.396 2.2387 232.661 2.2387H230.946V5.28027H232.615C233.396 5.28027 233.917 5.15675 234.208 4.89428V4.90972Z" fill="#BB0E3D"/>
<path d="M243.136 0.262451H245.418V10.5606H243.136V0.262451Z" fill="#BB0E3D"/>
<path d="M255.065 0.262451H257.347V10.5606H255.065L250.196 4.10687V10.5606H247.914V0.262451H250.042L255.05 6.88597V0.262451H255.065Z" fill="#BB0E3D"/>
<path d="M262.248 2.31591C262.033 2.50119 261.926 2.73278 261.926 3.04157C261.926 3.35036 262.064 3.58195 262.324 3.75178C262.6 3.92162 263.212 4.13777 264.177 4.3848C265.142 4.63183 265.892 4.98694 266.428 5.46556C266.964 5.94418 267.224 6.65439 267.224 7.56532C267.224 8.47625 266.888 9.23278 266.198 9.80404C265.509 10.3753 264.606 10.6686 263.488 10.6686C261.865 10.6686 260.41 10.0665 259.124 8.86223L260.486 7.17934C261.589 8.15202 262.6 8.63064 263.534 8.63064C263.947 8.63064 264.284 8.538 264.514 8.35273C264.759 8.16746 264.866 7.92043 264.866 7.61164C264.866 7.30285 264.744 7.05582 264.483 6.87055C264.223 6.68527 263.733 6.5 262.983 6.31473C261.788 6.03682 260.931 5.66627 260.379 5.20309C259.828 4.7399 259.552 4.02969 259.552 3.05701C259.552 2.08432 259.905 1.32779 260.594 0.80285C261.283 0.27791 262.156 0 263.197 0C263.886 0 264.56 0.123515 265.249 0.355107C265.923 0.586698 266.52 0.926366 267.025 1.35867L265.877 3.04157C264.989 2.36223 264.07 2.02257 263.136 2.02257C262.753 2.02257 262.462 2.1152 262.232 2.30048L262.248 2.31591Z" fill="#BB0E3D"/>
<path d="M273.411 2.25414V10.5606H271.129V2.25414H268.235V0.262451H276.29V2.25414H273.396H273.411Z" fill="#BB0E3D"/>
<path d="M277.975 0.262451H280.256V10.5606H277.975V0.262451Z" fill="#BB0E3D"/>
<path d="M287.086 2.25414V10.5606H284.804V2.25414H281.91V0.262451H289.965V2.25414H287.071H287.086Z" fill="#BB0E3D"/>
<path d="M294.345 7.90497C294.728 8.38359 295.233 8.61518 295.876 8.61518C296.519 8.61518 297.025 8.38359 297.408 7.90497C297.775 7.42635 297.974 6.77789 297.974 5.9596V0.262451H300.256V6.02136C300.256 7.51898 299.843 8.6615 299.031 9.46435C298.219 10.2672 297.163 10.6686 295.892 10.6686C294.621 10.6686 293.564 10.2672 292.737 9.46435C291.91 8.6615 291.497 7.51898 291.497 6.0368V0.262451H293.778V5.94416C293.778 6.76245 293.962 7.41091 294.345 7.88953V7.90497Z" fill="#BB0E3D"/>
<path d="M306.933 2.25414V10.5606H304.651V2.25414H301.757V0.262451H309.812V2.25414H306.918H306.933Z" fill="#BB0E3D"/>
<path d="M318.847 0.262451V2.3159H313.763V4.4311H318.342V6.3919H313.763V8.52255H319V10.5606H311.481V0.262451H318.847Z" fill="#BB0E3D"/>
<path d="M68.6973 27.0499L54.9609 2.11523H5.28323C2.35831 2.11523 0 4.50835 0 7.45728V46.6425C0 49.5915 2.35831 51.9846 5.28323 51.9846H54.9609L68.6973 27.0499Z" fill="#606061"/>
<path d="M67.319 4.72444C66.3543 3.11874 64.6085 2.13062 62.7249 2.13062H58.6208L72.541 27.0653L58.6208 52H62.7249C64.6085 52 66.3543 51.0119 67.319 49.4062L79.6772 27.0653L67.319 4.72444Z" fill="#BA1F40"/>
<path d="M32.9705 15.9644H29.3105V38.1354H32.9705V15.9644Z" fill="white"/>
<path d="M21.9752 15.9644V32.2221L11.9141 15.9644H8.23877V38.1354H11.9141V21.8777L21.9752 38.1354H25.6505V15.9644H21.9752Z" fill="white"/>
<path d="M50.3822 15.9644V25.2126H40.3057V15.9644H36.6458V38.1354H40.3057V28.9026H50.3822V38.1354H54.0421V15.9644H50.3822Z" fill="white"/>
<path d="M99.4472 30.5546C98.4518 30.5546 97.533 30.3848 96.6755 30.0606C95.8179 29.7363 95.0828 29.2731 94.455 28.6556C93.8271 28.0534 93.3371 27.3432 93.0002 26.5249C92.6479 25.7066 92.4795 24.8112 92.4795 23.8385C92.4795 22.8658 92.6479 21.9703 93.0002 21.152C93.3524 20.3337 93.8424 19.6235 94.4703 19.0214C95.0981 18.4192 95.8485 17.956 96.6908 17.6164C97.533 17.2767 98.4672 17.1223 99.4625 17.1223C100.58 17.1223 101.591 17.323 102.495 17.709C103.398 18.095 104.164 18.6663 104.776 19.4228L102.847 21.1983C102.418 20.6888 101.928 20.3028 101.392 20.0558C100.841 19.7933 100.259 19.6698 99.6157 19.6698C99.0185 19.6698 98.4672 19.7779 97.9618 19.9786C97.4565 20.1793 97.0277 20.4727 96.6601 20.8432C96.2926 21.2138 96.0016 21.6461 95.8026 22.1556C95.6035 22.6651 95.4963 23.2209 95.4963 23.8385C95.4963 24.456 95.6035 25.0119 95.8026 25.5214C96.0016 26.0309 96.2926 26.4632 96.6601 26.8337C97.0277 27.2043 97.4565 27.4976 97.9618 27.6983C98.4672 27.899 99.0185 28.0071 99.6157 28.0071C100.259 28.0071 100.841 27.8682 101.392 27.6057C101.943 27.3432 102.418 26.9572 102.847 26.4477L104.776 28.2233C104.164 28.9798 103.398 29.5511 102.495 29.9525C101.591 30.3539 100.565 30.5392 99.4472 30.5392V30.5546Z" fill="#606061"/>
<path d="M112.571 20.2257C113.352 20.2257 114.056 20.3801 114.669 20.7043C115.282 21.0131 115.772 21.5072 116.124 22.1556C116.476 22.8041 116.66 23.6378 116.66 24.6414V30.3539H113.796V25.0891C113.796 24.2862 113.628 23.6996 113.275 23.3136C112.923 22.9276 112.433 22.7423 111.79 22.7423C111.331 22.7423 110.932 22.8349 110.565 23.0357C110.197 23.2364 109.922 23.5297 109.723 23.9003C109.524 24.2708 109.416 24.7957 109.416 25.4133V30.3385H106.553V16.5974H109.416V23.1437L108.773 22.31C109.125 21.6461 109.631 21.1366 110.305 20.7661C110.963 20.411 111.713 20.2257 112.571 20.2257Z" fill="#606061"/>
<path d="M120.687 18.9751C120.151 18.9751 119.707 18.8207 119.386 18.5119C119.049 18.2031 118.896 17.8171 118.896 17.3694C118.896 16.9216 119.064 16.5356 119.386 16.2269C119.723 15.9181 120.151 15.7637 120.687 15.7637C121.223 15.7637 121.652 15.9026 121.989 16.196C122.326 16.4893 122.494 16.8599 122.494 17.3231C122.494 17.7862 122.326 18.2031 122.004 18.5119C121.668 18.8207 121.239 18.9905 120.703 18.9905H120.687V18.9751ZM119.248 30.3385V20.3646H122.112V30.3385H119.248Z" fill="#606061"/>
<path d="M124.792 30.3385V16.5974H127.655V30.3385H124.792Z" fill="#606061"/>
<path d="M134.562 30.4928C133.628 30.4928 132.785 30.2767 132.05 29.8598C131.3 29.4275 130.718 28.8408 130.289 28.0688C129.86 27.2969 129.646 26.4014 129.646 25.3669C129.646 24.3325 129.86 23.4216 130.289 22.665C130.718 21.9085 131.3 21.3064 132.05 20.8741C132.801 20.4418 133.643 20.2411 134.562 20.2411C135.389 20.2411 136.124 20.4263 136.752 20.7969C137.379 21.1674 137.854 21.7232 138.206 22.4798C138.559 23.2363 138.727 24.1935 138.727 25.3669C138.727 26.5403 138.559 27.4976 138.237 28.2541C137.9 29.0261 137.425 29.5819 136.813 29.9525C136.2 30.323 135.45 30.4928 134.577 30.4928H134.562ZM135.036 28.1152C135.511 28.1152 135.94 28.0071 136.323 27.7909C136.706 27.5748 137.012 27.2506 137.226 26.8337C137.456 26.4168 137.563 25.9228 137.563 25.3515C137.563 24.7802 137.456 24.2707 137.226 23.8693C136.997 23.4679 136.69 23.1437 136.323 22.9275C135.94 22.7114 135.511 22.6033 135.036 22.6033C134.562 22.6033 134.148 22.7114 133.765 22.9275C133.383 23.1437 133.076 23.4525 132.862 23.8693C132.632 24.2707 132.525 24.7648 132.525 25.3515C132.525 25.9382 132.632 26.4168 132.862 26.8337C133.092 27.2506 133.398 27.5748 133.765 27.7909C134.148 28.0071 134.562 28.1152 135.036 28.1152ZM137.64 30.3384V28.3004L137.701 25.3361L137.517 22.3871V16.5819H140.381V30.323H137.64V30.3384Z" fill="#606061"/>
<path d="M149.048 20.2257C149.829 20.2257 150.534 20.3801 151.146 20.7043C151.759 21.0131 152.249 21.5072 152.601 22.1556C152.953 22.8041 153.137 23.6378 153.137 24.6414V30.3539H150.273V25.0891C150.273 24.2862 150.105 23.6996 149.753 23.3136C149.401 22.9276 148.91 22.7423 148.267 22.7423C147.808 22.7423 147.41 22.8349 147.042 23.0357C146.675 23.2364 146.399 23.5297 146.2 23.9003C146.001 24.2708 145.894 24.7957 145.894 25.4133V30.3385H143.03V16.5974H145.894V23.1437L145.251 22.31C145.603 21.6461 146.108 21.1366 146.782 20.7661C147.44 20.411 148.191 20.2257 149.048 20.2257Z" fill="#606061"/>
<path d="M160.488 30.4929C159.446 30.4929 158.512 30.2768 157.701 29.829C156.889 29.3813 156.246 28.7792 155.786 28.0072C155.327 27.2352 155.082 26.3552 155.082 25.367C155.082 24.3789 155.312 23.4834 155.786 22.7115C156.246 21.9395 156.889 21.3373 157.701 20.8896C158.512 20.4573 159.446 20.2257 160.488 20.2257C161.529 20.2257 162.479 20.4419 163.306 20.8896C164.132 21.3219 164.776 21.9395 165.235 22.7115C165.694 23.4834 165.939 24.3635 165.939 25.367C165.939 26.3706 165.71 27.2506 165.235 28.0226C164.76 28.7946 164.132 29.3967 163.306 29.8445C162.479 30.2922 161.544 30.5084 160.488 30.5084V30.4929ZM160.488 28.1153C160.978 28.1153 161.407 28.0072 161.789 27.791C162.157 27.5749 162.463 27.2506 162.693 26.8338C162.923 26.4169 163.03 25.9229 163.03 25.3516C163.03 24.7803 162.923 24.2708 162.693 23.8694C162.463 23.468 162.172 23.1438 161.789 22.9276C161.422 22.7115 160.993 22.6034 160.518 22.6034C160.044 22.6034 159.615 22.7115 159.232 22.9276C158.849 23.1438 158.543 23.4525 158.329 23.8694C158.099 24.2708 157.992 24.7649 157.992 25.3516C157.992 25.9383 158.099 26.4169 158.329 26.8338C158.558 27.2506 158.865 27.5749 159.232 27.791C159.615 28.0072 160.028 28.1153 160.503 28.1153H160.488Z" fill="#606061"/>
<path d="M172.524 30.4929C171.483 30.4929 170.549 30.2768 169.737 29.829C168.926 29.3813 168.282 28.7792 167.823 28.0072C167.364 27.2352 167.119 26.3552 167.119 25.367C167.119 24.3789 167.348 23.4834 167.823 22.7115C168.282 21.9395 168.926 21.3373 169.737 20.8896C170.549 20.4573 171.483 20.2257 172.524 20.2257C173.566 20.2257 174.515 20.4419 175.342 20.8896C176.169 21.3219 176.812 21.9395 177.272 22.7115C177.731 23.4834 177.976 24.3635 177.976 25.367C177.976 26.3706 177.746 27.2506 177.272 28.0226C176.812 28.7946 176.169 29.3967 175.342 29.8445C174.515 30.2922 173.581 30.5084 172.524 30.5084V30.4929ZM172.524 28.1153C173.014 28.1153 173.443 28.0072 173.826 27.791C174.194 27.5749 174.5 27.2506 174.73 26.8338C174.959 26.4169 175.066 25.9229 175.066 25.3516C175.066 24.7803 174.959 24.2708 174.73 23.8694C174.5 23.468 174.209 23.1438 173.826 22.9276C173.459 22.7115 173.03 22.6034 172.555 22.6034C172.08 22.6034 171.652 22.7115 171.269 22.9276C170.886 23.1438 170.58 23.4525 170.365 23.8694C170.135 24.2708 170.028 24.7649 170.028 25.3516C170.028 25.9383 170.135 26.4169 170.365 26.8338C170.595 27.2506 170.901 27.5749 171.269 27.791C171.652 28.0072 172.065 28.1153 172.54 28.1153H172.524Z" fill="#606061"/>
<path d="M184.132 30.4928C183.198 30.4928 182.356 30.2767 181.621 29.8598C180.87 29.4275 180.288 28.8408 179.859 28.0688C179.431 27.2969 179.216 26.4014 179.216 25.3669C179.216 24.3325 179.431 23.4216 179.859 22.665C180.288 21.9085 180.87 21.3064 181.621 20.8741C182.371 20.4418 183.213 20.2411 184.132 20.2411C184.959 20.2411 185.694 20.4263 186.322 20.7969C186.95 21.1674 187.424 21.7232 187.777 22.4798C188.129 23.2363 188.297 24.1935 188.297 25.3669C188.297 26.5403 188.129 27.4976 187.807 28.2541C187.47 29.0261 186.996 29.5819 186.383 29.9525C185.771 30.323 185.02 30.4928 184.147 30.4928H184.132ZM184.607 28.1152C185.081 28.1152 185.51 28.0071 185.893 27.7909C186.276 27.5748 186.582 27.2506 186.797 26.8337C187.026 26.4168 187.133 25.9228 187.133 25.3515C187.133 24.7802 187.026 24.2707 186.797 23.8693C186.567 23.4679 186.261 23.1437 185.893 22.9275C185.51 22.7114 185.081 22.6033 184.607 22.6033C184.132 22.6033 183.719 22.7114 183.336 22.9275C182.953 23.1437 182.647 23.4525 182.432 23.8693C182.202 24.2707 182.095 24.7648 182.095 25.3515C182.095 25.9382 182.202 26.4168 182.432 26.8337C182.662 27.2506 182.968 27.5748 183.336 27.7909C183.719 28.0071 184.132 28.1152 184.607 28.1152ZM187.21 30.3384V28.3004L187.271 25.3361L187.088 22.3871V16.5819H189.951V30.323H187.21V30.3384Z" fill="#606061"/>
<path d="M204.162 30.5546C203.167 30.5546 202.248 30.3848 201.391 30.0606C200.533 29.7363 199.798 29.2731 199.17 28.6556C198.542 28.0534 198.052 27.3432 197.715 26.5249C197.363 25.7066 197.195 24.8112 197.195 23.8385C197.195 22.8658 197.363 21.9703 197.715 21.152C198.067 20.3337 198.558 19.6235 199.185 19.0214C199.813 18.4192 200.564 17.956 201.406 17.6164C202.263 17.2921 203.182 17.1223 204.178 17.1223C205.296 17.1223 206.306 17.323 207.21 17.709C208.113 18.095 208.879 18.6663 209.491 19.4228L207.562 21.1983C207.133 20.6888 206.643 20.3028 206.107 20.0558C205.556 19.7933 204.974 19.6698 204.331 19.6698C203.734 19.6698 203.182 19.7779 202.677 19.9786C202.172 20.1793 201.743 20.4727 201.375 20.8432C201.008 21.2138 200.717 21.6461 200.518 22.1556C200.319 22.6651 200.211 23.2209 200.211 23.8385C200.211 24.456 200.319 25.0119 200.518 25.5214C200.717 26.0309 201.008 26.4632 201.375 26.8337C201.743 27.2043 202.172 27.4976 202.677 27.6983C203.182 27.899 203.734 28.0071 204.331 28.0071C204.974 28.0071 205.556 27.8682 206.107 27.6057C206.658 27.3432 207.133 26.9572 207.562 26.4477L209.491 28.2233C208.879 28.9798 208.113 29.5511 207.21 29.9525C206.306 30.3539 205.28 30.5392 204.162 30.5392V30.5546Z" fill="#606061"/>
<path d="M214.239 30.4929C213.473 30.4929 212.83 30.354 212.279 30.0915C211.727 29.829 211.299 29.4585 211.008 29.0107C210.717 28.563 210.563 28.0381 210.563 27.4668C210.563 26.8955 210.701 26.3706 210.992 25.9229C211.283 25.4751 211.743 25.12 212.355 24.873C212.983 24.6259 213.795 24.5024 214.821 24.5024H217.424V26.1699H215.112C214.438 26.1699 213.978 26.278 213.718 26.5096C213.473 26.7257 213.335 27.0036 213.335 27.3433C213.335 27.7138 213.473 28.0072 213.764 28.2233C214.055 28.4395 214.438 28.5476 214.928 28.5476C215.418 28.5476 215.862 28.4395 216.245 28.2079C216.628 27.9917 216.903 27.6521 217.057 27.1889L217.501 28.5476C217.286 29.1651 216.919 29.6438 216.367 29.9834C215.816 30.3231 215.112 30.4929 214.239 30.4929ZM217.256 30.3385V28.3932L217.072 27.9609V24.4715C217.072 23.854 216.888 23.3753 216.505 23.0202C216.122 22.6651 215.556 22.4953 214.79 22.4953C214.269 22.4953 213.749 22.5725 213.243 22.7423C212.738 22.9122 212.294 23.1283 211.926 23.4217L210.916 21.3991C211.452 20.9977 212.11 20.7043 212.861 20.5036C213.611 20.3029 214.392 20.1948 215.173 20.1948C216.674 20.1948 217.853 20.5499 218.68 21.2756C219.507 22.0012 219.935 23.1129 219.935 24.6259V30.3076H217.256V30.3385Z" fill="#606061"/>
<path d="M228.542 20.2256C229.323 20.2256 230.027 20.38 230.64 20.7043C231.252 21.0131 231.742 21.5071 232.095 22.1556C232.447 22.804 232.63 23.6378 232.63 24.6413V30.3539H229.767V25.0891C229.767 24.2862 229.598 23.6995 229.246 23.3135C228.894 22.9275 228.404 22.7423 227.761 22.7423C227.301 22.7423 226.903 22.8349 226.536 23.0356C226.168 23.2363 225.892 23.5297 225.693 23.9002C225.494 24.2708 225.387 24.7957 225.387 25.4133V30.3385H222.523V20.3646H225.265V23.1283L224.744 22.2945C225.096 21.6306 225.601 21.1211 226.275 20.7506C226.934 20.3955 227.684 20.2102 228.542 20.2102V20.2256Z" fill="#606061"/>
<path d="M240.088 30.4929C239.016 30.4929 238.082 30.2767 237.255 29.829C236.428 29.3967 235.785 28.7791 235.31 28.0071C234.836 27.2351 234.606 26.3397 234.606 25.3515C234.606 24.3634 234.836 23.4679 235.31 22.696C235.785 21.924 236.428 21.3218 237.255 20.8741C238.082 20.4264 239.032 20.2102 240.088 20.2102C241.145 20.2102 242.033 20.4264 242.814 20.8741C243.595 21.3064 244.146 21.9394 244.499 22.7423L242.293 23.962C242.018 23.4988 241.696 23.1437 241.313 22.9275C240.931 22.7114 240.517 22.6033 240.058 22.6033C239.598 22.6033 239.139 22.7114 238.756 22.9275C238.358 23.1437 238.052 23.4525 237.822 23.8693C237.592 24.2708 237.47 24.7648 237.47 25.3515C237.47 25.9382 237.592 26.4323 237.822 26.8492C238.052 27.266 238.373 27.5748 238.756 27.791C239.154 28.0071 239.583 28.1152 240.058 28.1152C240.532 28.1152 240.931 28.0071 241.313 27.791C241.696 27.5748 242.018 27.2197 242.293 26.7411L244.499 27.9608C244.162 28.7482 243.595 29.3658 242.814 29.8135C242.033 30.2613 241.13 30.4774 240.088 30.4774V30.4929Z" fill="#606061"/>
<path d="M250.946 30.4929C249.813 30.4929 248.833 30.2768 247.99 29.829C247.148 29.3813 246.49 28.7792 246.03 28.0072C245.571 27.2352 245.326 26.3552 245.326 25.367C245.326 24.3789 245.555 23.4989 245.999 22.7115C246.444 21.9395 247.071 21.3219 247.868 20.8896C248.664 20.4573 249.568 20.2257 250.578 20.2257C251.589 20.2257 252.416 20.4419 253.197 20.8587C253.978 21.2756 254.59 21.8777 255.05 22.6343C255.509 23.4062 255.724 24.3172 255.724 25.3979C255.724 25.506 255.724 25.6295 255.724 25.7839C255.724 25.9229 255.693 26.0618 255.693 26.1853H247.669V24.5024H254.192L253.074 24.9965C253.074 24.4716 252.983 24.0238 252.783 23.6378C252.569 23.2518 252.293 22.9585 251.926 22.7423C251.558 22.5262 251.13 22.4181 250.64 22.4181C250.15 22.4181 249.721 22.5262 249.338 22.7423C248.97 22.9585 248.679 23.2673 248.465 23.6533C248.251 24.0392 248.159 24.5024 248.159 25.0274V25.4751C248.159 26.0309 248.281 26.5096 248.526 26.9264C248.771 27.3433 249.108 27.6521 249.537 27.8682C249.966 28.0844 250.486 28.1925 251.084 28.1925C251.604 28.1925 252.048 28.1153 252.447 27.9454C252.845 27.791 253.212 27.544 253.534 27.2198L255.065 28.8872C254.606 29.4122 254.039 29.7982 253.35 30.0761C252.661 30.354 251.88 30.4929 250.976 30.4929H250.961H250.946Z" fill="#606061"/>
<path d="M257.638 30.3385V20.3647H260.379V23.2055L259.996 22.3718C260.287 21.6616 260.762 21.1366 261.405 20.7661C262.048 20.3955 262.845 20.2257 263.779 20.2257V22.9122C263.672 22.8813 263.564 22.8659 263.457 22.8504C263.35 22.8504 263.258 22.835 263.151 22.835C262.339 22.835 261.696 23.0666 261.221 23.5143C260.747 23.9775 260.502 24.6723 260.502 25.6295V30.3385H257.638Z" fill="#606061"/>
<path d="M270.961 30.3385V17.3694H276.811C278.204 17.3694 279.445 17.6319 280.501 18.1722C281.573 18.7126 282.4 19.4691 282.998 20.4264C283.595 21.3991 283.901 22.5416 283.901 23.8385C283.901 25.1354 283.595 26.2934 282.998 27.2506C282.4 28.2233 281.558 28.9798 280.501 29.5048C279.429 30.0452 278.204 30.3076 276.811 30.3076H270.961V30.3385ZM273.962 27.8991H276.658C277.515 27.8991 278.266 27.7292 278.893 27.405C279.521 27.0808 280.011 26.6022 280.364 26C280.716 25.3824 280.884 24.6722 280.884 23.8539C280.884 23.0357 280.716 22.31 280.364 21.7079C280.011 21.1057 279.521 20.6425 278.893 20.3029C278.266 19.9632 277.515 19.8088 276.658 19.8088H273.962V27.8836V27.8991Z" fill="#606061"/>
<path d="M288.985 30.4929C288.219 30.4929 287.576 30.354 287.025 30.0915C286.474 29.829 286.045 29.4585 285.754 29.0107C285.448 28.5476 285.31 28.0381 285.31 27.4668C285.31 26.8955 285.448 26.3706 285.739 25.9229C286.03 25.4751 286.489 25.12 287.102 24.873C287.729 24.6259 288.541 24.5024 289.567 24.5024H292.17V26.1699H289.858C289.184 26.1699 288.725 26.278 288.464 26.5096C288.219 26.7257 288.082 27.0036 288.082 27.3433C288.082 27.7138 288.219 28.0072 288.51 28.2233C288.801 28.4395 289.184 28.5476 289.674 28.5476C290.164 28.5476 290.608 28.4395 290.991 28.2079C291.374 27.9917 291.65 27.6521 291.803 27.1889L292.247 28.5476C292.033 29.1651 291.665 29.6438 291.114 29.9834C290.562 30.3231 289.858 30.4929 288.985 30.4929ZM292.002 30.3385V28.3932L291.818 27.9609V24.4715C291.818 23.854 291.634 23.3753 291.252 23.0202C290.869 22.6651 290.302 22.4953 289.536 22.4953C289.016 22.4953 288.495 22.5725 287.99 22.7423C287.484 22.9122 287.04 23.1283 286.673 23.4217L285.662 21.3991C286.198 20.9977 286.856 20.7043 287.607 20.5036C288.357 20.3029 289.138 20.1948 289.919 20.1948C291.42 20.1948 292.599 20.5499 293.426 21.2756C294.253 22.0012 294.682 23.1129 294.682 24.6259V30.3076H292.002V30.3385Z" fill="#606061"/>
<path d="M296.091 22.8195V20.5962H302.951V22.8195H296.091ZM301.313 30.4928C300.149 30.4928 299.245 30.1995 298.587 29.5974C297.944 28.9952 297.607 28.0997 297.607 26.9263V18.1876H300.486V26.88C300.486 27.2969 300.593 27.6211 300.807 27.8681C301.022 28.0997 301.313 28.2233 301.68 28.2233C302.139 28.2233 302.538 28.0997 302.859 27.8527L303.61 29.8907C303.334 30.1069 302.982 30.2613 302.568 30.3693C302.155 30.4774 301.726 30.5237 301.297 30.5237V30.4928H301.313Z" fill="#606061"/>
<path d="M308.311 30.4929C307.545 30.4929 306.902 30.354 306.351 30.0915C305.8 29.829 305.371 29.4585 305.08 29.0107C304.774 28.5476 304.636 28.0381 304.636 27.4668C304.636 26.8955 304.774 26.3706 305.065 25.9229C305.356 25.4751 305.815 25.12 306.427 24.873C307.055 24.6259 307.867 24.5024 308.893 24.5024H311.496V26.1699H309.184C308.51 26.1699 308.051 26.278 307.79 26.5096C307.545 26.7257 307.408 27.0036 307.408 27.3433C307.408 27.7138 307.545 28.0072 307.836 28.2233C308.127 28.4395 308.51 28.5476 309 28.5476C309.49 28.5476 309.934 28.4395 310.317 28.2079C310.7 27.9917 310.976 27.6521 311.129 27.1889L311.573 28.5476C311.358 29.1651 310.991 29.6438 310.44 29.9834C309.888 30.3231 309.184 30.4929 308.311 30.4929ZM311.328 30.3385V28.3932L311.144 27.9609V24.4715C311.144 23.854 310.96 23.3753 310.577 23.0202C310.195 22.6651 309.628 22.4953 308.862 22.4953C308.342 22.4953 307.821 22.5725 307.316 22.7423C306.81 22.9122 306.366 23.1283 305.999 23.4217L304.988 21.3991C305.524 20.9977 306.182 20.7043 306.933 20.5036C307.683 20.3029 308.464 20.1948 309.245 20.1948C310.746 20.1948 311.925 20.5499 312.752 21.2756C313.579 22.0012 314.008 23.1129 314.008 24.6259V30.3076H311.328V30.3385Z" fill="#606061"/>
<path d="M93.291 49.6378V36.6687H96.2925V49.6378H93.291Z" fill="#606061"/>
<path d="M105.129 39.525C105.91 39.525 106.614 39.6794 107.227 40.0036C107.839 40.3278 108.329 40.8064 108.681 41.4549C109.034 42.1033 109.217 42.9371 109.217 43.9406V49.6532H106.354V44.3884C106.354 43.5855 106.185 42.9988 105.833 42.6128C105.481 42.2269 104.991 42.0416 104.348 42.0416C103.888 42.0416 103.49 42.1342 103.123 42.3349C102.755 42.5356 102.479 42.829 102.28 43.1995C102.081 43.5855 101.974 44.095 101.974 44.7126V49.6378H99.1104V39.6639H101.852V42.4276L101.331 41.5938C101.683 40.9299 102.188 40.4204 102.862 40.0499C103.521 39.6948 104.271 39.5095 105.129 39.5095V39.525Z" fill="#606061"/>
<path d="M113.245 38.2744C112.709 38.2744 112.265 38.12 111.943 37.8112C111.606 37.5024 111.453 37.1164 111.453 36.6687C111.453 36.2209 111.622 35.835 111.943 35.5262C112.265 35.2174 112.709 35.063 113.245 35.063C113.781 35.063 114.21 35.2019 114.547 35.4953C114.883 35.7886 115.052 36.1592 115.052 36.6224C115.052 37.0856 114.883 37.5024 114.562 37.8112C114.24 38.12 113.796 38.2898 113.26 38.2898H113.245V38.2744ZM111.805 49.6378V39.6639H114.669V49.6378H111.805Z" fill="#606061"/>
<path d="M116.17 42.1188V39.8955H123.03V42.1188H116.17ZM121.392 49.7922C120.228 49.7922 119.325 49.4988 118.666 48.8967C118.023 48.2945 117.686 47.3991 117.686 46.2257V37.4869H120.565V46.1793C120.565 46.5962 120.672 46.9204 120.887 47.1675C121.101 47.3991 121.392 47.5226 121.759 47.5226C122.219 47.5226 122.617 47.3991 122.939 47.152L123.689 49.19C123.413 49.4062 123.061 49.5606 122.648 49.6686C122.234 49.7767 121.805 49.823 121.377 49.823V49.7922H121.392Z" fill="#606061"/>
<path d="M126.767 38.2744C126.231 38.2744 125.787 38.12 125.465 37.8112C125.128 37.5024 124.975 37.1164 124.975 36.6687C124.975 36.2209 125.144 35.835 125.465 35.5262C125.802 35.2174 126.231 35.063 126.767 35.063C127.303 35.063 127.732 35.2019 128.068 35.4953C128.405 35.7886 128.574 36.1592 128.574 36.6224C128.574 37.0856 128.405 37.5024 128.084 37.8112C127.747 38.12 127.318 38.2898 126.782 38.2898H126.767V38.2744ZM125.327 49.6378V39.6639H128.191V49.6378H125.327Z" fill="#606061"/>
<path d="M133.918 49.7921C133.153 49.7921 132.51 49.6532 131.958 49.3907C131.407 49.1282 130.978 48.7577 130.687 48.3099C130.396 47.8622 130.243 47.3373 130.243 46.766C130.243 46.1947 130.381 45.6698 130.672 45.222C130.963 44.7743 131.422 44.4192 132.035 44.1722C132.663 43.9251 133.474 43.8016 134.5 43.8016H137.104V45.4691H134.791C134.118 45.4691 133.658 45.5772 133.398 45.8087C133.153 46.0249 133.015 46.3028 133.015 46.6425C133.015 47.013 133.153 47.3064 133.444 47.5225C133.735 47.7387 134.118 47.8467 134.608 47.8467C135.098 47.8467 135.542 47.7387 135.925 47.5071C136.307 47.2909 136.583 46.9513 136.736 46.4881L137.18 47.8467C136.966 48.4643 136.598 48.9429 136.047 49.2826C135.496 49.6223 134.791 49.7921 133.918 49.7921ZM136.935 49.6377V47.6924L136.751 47.2601V43.7707C136.751 43.1532 136.568 42.6745 136.185 42.3194C135.802 41.9643 135.235 41.7945 134.47 41.7945C133.949 41.7945 133.428 41.8717 132.923 42.0415C132.418 42.2114 131.974 42.4275 131.606 42.7209L130.595 40.6983C131.131 40.2969 131.79 40.0035 132.54 39.8028C133.291 39.6021 134.072 39.494 134.853 39.494C136.353 39.494 137.532 39.8491 138.359 40.5748C139.186 41.3004 139.615 42.4121 139.615 43.9251V49.6068H136.935V49.6377Z" fill="#606061"/>
<path d="M141.039 42.1188V39.8955H147.9V42.1188H141.039ZM146.261 49.7922C145.097 49.7922 144.194 49.4988 143.535 48.8967C142.892 48.2945 142.555 47.3991 142.555 46.2257V37.4869H145.434V46.1793C145.434 46.5962 145.542 46.9204 145.756 47.1675C145.97 47.3991 146.261 47.5226 146.629 47.5226C147.088 47.5226 147.486 47.3991 147.808 47.152L148.558 49.19C148.283 49.4062 147.93 49.5606 147.517 49.6686C147.104 49.7767 146.675 49.823 146.246 49.823V49.7922H146.261Z" fill="#606061"/>
<path d="M151.636 38.2744C151.1 38.2744 150.656 38.12 150.335 37.8112C149.998 37.5024 149.845 37.1164 149.845 36.6687C149.845 36.2209 150.013 35.835 150.335 35.5262C150.672 35.2174 151.1 35.063 151.636 35.063C152.172 35.063 152.601 35.2019 152.938 35.4953C153.275 35.7886 153.443 36.1592 153.443 36.6224C153.443 37.0856 153.275 37.5024 152.953 37.8112C152.617 38.12 152.188 38.2898 151.652 38.2898H151.636V38.2744ZM150.197 49.6378V39.6639H153.061V49.6378H150.197Z" fill="#606061"/>
<path d="M158.436 49.6378L154.286 39.6639H157.226L160.687 48.2483H159.217L162.815 39.6639H165.557L161.391 49.6378H158.436Z" fill="#606061"/>
<path d="M171.36 49.7921C170.227 49.7921 169.247 49.576 168.405 49.1282C167.563 48.6805 166.904 48.0783 166.445 47.3064C165.985 46.5344 165.74 45.6544 165.74 44.6662C165.74 43.6781 165.97 42.7981 166.414 42.0106C166.858 41.2387 167.486 40.6211 168.282 40.1888C169.079 39.7565 169.982 39.5249 170.993 39.5249C172.004 39.5249 172.83 39.7411 173.611 40.1579C174.392 40.5748 175.005 41.1769 175.464 41.9335C175.924 42.7054 176.138 43.6164 176.138 44.6971C176.138 44.8052 176.138 44.9287 176.123 45.0831C176.123 45.2221 176.092 45.361 176.092 45.4845H168.068V43.8016H174.592L173.474 44.2957C173.474 43.7707 173.382 43.323 173.183 42.937C172.968 42.551 172.693 42.2577 172.325 42.0415C171.958 41.8254 171.529 41.7173 171.039 41.7173C170.549 41.7173 170.12 41.8254 169.737 42.0415C169.37 42.2577 169.079 42.5665 168.864 42.9525C168.65 43.3384 168.558 43.8016 168.558 44.3266V44.7743C168.558 45.3301 168.68 45.8088 168.925 46.2256C169.17 46.6425 169.507 46.9513 169.936 47.1674C170.365 47.3836 170.886 47.4916 171.483 47.4916C172.004 47.4916 172.448 47.4145 172.846 47.2446C173.244 47.0902 173.611 46.8432 173.933 46.519L175.464 48.1864C175.005 48.7114 174.438 49.0973 173.749 49.3753C173.06 49.6532 172.279 49.7921 171.376 49.7921H171.36Z" fill="#606061"/>
<path d="M186.444 49.6378H183.443V36.6687H186.444V49.6378ZM192.493 44.3267H186.215V41.7946H192.493V44.3267ZM192.279 36.6687H195.25V49.6378H192.279V36.6687Z" fill="#606061"/>
<path d="M202.263 49.7921C201.437 49.7921 200.701 49.6378 200.058 49.3135C199.415 48.9893 198.925 48.4952 198.573 47.8313C198.221 47.1674 198.037 46.3183 198.037 45.3147V39.6793H200.901V44.867C200.901 45.7007 201.069 46.3183 201.421 46.7043C201.773 47.0902 202.263 47.291 202.907 47.291C203.351 47.291 203.734 47.1983 204.086 46.9976C204.423 46.7969 204.698 46.5035 204.897 46.1021C205.096 45.7007 205.204 45.2066 205.204 44.6199V39.6793H208.052V49.6532H205.326V46.8895L205.816 47.7078C205.479 48.4026 204.989 48.9275 204.346 49.2672C203.703 49.6223 203.014 49.7921 202.248 49.7921H202.263Z" fill="#606061"/>
<path d="M210.717 49.6378V35.8967H213.58V41.702L213.397 44.6509L213.458 47.6153V49.6533H210.717V49.6378ZM216.536 49.7922C215.694 49.7922 214.959 49.6069 214.316 49.2518C213.688 48.8813 213.198 48.3255 212.876 47.5535C212.554 46.7815 212.386 45.8243 212.386 44.6663C212.386 43.5084 212.554 42.5357 212.907 41.7792C213.259 41.0226 213.749 40.4668 214.361 40.0963C214.989 39.7257 215.709 39.5404 216.536 39.5404C217.485 39.5404 218.328 39.7566 219.063 40.1735C219.798 40.6058 220.395 41.1925 220.824 41.9644C221.253 42.7364 221.482 43.6319 221.482 44.6663C221.482 45.7008 221.268 46.6117 220.824 47.3682C220.395 48.1402 219.798 48.7269 219.063 49.1592C218.328 49.5915 217.485 49.7922 216.536 49.7922ZM216.061 47.4145C216.536 47.4145 216.965 47.3065 217.332 47.0903C217.7 46.8742 218.006 46.5499 218.236 46.1331C218.466 45.7162 218.573 45.2221 218.573 44.6509C218.573 44.0796 218.466 43.5701 218.236 43.1687C218.006 42.7673 217.715 42.443 217.332 42.2269C216.965 42.0107 216.536 41.9027 216.061 41.9027C215.587 41.9027 215.158 42.0107 214.775 42.2269C214.392 42.443 214.086 42.7518 213.871 43.1687C213.642 43.5701 213.535 44.0642 213.535 44.6509C213.535 45.2376 213.642 45.7162 213.871 46.1331C214.101 46.5499 214.407 46.8742 214.775 47.0903C215.158 47.3065 215.587 47.4145 216.061 47.4145Z" fill="#606061"/>
</g>
<defs>
<clipPath id="clip0_396_2060">
<rect width="319" height="52" fill="white"/>
</clipPath>
</defs>
</svg>
