<svg xmlns="http://www.w3.org/2000/svg" xmlns:xlink="http://www.w3.org/1999/xlink" xmlns:lucid="lucid" width="1348" height="426"><g transform="translate(-872 -215)" lucid:page-tab-id="0_0"><path d="M1749.36 380.5c16.57 0 30 13.43 30 30s-13.43 30-30 30h-140c-16.57 0-30-13.43-30-30s13.43-30 30-30z" stroke="#90d9da" stroke-width="2" fill="#00838f"/><use xlink:href="#a" transform="matrix(1,0,0,1,1584.3597427844302,385.5) translate(43.71111111111114 31.166666666666657)"/><path d="M1749.57 260c16.57 0 30 13.43 30 30s-13.43 30-30 30h-140c-16.56 0-30-13.43-30-30s13.44-30 30-30z" stroke="#90d9da" stroke-width="2" fill="#00838f"/><use xlink:href="#b" transform="matrix(1,0,0,1,1584.5731618562868,265) translate(68.28000000000002 31.166666666666657)"/><path d="M1969.57 520c16.57 0 30 13.43 30 30s-13.43 30-30 30H1830c-16.57 0-30-13.43-30-30s13.43-30 30-30z" stroke="#90d9da" stroke-width="2" fill="#00838f"/><use xlink:href="#c" transform="matrix(1,0,0,1,1805,525) translate(59.95111111111113 31.166666666666657)"/><path d="M1679.36 378.5v-28.14a.1.1 0 0 1 .1-.1.1.1 0 0 0 .1-.12v-27.32" stroke="#ffbd5a" stroke-width="2" fill="none"/><path d="M1680.34 379.5h-1.95l-.02-1.03h1.95z" stroke="#ffbd5a" stroke-width=".05" fill="#ffbd5a"/><path d="M1689.75 340.18l-10.18-17.22-10.18 17.22" stroke="#ffbd5a" stroke-width="2" fill="none"/><path d="M1529.57 520c16.57 0 30 13.43 30 30s-13.43 30-30 30H1390c-16.57 0-30-13.43-30-30s13.43-30 30-30z" stroke="#90d9da" stroke-width="2" fill="#00838f"/><use xlink:href="#d" transform="matrix(1,0,0,1,1365,525) translate(49.64888888888892 31.166666666666657)"/><path d="M1459.8 518v-31.75a6 6 0 0 1 6-6h207.56a6 6 0 0 0 6-6v-30.93" stroke="#ffbd5a" stroke-width="2" fill="none"/><path d="M1460.76 519h-1.95v-1.03h1.96z" stroke="#ffbd5a" stroke-width=".05" fill="#ffbd5a"/><path d="M1689.54 460.68l-10.18-17.22-10.18 17.22" stroke="#ffbd5a" stroke-width="2" fill="none"/><path d="M1899.8 518v-31.75a6 6 0 0 0-6-6h-208.44a6 6 0 0 1-6-6v-30.93" stroke="#ffbd5a" stroke-width="2" fill="none"/><path d="M1900.76 519h-1.95v-1.03h1.96z" stroke="#ffbd5a" stroke-width=".05" fill="#ffbd5a"/><path d="M1689.54 460.68l-10.18-17.22-10.18 17.22" stroke="#ffbd5a" stroke-width="2" fill="none"/><path d="M2129.15 380c16.57 0 30 13.43 30 30s-13.43 30-30 30h-139.58c-16.56 0-30-13.43-30-30s13.44-30 30-30z" stroke="#90d9da" stroke-width="2" fill="#00838f"/><use xlink:href="#e" transform="matrix(1,0,0,1,1964.5731618562868,385) translate(31.462222222222266 31.166666666666657)"/><use xlink:href="#f" transform="matrix(1,0,0,1,1964.5731618562868,385) translate(127.3733333333333 31.166666666666657)"/><path d="M2059.36 378v-22a6 6 0 0 0-6-6h-367.8a6 6 0 0 1-6-6v-21.18" stroke="#ffbd5a" stroke-width="2" fill="none"/><path d="M2060.34 379h-1.95v-1.03h1.93z" stroke="#ffbd5a" stroke-width=".05" fill="#ffbd5a"/><path d="M1689.75 340.18l-10.18-17.22-10.18 17.22" stroke="#ffbd5a" stroke-width="2" fill="none"/><path d="M1749.57 520c16.57 0 30 13.43 30 30s-13.43 30-30 30H1610c-16.57 0-30-13.43-30-30s13.43-30 30-30z" stroke="#90d9da" stroke-width="2" fill="#00838f"/><use xlink:href="#g" transform="matrix(1,0,0,1,1585,525) translate(57.32888888888891 31.166666666666657)"/><path d="M1679.8 518v-74.68" stroke="#ffbd5a" stroke-width="2" fill="none"/><path d="M1680.76 519h-1.95v-1.03h1.96z" stroke="#ffbd5a" stroke-width=".05" fill="#ffbd5a"/><path d="M1689.97 460.68l-10.18-17.22-10.2 17.22M1918.46 518V356a6 6 0 0 0-6-6h-226.9a6 6 0 0 1-6-6v-21.18" stroke="#ffbd5a" stroke-width="2" fill="none"/><path d="M1919.43 519h-1.95v-1.03h1.95z" stroke="#ffbd5a" stroke-width=".05" fill="#ffbd5a"/><path d="M1689.75 340.18l-10.18-17.22-10.18 17.22M1679.36 443.32v30.93a6 6 0 0 1-6 6H1025.8a6 6 0 0 0-6 6V518" stroke="#ffbd5a" stroke-width="2" fill="none"/><path d="M1689.54 460.68l-10.18-17.22-10.18 17.22" stroke="#ffbd5a" stroke-width="2" fill="none"/><path d="M1020.76 519h-1.95v-1.03h1.96z" stroke="#ffbd5a" stroke-width=".05" fill="#ffbd5a"/><path d="M1089.57 520c16.57 0 30 13.43 30 30s-13.43 30-30 30H950c-16.57 0-30-13.43-30-30s13.43-30 30-30z" stroke="#90d9da" stroke-width="2" fill="#00838f"/><use xlink:href="#h" transform="matrix(1,0,0,1,925,525) translate(46.33333333333336 31.166666666666657)"/><path d="M1679.36 443.32V474a6 6 0 0 1-6 6H1245.8a6 6 0 0 0-6 6v32" stroke="#ffbd5a" stroke-width="2" fill="none"/><path d="M1689.54 460.68l-10.18-17.22-10.18 17.22" stroke="#ffbd5a" stroke-width="2" fill="none"/><path d="M1240.76 519h-1.95v-1.03h1.96z" stroke="#ffbd5a" stroke-width=".05" fill="#ffbd5a"/><path d="M1309.57 520c16.57 0 30 13.43 30 30s-13.43 30-30 30H1170c-16.57 0-30-13.43-30-30s13.43-30 30-30z" stroke="#90d9da" stroke-width="2" fill="#00838f"/><use xlink:href="#i" transform="matrix(1,0,0,1,1145,525) translate(0.09333333333339056 31.416666666666657)"/><use xlink:href="#j" transform="matrix(1,0,0,1,1145,525) translate(101.19555555555556 31.416666666666657)"/><defs><path fill="#fff" d="M597-476c0 147-103 223-258 224H233V0H62v-702h277c156 1 258 75 258 226zm-364 88c95 3 190 9 190-88 0-96-95-91-190-88v176" id="k"/><path fill="#fff" d="M28-280c0-165 87-279 246-286 80-1 142 37 172 87v-79h171V0H446v-79C414-29 354 9 273 8 115 0 28-115 28-280zm418 1c0-78-50-138-122-138s-122 59-122 137 50 139 122 139 122-60 122-138" id="l"/><path fill="#fff" d="M408-383c-110-6-175 15-175 124V0H62v-558h171v93c35-54 92-98 175-99v181" id="m"/><path fill="#fff" d="M260-192c-6 59 60 46 113 47V0C201 12 89-26 89-194v-222H21v-142h68v-136h171v136h112v142H260v224" id="n"/><path fill="#fff" d="M148-616c-56 2-103-39-102-92-1-54 46-95 102-93 55-2 102 39 101 93 1 53-46 94-101 92zm85 58V0H62v-558h171" id="o"/><path fill="#fff" d="M28-279c0-177 105-283 280-287 146 0 242 85 268 210H394c-15-43-45-64-89-64-71 2-104 61-103 141-1 80 32 139 103 141 44 0 74-21 89-64h182C550-79 452 8 308 8 133 4 28-102 28-279" id="p"/><path fill="#fff" d="M233-479c32-50 91-88 172-87 159 7 246 121 246 286C651-114 564 1 405 8c-79 1-140-38-172-86v344H62v-824h171v79zm244 199c0-79-50-137-123-137-72 0-122 60-122 138s50 138 122 138 123-61 123-139" id="q"/><path fill="#fff" d="M402-564c135-1 215 98 215 238V0H447v-303c1-71-39-118-107-118s-107 47-107 118V0H62v-558h171v74c32-46 93-80 169-80" id="r"/><g id="a"><use transform="matrix(0.017777777777777767,0,0,0.017777777777777767,0,0)" xlink:href="#k"/><use transform="matrix(0.017777777777777767,0,0,0.017777777777777767,11.093333333333327,0)" xlink:href="#l"/><use transform="matrix(0.017777777777777767,0,0,0.017777777777777767,23.16444444444443,0)" xlink:href="#m"/><use transform="matrix(0.017777777777777767,0,0,0.017777777777777767,30.773333333333316,0)" xlink:href="#n"/><use transform="matrix(0.017777777777777767,0,0,0.017777777777777767,37.99111111111109,0)" xlink:href="#o"/><use transform="matrix(0.017777777777777767,0,0,0.017777777777777767,43.23555555555553,0)" xlink:href="#p"/><use transform="matrix(0.017777777777777767,0,0,0.017777777777777767,53.99111111111108,0)" xlink:href="#o"/><use transform="matrix(0.017777777777777767,0,0,0.017777777777777767,59.23555555555552,0)" xlink:href="#q"/><use transform="matrix(0.017777777777777767,0,0,0.017777777777777767,71.30666666666663,0)" xlink:href="#l"/><use transform="matrix(0.017777777777777767,0,0,0.017777777777777767,83.37777777777775,0)" xlink:href="#r"/><use transform="matrix(0.017777777777777767,0,0,0.017777777777777767,95.35999999999996,0)" xlink:href="#n"/></g><path fill="#fff" d="M572-209C566-68 464 7 316 7 162 7 51-63 42-210h182c4 49 36 76 87 80 67 5 108-64 65-109-46-46-169-63-227-95-55-31-107-81-105-169-1-136 115-211 256-209 147-2 257 74 263 210H378c-2-45-37-73-84-73-70 0-93 86-37 117 43 24 167 59 211 85 54 28 106 79 104 164" id="s"/><path fill="#fff" d="M334-137c69 0 108-47 108-118v-303h171V0H442v-76C410-30 348 6 273 6 133 3 57-89 57-232v-326h170v303c-1 71 39 118 107 118" id="t"/><path fill="#fff" d="M28-280c0-165 87-279 246-286 77 0 141 37 172 85v-259h171V0H446v-80C416-29 354 9 274 8 115 1 28-114 28-280zm418 1c0-78-50-138-122-138s-122 59-122 137 50 139 122 139 122-60 122-138" id="u"/><path fill="#fff" d="M632-558L282 265H98L226-19-1-558h191l129 349 128-349h185" id="v"/><g id="b"><use transform="matrix(0.017777777777777767,0,0,0.017777777777777767,0,0)" xlink:href="#s"/><use transform="matrix(0.017777777777777767,0,0,0.017777777777777767,10.933333333333326,0)" xlink:href="#n"/><use transform="matrix(0.017777777777777767,0,0,0.017777777777777767,18.1511111111111,0)" xlink:href="#t"/><use transform="matrix(0.017777777777777767,0,0,0.017777777777777767,30.133333333333315,0)" xlink:href="#u"/><use transform="matrix(0.017777777777777767,0,0,0.017777777777777767,42.20444444444442,0)" xlink:href="#v"/></g><path fill="#fff" d="M774-564c140-1 227 94 227 238V0H831v-303c1-70-39-113-107-113s-108 43-107 113V0H447v-303c1-70-39-113-107-113s-108 43-107 113V0H62v-558h171v70c32-44 89-76 163-76 90 0 157 43 190 104 34-55 103-104 188-104" id="w"/><path fill="#fff" d="M233-740V0H62v-740h171" id="x"/><path fill="#fff" d="M310-566c187 0 295 127 275 328H198c3 63 44 106 106 107 43 0 72-18 89-54h182C543-71 453 8 310 8 135 8 28-102 28-279c0-178 106-287 282-287zm103 233c7-88-116-125-177-71-20 17-32 40-37 71h214" id="y"/><g id="c"><use transform="matrix(0.017777777777777767,0,0,0.017777777777777767,0,0)" xlink:href="#s"/><use transform="matrix(0.017777777777777767,0,0,0.017777777777777767,10.933333333333326,0)" xlink:href="#l"/><use transform="matrix(0.017777777777777767,0,0,0.017777777777777767,23.00444444444443,0)" xlink:href="#w"/><use transform="matrix(0.017777777777777767,0,0,0.017777777777777767,41.831111111111085,0)" xlink:href="#q"/><use transform="matrix(0.017777777777777767,0,0,0.017777777777777767,53.90222222222219,0)" xlink:href="#x"/><use transform="matrix(0.017777777777777767,0,0,0.017777777777777767,59.14666666666663,0)" xlink:href="#y"/></g><path fill="#fff" d="M325-702c225 4 368 129 368 351C693-130 549 0 325 0H62v-702h263zm-11 554c128 1 206-75 205-203 1-128-77-206-205-205h-81v408h81" id="z"/><path fill="#fff" d="M274-566c80-1 142 37 172 87v-79h171V-1c-4 172-101 274-279 276-157 2-275-80-289-217h169c10 44 56 70 112 69 76-1 118-45 116-128v-79C414-31 355 9 274 8 115 1 28-114 28-280c0-165 87-279 246-286zm172 287c0-78-50-138-122-138s-122 59-122 137 50 139 122 139 122-60 122-138" id="A"/><path fill="#fff" d="M316 8C140 8 28-101 28-279c0-177 114-287 290-287s290 110 290 287S492 8 316 8zm0-148c72-1 118-59 118-139s-44-138-116-139c-73 1-116 57-116 139 0 80 42 138 114 139" id="B"/><path fill="#fff" d="M515-162C519 46 156 50 69-86c-22-29-34-61-37-97h169c3 39 42 65 86 65 58 0 93-56 42-80-109-45-283-39-279-195 6-119 100-171 227-173 134-2 223 73 235 190H354c-5-39-37-63-82-63-57 0-86 57-36 79 115 44 279 42 279 198" id="C"/><g id="d"><use transform="matrix(0.017777777777777767,0,0,0.017777777777777767,0,0)" xlink:href="#z"/><use transform="matrix(0.017777777777777767,0,0,0.017777777777777767,12.924444444444436,0)" xlink:href="#o"/><use transform="matrix(0.017777777777777767,0,0,0.017777777777777767,18.16888888888888,0)" xlink:href="#l"/><use transform="matrix(0.017777777777777767,0,0,0.017777777777777767,30.23999999999998,0)" xlink:href="#A"/><use transform="matrix(0.017777777777777767,0,0,0.017777777777777767,42.31111111111109,0)" xlink:href="#r"/><use transform="matrix(0.017777777777777767,0,0,0.017777777777777767,54.29333333333331,0)" xlink:href="#B"/><use transform="matrix(0.017777777777777767,0,0,0.017777777777777767,65.61777777777775,0)" xlink:href="#C"/><use transform="matrix(0.017777777777777767,0,0,0.017777777777777767,75.53777777777773,0)" xlink:href="#o"/><use transform="matrix(0.017777777777777767,0,0,0.017777777777777767,80.78222222222217,0)" xlink:href="#C"/></g><path fill="#fff" d="M607-481c0 106-65 178-156 203L613 0H420L274-265h-41V0H62v-702h287c154 1 258 75 258 221zm-174 7c0-56-35-87-94-86H233v174h106c60 1 94-30 94-88" id="D"/><path fill="#fff" d="M339-638c-66-4-89 16-89 80h92v142h-92V0H79v-416H17v-142h62c-7-163 93-235 260-225v145" id="E"/><g id="e"><use transform="matrix(0.017777777777777767,0,0,0.017777777777777767,0,0)" xlink:href="#D"/><use transform="matrix(0.017777777777777767,0,0,0.017777777777777767,11.591111111111104,0)" xlink:href="#y"/><use transform="matrix(0.017777777777777767,0,0,0.017777777777777767,22.542222222222208,0)" xlink:href="#E"/><use transform="matrix(0.017777777777777767,0,0,0.017777777777777767,28.942222222222203,0)" xlink:href="#y"/><use transform="matrix(0.017777777777777767,0,0,0.017777777777777767,39.89333333333331,0)" xlink:href="#m"/><use transform="matrix(0.017777777777777767,0,0,0.017777777777777767,47.502222222222194,0)" xlink:href="#y"/><use transform="matrix(0.017777777777777767,0,0,0.017777777777777767,58.4533333333333,0)" xlink:href="#r"/><use transform="matrix(0.017777777777777767,0,0,0.017777777777777767,70.43555555555551,0)" xlink:href="#p"/><use transform="matrix(0.017777777777777767,0,0,0.017777777777777767,81.19111111111107,0)" xlink:href="#y"/></g><path fill="#fff" d="M519-702v137H233v148h214v133H233V0H62v-702h457" id="F"/><g id="f"><use transform="matrix(0.017777777777777767,0,0,0.017777777777777767,0,0)" xlink:href="#F"/><use transform="matrix(0.017777777777777767,0,0,0.017777777777777767,9.724444444444439,0)" xlink:href="#o"/><use transform="matrix(0.017777777777777767,0,0,0.017777777777777767,14.96888888888888,0)" xlink:href="#x"/><use transform="matrix(0.017777777777777767,0,0,0.017777777777777767,20.213333333333324,0)" xlink:href="#y"/></g><path fill="#fff" d="M313-160l121-398h182L418 0H207L9-558h183" id="G"/><g id="g"><use transform="matrix(0.017777777777777767,0,0,0.017777777777777767,0,0)" xlink:href="#s"/><use transform="matrix(0.017777777777777767,0,0,0.017777777777777767,10.933333333333326,0)" xlink:href="#t"/><use transform="matrix(0.017777777777777767,0,0,0.017777777777777767,22.915555555555542,0)" xlink:href="#m"/><use transform="matrix(0.017777777777777767,0,0,0.017777777777777767,30.524444444444427,0)" xlink:href="#G"/><use transform="matrix(0.017777777777777767,0,0,0.017777777777777767,41.65333333333331,0)" xlink:href="#o"/><use transform="matrix(0.017777777777777767,0,0,0.017777777777777767,46.89777777777775,0)" xlink:href="#G"/><use transform="matrix(0.017777777777777767,0,0,0.017777777777777767,58.02666666666662,0)" xlink:href="#l"/><use transform="matrix(0.017777777777777767,0,0,0.017777777777777767,70.09777777777774,0)" xlink:href="#x"/></g><path fill="#fff" d="M567-702v137H381V0H210v-565H24v-137h543" id="H"/><g id="h"><use transform="matrix(0.017777777777777767,0,0,0.017777777777777767,0,0)" xlink:href="#H"/><use transform="matrix(0.017777777777777767,0,0,0.017777777777777767,10.50666666666666,0)" xlink:href="#m"/><use transform="matrix(0.017777777777777767,0,0,0.017777777777777767,18.115555555555545,0)" xlink:href="#y"/><use transform="matrix(0.017777777777777767,0,0,0.017777777777777767,29.06666666666665,0)" xlink:href="#l"/><use transform="matrix(0.017777777777777767,0,0,0.017777777777777767,41.13777777777776,0)" xlink:href="#n"/><use transform="matrix(0.017777777777777767,0,0,0.017777777777777767,48.35555555555553,0)" xlink:href="#w"/><use transform="matrix(0.017777777777777767,0,0,0.017777777777777767,67.1822222222222,0)" xlink:href="#y"/><use transform="matrix(0.017777777777777767,0,0,0.017777777777777767,78.1333333333333,0)" xlink:href="#r"/><use transform="matrix(0.017777777777777767,0,0,0.017777777777777767,90.11555555555552,0)" xlink:href="#n"/></g><g id="i"><use transform="matrix(0.017777777777777767,0,0,0.017777777777777767,0,0)" xlink:href="#H"/><use transform="matrix(0.017777777777777767,0,0,0.017777777777777767,10.50666666666666,0)" xlink:href="#m"/><use transform="matrix(0.017777777777777767,0,0,0.017777777777777767,18.115555555555545,0)" xlink:href="#y"/><use transform="matrix(0.017777777777777767,0,0,0.017777777777777767,29.06666666666665,0)" xlink:href="#l"/><use transform="matrix(0.017777777777777767,0,0,0.017777777777777767,41.13777777777776,0)" xlink:href="#n"/><use transform="matrix(0.017777777777777767,0,0,0.017777777777777767,48.35555555555553,0)" xlink:href="#w"/><use transform="matrix(0.017777777777777767,0,0,0.017777777777777767,67.1822222222222,0)" xlink:href="#y"/><use transform="matrix(0.017777777777777767,0,0,0.017777777777777767,78.1333333333333,0)" xlink:href="#r"/><use transform="matrix(0.017777777777777767,0,0,0.017777777777777767,90.11555555555552,0)" xlink:href="#n"/></g><g id="j"><use transform="matrix(0.017777777777777767,0,0,0.017777777777777767,0,0)" xlink:href="#D"/><use transform="matrix(0.017777777777777767,0,0,0.017777777777777767,11.591111111111104,0)" xlink:href="#y"/><use transform="matrix(0.017777777777777767,0,0,0.017777777777777767,22.542222222222208,0)" xlink:href="#C"/><use transform="matrix(0.017777777777777767,0,0,0.017777777777777767,32.4622222222222,0)" xlink:href="#q"/><use transform="matrix(0.017777777777777767,0,0,0.017777777777777767,44.533333333333296,0)" xlink:href="#B"/><use transform="matrix(0.017777777777777767,0,0,0.017777777777777767,55.85777777777775,0)" xlink:href="#r"/><use transform="matrix(0.017777777777777767,0,0,0.017777777777777767,67.83999999999996,0)" xlink:href="#C"/><use transform="matrix(0.017777777777777767,0,0,0.017777777777777767,77.75999999999995,0)" xlink:href="#y"/></g></defs></g></svg>