<svg width="703" height="364" viewBox="0 0 703 364" fill="none" xmlns="http://www.w3.org/2000/svg">
<rect x="194" y="1" width="164" height="54" rx="20" fill="#00838F"/>
<rect x="194" y="1" width="164" height="54" rx="20" stroke="#90D9DA" stroke-width="2"/>
<path d="M256.289 33.112C255.51 33.112 254.806 32.9787 254.177 32.712C253.558 32.4453 253.067 32.0613 252.705 31.56C252.342 31.0587 252.155 30.4667 252.145 29.784H254.545C254.577 30.2427 254.737 30.6053 255.025 30.872C255.323 31.1387 255.729 31.272 256.241 31.272C256.763 31.272 257.174 31.1493 257.473 30.904C257.771 30.648 257.921 30.3173 257.921 29.912C257.921 29.5813 257.819 29.3093 257.617 29.096C257.414 28.8827 257.158 28.7173 256.849 28.6C256.55 28.472 256.134 28.3333 255.601 28.184C254.875 27.9707 254.283 27.7627 253.825 27.56C253.377 27.3467 252.987 27.032 252.657 26.616C252.337 26.1893 252.177 25.624 252.177 24.92C252.177 24.2587 252.342 23.6827 252.673 23.192C253.003 22.7013 253.467 22.328 254.065 22.072C254.662 21.8053 255.345 21.672 256.113 21.672C257.265 21.672 258.198 21.9547 258.913 22.52C259.638 23.0747 260.038 23.8533 260.113 24.856H257.649C257.627 24.472 257.462 24.1573 257.153 23.912C256.854 23.656 256.454 23.528 255.953 23.528C255.515 23.528 255.163 23.64 254.897 23.864C254.641 24.088 254.513 24.4133 254.513 24.84C254.513 25.1387 254.609 25.3893 254.801 25.592C255.003 25.784 255.249 25.944 255.537 26.072C255.835 26.1893 256.251 26.328 256.785 26.488C257.51 26.7013 258.102 26.9147 258.561 27.128C259.019 27.3413 259.414 27.6613 259.745 28.088C260.075 28.5147 260.241 29.0747 260.241 29.768C260.241 30.3653 260.086 30.92 259.777 31.432C259.467 31.944 259.014 32.3547 258.417 32.664C257.819 32.9627 257.11 33.112 256.289 33.112ZM265.111 25.976V30.264C265.111 30.5627 265.18 30.7813 265.319 30.92C265.468 31.048 265.713 31.112 266.055 31.112H267.095V33H265.687C263.799 33 262.855 32.0827 262.855 30.248V25.976H261.799V24.136H262.855V21.944H265.111V24.136H267.095V25.976H265.111ZM277.394 24.136V33H275.138V31.88C274.85 32.264 274.471 32.568 274.002 32.792C273.543 33.0053 273.042 33.112 272.498 33.112C271.805 33.112 271.191 32.968 270.658 32.68C270.125 32.3813 269.703 31.9493 269.394 31.384C269.095 30.808 268.946 30.1253 268.946 29.336V24.136H271.186V29.016C271.186 29.72 271.362 30.264 271.714 30.648C272.066 31.0213 272.546 31.208 273.154 31.208C273.773 31.208 274.258 31.0213 274.61 30.648C274.962 30.264 275.138 29.72 275.138 29.016V24.136H277.394ZM279.348 28.536C279.348 27.64 279.524 26.8453 279.876 26.152C280.239 25.4587 280.729 24.9253 281.348 24.552C281.967 24.1787 282.655 23.992 283.412 23.992C283.988 23.992 284.537 24.12 285.06 24.376C285.583 24.6213 285.999 24.952 286.308 25.368V21.16H288.58V33H286.308V31.688C286.031 32.1253 285.641 32.4773 285.14 32.744C284.639 33.0107 284.057 33.144 283.396 33.144C282.649 33.144 281.967 32.952 281.348 32.568C280.729 32.184 280.239 31.6453 279.876 30.952C279.524 30.248 279.348 29.4427 279.348 28.536ZM286.324 28.568C286.324 28.024 286.217 27.56 286.004 27.176C285.791 26.7813 285.503 26.4827 285.14 26.28C284.777 26.0667 284.388 25.96 283.972 25.96C283.556 25.96 283.172 26.0613 282.82 26.264C282.468 26.4667 282.18 26.7653 281.956 27.16C281.743 27.544 281.636 28.0027 281.636 28.536C281.636 29.0693 281.743 29.5387 281.956 29.944C282.18 30.3387 282.468 30.6427 282.82 30.856C283.183 31.0693 283.567 31.176 283.972 31.176C284.388 31.176 284.777 31.0747 285.14 30.872C285.503 30.6587 285.791 30.36 286.004 29.976C286.217 29.5813 286.324 29.112 286.324 28.568ZM299.568 24.136L294.08 37.192H291.696L293.616 32.776L290.064 24.136H292.576L294.864 30.328L297.184 24.136H299.568Z" fill="white"/>
<path d="M620 160.999L618.5 160.999V160.999L620 160.999ZM277.062 64.9387C276.476 64.3529 275.526 64.3529 274.941 64.9387L265.395 74.4845C264.809 75.0702 264.809 76.02 265.394 76.6058C265.98 77.1916 266.93 77.1916 267.516 76.6058L276.001 68.1207L284.486 76.6061C285.072 77.1919 286.022 77.1919 286.608 76.6061C287.193 76.0204 287.193 75.0706 286.608 74.4848L277.062 64.9387ZM276 120.999L274.5 120.999L276 120.999ZM618.5 160.999L618.5 184L621.5 184L621.5 160.999L618.5 160.999ZM274.501 65.9993L274.5 120.999L277.5 120.999L277.501 65.9994L274.501 65.9993ZM296 142.499L600 142.499L600 139.499L296 139.499L296 142.499ZM274.5 120.999C274.5 132.873 284.126 142.499 296 142.499L296 139.499C285.783 139.499 277.5 131.216 277.5 120.999L274.5 120.999ZM621.5 160.999C621.5 149.125 611.874 139.499 600 139.499L600 142.499C610.217 142.499 618.5 150.782 618.5 160.999L621.5 160.999Z" fill="#FFBD5A"/>
<path d="M277.062 227.939C276.476 227.353 275.526 227.353 274.941 227.939L265.394 237.485C264.809 238.071 264.809 239.02 265.394 239.606C265.98 240.192 266.93 240.192 267.516 239.606L276.001 231.121L284.486 239.607C285.072 240.193 286.022 240.193 286.608 239.607C287.193 239.021 287.193 238.071 286.608 237.486L277.062 227.939ZM276.001 252.999L277.501 252.999L276.001 252.999ZM450 293L448.5 293L448.5 293L450 293ZM274.501 229L274.501 252.999L277.501 252.999L277.501 229L274.501 229ZM296.001 274.5L430 274.5L430 271.5L296.001 271.5L296.001 274.5ZM448.5 293L448.5 307.5L451.5 307.5L451.5 293L448.5 293ZM274.501 252.999C274.5 264.874 284.126 274.5 296.001 274.5L296.001 271.5C285.783 271.5 277.5 263.217 277.501 252.999L274.501 252.999ZM430 274.5C440.217 274.5 448.5 282.783 448.5 293L451.5 293C451.5 281.126 441.874 271.5 430 271.5L430 274.5Z" fill="#FFBD5A"/>
<path d="M274.938 227.939C275.524 227.354 276.473 227.354 277.059 227.939L286.605 237.485C287.191 238.071 287.191 239.02 286.606 239.606C286.02 240.192 285.07 240.192 284.484 239.606L275.999 231.121L267.514 239.607C266.928 240.193 265.978 240.193 265.392 239.607C264.807 239.021 264.807 238.071 265.392 237.486L274.938 227.939ZM275.999 253.279L277.499 253.279L275.999 253.279ZM84 293.28L82.5 293.28L84 293.28ZM277.499 229L277.499 253.279L274.499 253.279L274.499 229L277.499 229ZM255.999 274.78L104 274.78L104 271.78L255.999 271.78L255.999 274.78ZM85.5 293.28L85.5 308L82.5 308L82.5 293.28L85.5 293.28ZM277.499 253.279C277.5 265.154 267.874 274.78 255.999 274.78L255.999 271.78C266.217 271.78 274.5 263.497 274.499 253.279L277.499 253.279ZM104 274.78C93.7828 274.78 85.5 283.063 85.5 293.28L82.5 293.28C82.5 281.406 92.1259 271.78 104 271.78L104 274.78Z" fill="#FFBD5A"/>
<path d="M469 160.997L470.5 160.997L469 160.997ZM277.061 64.9377C276.476 64.3518 275.526 64.3518 274.94 64.9376L265.394 74.4835C264.808 75.0693 264.808 76.019 265.394 76.6048C265.98 77.1906 266.93 77.1906 267.515 76.6048L276.001 68.1196L284.486 76.605C285.072 77.1908 286.021 77.1908 286.607 76.605C287.193 76.0192 287.193 75.0695 286.607 74.4837L277.061 64.9377ZM276 120.997L277.5 120.997L276 120.997ZM467.5 160.997L467.5 329L470.5 329L470.5 160.997L467.5 160.997ZM274.501 65.9983L274.5 120.997L277.5 120.997L277.501 65.9983L274.501 65.9983ZM296 142.497L449 142.497L449 139.497L296 139.497L296 142.497ZM274.5 120.997C274.5 132.871 284.126 142.497 296 142.497L296 139.497C285.783 139.497 277.5 131.214 277.5 120.997L274.5 120.997ZM470.5 160.997C470.5 149.123 460.874 139.497 449 139.497L449 142.497C459.217 142.497 467.5 150.78 467.5 160.997L470.5 160.997Z" fill="#FFBD5A"/>
<path d="M277.061 64.9393C276.475 64.3536 275.525 64.3536 274.939 64.9393L265.393 74.4853C264.808 75.0711 264.808 76.0208 265.393 76.6066C265.979 77.1924 266.929 77.1924 267.515 76.6066L276 68.1213L284.485 76.6066C285.071 77.1924 286.021 77.1924 286.607 76.6066C287.192 76.0208 287.192 75.0711 286.607 74.4853L277.061 64.9393ZM274.5 66L274.5 183H277.5L277.5 66L274.5 66Z" fill="#FFBD5A"/>
<path d="M277.062 227.939C276.476 227.354 275.526 227.354 274.941 227.939L265.395 237.485C264.809 238.071 264.809 239.021 265.395 239.607C265.98 240.192 266.93 240.192 267.516 239.607L276.001 231.121L284.487 239.607C285.072 240.192 286.022 240.192 286.608 239.607C287.194 239.021 287.194 238.071 286.608 237.485L277.062 227.939ZM274.501 229L274.501 336L277.501 336L277.501 229L274.501 229Z" fill="#FFBD5A"/>
<rect x="387" y="308" width="164" height="54" rx="20" fill="#00838F"/>
<rect x="387" y="308" width="164" height="54" rx="20" stroke="#90D9DA" stroke-width="2"/>
<path d="M441.394 340.112C440.616 340.112 439.912 339.979 439.282 339.712C438.664 339.445 438.173 339.061 437.81 338.56C437.448 338.059 437.261 337.467 437.25 336.784H439.65C439.682 337.243 439.842 337.605 440.13 337.872C440.429 338.139 440.834 338.272 441.346 338.272C441.869 338.272 442.28 338.149 442.578 337.904C442.877 337.648 443.026 337.317 443.026 336.912C443.026 336.581 442.925 336.309 442.722 336.096C442.52 335.883 442.264 335.717 441.954 335.6C441.656 335.472 441.24 335.333 440.706 335.184C439.981 334.971 439.389 334.763 438.93 334.56C438.482 334.347 438.093 334.032 437.762 333.616C437.442 333.189 437.282 332.624 437.282 331.92C437.282 331.259 437.448 330.683 437.778 330.192C438.109 329.701 438.573 329.328 439.17 329.072C439.768 328.805 440.45 328.672 441.218 328.672C442.37 328.672 443.304 328.955 444.018 329.52C444.744 330.075 445.144 330.853 445.218 331.856H442.754C442.733 331.472 442.568 331.157 442.258 330.912C441.96 330.656 441.56 330.528 441.058 330.528C440.621 330.528 440.269 330.64 440.002 330.864C439.746 331.088 439.618 331.413 439.618 331.84C439.618 332.139 439.714 332.389 439.906 332.592C440.109 332.784 440.354 332.944 440.642 333.072C440.941 333.189 441.357 333.328 441.89 333.488C442.616 333.701 443.208 333.915 443.666 334.128C444.125 334.341 444.52 334.661 444.85 335.088C445.181 335.515 445.346 336.075 445.346 336.768C445.346 337.365 445.192 337.92 444.882 338.432C444.573 338.944 444.12 339.355 443.522 339.664C442.925 339.963 442.216 340.112 441.394 340.112ZM447.032 335.536C447.032 334.64 447.208 333.845 447.56 333.152C447.923 332.459 448.408 331.925 449.016 331.552C449.635 331.179 450.323 330.992 451.08 330.992C451.742 330.992 452.318 331.125 452.808 331.392C453.31 331.659 453.71 331.995 454.008 332.4V331.136H456.264V340H454.008V338.704C453.72 339.12 453.32 339.467 452.808 339.744C452.307 340.011 451.726 340.144 451.064 340.144C450.318 340.144 449.635 339.952 449.016 339.568C448.408 339.184 447.923 338.645 447.56 337.952C447.208 337.248 447.032 336.443 447.032 335.536ZM454.008 335.568C454.008 335.024 453.902 334.56 453.688 334.176C453.475 333.781 453.187 333.483 452.824 333.28C452.462 333.067 452.072 332.96 451.656 332.96C451.24 332.96 450.856 333.061 450.504 333.264C450.152 333.467 449.864 333.765 449.64 334.16C449.427 334.544 449.32 335.003 449.32 335.536C449.32 336.069 449.427 336.539 449.64 336.944C449.864 337.339 450.152 337.643 450.504 337.856C450.867 338.069 451.251 338.176 451.656 338.176C452.072 338.176 452.462 338.075 452.824 337.872C453.187 337.659 453.475 337.36 453.688 336.976C453.902 336.581 454.008 336.112 454.008 335.568ZM469.78 331.008C470.868 331.008 471.743 331.344 472.404 332.016C473.076 332.677 473.412 333.605 473.412 334.8V340H471.172V335.104C471.172 334.411 470.996 333.883 470.644 333.52C470.292 333.147 469.812 332.96 469.204 332.96C468.596 332.96 468.111 333.147 467.748 333.52C467.396 333.883 467.22 334.411 467.22 335.104V340H464.98V335.104C464.98 334.411 464.804 333.883 464.452 333.52C464.1 333.147 463.62 332.96 463.012 332.96C462.393 332.96 461.903 333.147 461.54 333.52C461.188 333.883 461.012 334.411 461.012 335.104V340H458.772V331.136H461.012V332.208C461.3 331.835 461.668 331.541 462.116 331.328C462.575 331.115 463.076 331.008 463.62 331.008C464.313 331.008 464.932 331.157 465.476 331.456C466.02 331.744 466.441 332.16 466.74 332.704C467.028 332.192 467.444 331.781 467.988 331.472C468.543 331.163 469.14 331.008 469.78 331.008ZM478.098 332.416C478.386 332.011 478.78 331.675 479.282 331.408C479.794 331.131 480.375 330.992 481.026 330.992C481.783 330.992 482.466 331.179 483.074 331.552C483.692 331.925 484.178 332.459 484.53 333.152C484.892 333.835 485.074 334.629 485.074 335.536C485.074 336.443 484.892 337.248 484.53 337.952C484.178 338.645 483.692 339.184 483.074 339.568C482.466 339.952 481.783 340.144 481.026 340.144C480.375 340.144 479.799 340.011 479.298 339.744C478.807 339.477 478.407 339.141 478.098 338.736V344.224H475.858V331.136H478.098V332.416ZM482.786 335.536C482.786 335.003 482.674 334.544 482.45 334.16C482.236 333.765 481.948 333.467 481.586 333.264C481.234 333.061 480.85 332.96 480.434 332.96C480.028 332.96 479.644 333.067 479.282 333.28C478.93 333.483 478.642 333.781 478.418 334.176C478.204 334.571 478.098 335.035 478.098 335.568C478.098 336.101 478.204 336.565 478.418 336.96C478.642 337.355 478.93 337.659 479.282 337.872C479.644 338.075 480.028 338.176 480.434 338.176C480.85 338.176 481.234 338.069 481.586 337.856C481.948 337.643 482.236 337.339 482.45 336.944C482.674 336.549 482.786 336.08 482.786 335.536ZM489.261 328.16V340H487.021V328.16H489.261ZM500.035 335.376C500.035 335.696 500.013 335.984 499.971 336.24H493.491C493.544 336.88 493.768 337.381 494.163 337.744C494.557 338.107 495.043 338.288 495.619 338.288C496.451 338.288 497.043 337.931 497.395 337.216H499.811C499.555 338.069 499.064 338.773 498.339 339.328C497.613 339.872 496.723 340.144 495.667 340.144C494.813 340.144 494.045 339.957 493.363 339.584C492.691 339.2 492.163 338.661 491.779 337.968C491.405 337.275 491.219 336.475 491.219 335.568C491.219 334.651 491.405 333.845 491.779 333.152C492.152 332.459 492.675 331.925 493.347 331.552C494.019 331.179 494.792 330.992 495.667 330.992C496.509 330.992 497.261 331.173 497.923 331.536C498.595 331.899 499.112 332.416 499.475 333.088C499.848 333.749 500.035 334.512 500.035 335.376ZM497.715 334.736C497.704 334.16 497.496 333.701 497.091 333.36C496.685 333.008 496.189 332.832 495.603 332.832C495.048 332.832 494.579 333.003 494.195 333.344C493.821 333.675 493.592 334.139 493.507 334.736H497.715Z" fill="white"/>
<rect x="194" y="308" width="164" height="54" rx="20" fill="#00838F"/>
<rect x="194" y="308" width="164" height="54" rx="20" stroke="#90D9DA" stroke-width="2"/>
<path d="M246.488 340.112C245.71 340.112 245.006 339.979 244.376 339.712C243.758 339.445 243.267 339.061 242.904 338.56C242.542 338.059 242.355 337.467 242.344 336.784H244.744C244.776 337.243 244.936 337.605 245.224 337.872C245.523 338.139 245.928 338.272 246.44 338.272C246.963 338.272 247.374 338.149 247.672 337.904C247.971 337.648 248.12 337.317 248.12 336.912C248.12 336.581 248.019 336.309 247.816 336.096C247.614 335.883 247.358 335.717 247.048 335.6C246.75 335.472 246.334 335.333 245.8 335.184C245.075 334.971 244.483 334.763 244.024 334.56C243.576 334.347 243.187 334.032 242.856 333.616C242.536 333.189 242.376 332.624 242.376 331.92C242.376 331.259 242.542 330.683 242.872 330.192C243.203 329.701 243.667 329.328 244.264 329.072C244.862 328.805 245.544 328.672 246.312 328.672C247.464 328.672 248.398 328.955 249.112 329.52C249.838 330.075 250.238 330.853 250.312 331.856H247.848C247.827 331.472 247.662 331.157 247.352 330.912C247.054 330.656 246.654 330.528 246.152 330.528C245.715 330.528 245.363 330.64 245.096 330.864C244.84 331.088 244.712 331.413 244.712 331.84C244.712 332.139 244.808 332.389 245 332.592C245.203 332.784 245.448 332.944 245.736 333.072C246.035 333.189 246.451 333.328 246.984 333.488C247.71 333.701 248.302 333.915 248.76 334.128C249.219 334.341 249.614 334.661 249.944 335.088C250.275 335.515 250.44 336.075 250.44 336.768C250.44 337.365 250.286 337.92 249.976 338.432C249.667 338.944 249.214 339.355 248.616 339.664C248.019 339.963 247.31 340.112 246.488 340.112ZM261.07 331.136V340H258.814V338.88C258.526 339.264 258.148 339.568 257.678 339.792C257.22 340.005 256.718 340.112 256.174 340.112C255.481 340.112 254.868 339.968 254.334 339.68C253.801 339.381 253.38 338.949 253.07 338.384C252.772 337.808 252.622 337.125 252.622 336.336V331.136H254.862V336.016C254.862 336.72 255.038 337.264 255.39 337.648C255.742 338.021 256.222 338.208 256.83 338.208C257.449 338.208 257.934 338.021 258.286 337.648C258.638 337.264 258.814 336.72 258.814 336.016V331.136H261.07ZM265.841 332.512C266.129 332.043 266.502 331.675 266.961 331.408C267.43 331.141 267.963 331.008 268.561 331.008V333.36H267.969C267.265 333.36 266.731 333.525 266.369 333.856C266.017 334.187 265.841 334.763 265.841 335.584V340H263.601V331.136H265.841V332.512ZM274.085 337.936L276.325 331.136H278.709L275.429 340H272.709L269.445 331.136H271.845L274.085 337.936ZM281.423 330.08C281.029 330.08 280.698 329.957 280.431 329.712C280.175 329.456 280.047 329.141 280.047 328.768C280.047 328.395 280.175 328.085 280.431 327.84C280.698 327.584 281.029 327.456 281.423 327.456C281.818 327.456 282.143 327.584 282.399 327.84C282.666 328.085 282.799 328.395 282.799 328.768C282.799 329.141 282.666 329.456 282.399 329.712C282.143 329.957 281.818 330.08 281.423 330.08ZM282.527 331.136V340H280.287V331.136H282.527ZM288.757 337.936L290.997 331.136H293.381L290.101 340H287.381L284.117 331.136H286.517L288.757 337.936ZM294.383 335.536C294.383 334.64 294.559 333.845 294.911 333.152C295.273 332.459 295.759 331.925 296.367 331.552C296.985 331.179 297.673 330.992 298.431 330.992C299.092 330.992 299.668 331.125 300.159 331.392C300.66 331.659 301.06 331.995 301.359 332.4V331.136H303.615V340H301.359V338.704C301.071 339.12 300.671 339.467 300.159 339.744C299.657 340.011 299.076 340.144 298.415 340.144C297.668 340.144 296.985 339.952 296.367 339.568C295.759 339.184 295.273 338.645 294.911 337.952C294.559 337.248 294.383 336.443 294.383 335.536ZM301.359 335.568C301.359 335.024 301.252 334.56 301.039 334.176C300.825 333.781 300.537 333.483 300.175 333.28C299.812 333.067 299.423 332.96 299.007 332.96C298.591 332.96 298.207 333.061 297.855 333.264C297.503 333.467 297.215 333.765 296.991 334.16C296.777 334.544 296.671 335.003 296.671 335.536C296.671 336.069 296.777 336.539 296.991 336.944C297.215 337.339 297.503 337.643 297.855 337.856C298.217 338.069 298.601 338.176 299.007 338.176C299.423 338.176 299.812 338.075 300.175 337.872C300.537 337.659 300.825 337.36 301.039 336.976C301.252 336.581 301.359 336.112 301.359 335.568ZM308.362 328.16V340H306.122V328.16H308.362Z" fill="white"/>
<rect x="1" y="309" width="164" height="54" rx="20" fill="#00838F"/>
<rect x="1" y="309" width="164" height="54" rx="20" stroke="#90D9DA" stroke-width="2"/>
<path d="M46.0874 329.832C47.2607 329.832 48.29 330.061 49.1754 330.52C50.0714 330.979 50.7594 331.635 51.2394 332.488C51.73 333.331 51.9754 334.312 51.9754 335.432C51.9754 336.552 51.73 337.533 51.2394 338.376C50.7594 339.208 50.0714 339.853 49.1754 340.312C48.29 340.771 47.2607 341 46.0874 341H42.1834V329.832H46.0874ZM46.0074 339.096C47.1807 339.096 48.0874 338.776 48.7274 338.136C49.3674 337.496 49.6874 336.595 49.6874 335.432C49.6874 334.269 49.3674 333.363 48.7274 332.712C48.0874 332.051 47.1807 331.72 46.0074 331.72H44.4234V339.096H46.0074ZM55.1081 331.08C54.7135 331.08 54.3828 330.957 54.1161 330.712C53.8601 330.456 53.7321 330.141 53.7321 329.768C53.7321 329.395 53.8601 329.085 54.1161 328.84C54.3828 328.584 54.7135 328.456 55.1081 328.456C55.5028 328.456 55.8281 328.584 56.0841 328.84C56.3508 329.085 56.4841 329.395 56.4841 329.768C56.4841 330.141 56.3508 330.456 56.0841 330.712C55.8281 330.957 55.5028 331.08 55.1081 331.08ZM56.2121 332.136V341H53.9721V332.136H56.2121ZM58.1693 336.536C58.1693 335.64 58.3453 334.845 58.6973 334.152C59.0599 333.459 59.5453 332.925 60.1533 332.552C60.7719 332.179 61.4599 331.992 62.2173 331.992C62.8786 331.992 63.4546 332.125 63.9453 332.392C64.4466 332.659 64.8466 332.995 65.1453 333.4V332.136H67.4013V341H65.1453V339.704C64.8573 340.12 64.4573 340.467 63.9453 340.744C63.4439 341.011 62.8626 341.144 62.2013 341.144C61.4546 341.144 60.7719 340.952 60.1533 340.568C59.5453 340.184 59.0599 339.645 58.6973 338.952C58.3453 338.248 58.1693 337.443 58.1693 336.536ZM65.1453 336.568C65.1453 336.024 65.0386 335.56 64.8253 335.176C64.6119 334.781 64.3239 334.483 63.9613 334.28C63.5986 334.067 63.2093 333.96 62.7933 333.96C62.3773 333.96 61.9933 334.061 61.6413 334.264C61.2893 334.467 61.0013 334.765 60.7773 335.16C60.5639 335.544 60.4573 336.003 60.4573 336.536C60.4573 337.069 60.5639 337.539 60.7773 337.944C61.0013 338.339 61.2893 338.643 61.6413 338.856C62.0039 339.069 62.3879 339.176 62.7933 339.176C63.2093 339.176 63.5986 339.075 63.9613 338.872C64.3239 338.659 64.6119 338.36 64.8253 337.976C65.0386 337.581 65.1453 337.112 65.1453 336.568ZM73.381 331.992C74.0423 331.992 74.6237 332.125 75.125 332.392C75.6263 332.648 76.021 332.984 76.309 333.4V332.136H78.565V341.064C78.565 341.885 78.3997 342.616 78.069 343.256C77.7383 343.907 77.2423 344.419 76.581 344.792C75.9197 345.176 75.1197 345.368 74.181 345.368C72.9223 345.368 71.8877 345.075 71.077 344.488C70.277 343.901 69.8237 343.101 69.717 342.088H71.941C72.0583 342.493 72.309 342.813 72.693 343.048C73.0877 343.293 73.5623 343.416 74.117 343.416C74.7677 343.416 75.2957 343.219 75.701 342.824C76.1063 342.44 76.309 341.853 76.309 341.064V339.688C76.021 340.104 75.621 340.451 75.109 340.728C74.6077 341.005 74.0317 341.144 73.381 341.144C72.6343 341.144 71.9517 340.952 71.333 340.568C70.7143 340.184 70.2237 339.645 69.861 338.952C69.509 338.248 69.333 337.443 69.333 336.536C69.333 335.64 69.509 334.845 69.861 334.152C70.2237 333.459 70.709 332.925 71.317 332.552C71.9357 332.179 72.6237 331.992 73.381 331.992ZM76.309 336.568C76.309 336.024 76.2023 335.56 75.989 335.176C75.7757 334.781 75.4877 334.483 75.125 334.28C74.7623 334.067 74.373 333.96 73.957 333.96C73.541 333.96 73.157 334.061 72.805 334.264C72.453 334.467 72.165 334.765 71.941 335.16C71.7277 335.544 71.621 336.003 71.621 336.536C71.621 337.069 71.7277 337.539 71.941 337.944C72.165 338.339 72.453 338.643 72.805 338.856C73.1677 339.069 73.5517 339.176 73.957 339.176C74.373 339.176 74.7623 339.075 75.125 338.872C75.4877 338.659 75.7757 338.36 75.989 337.976C76.2023 337.581 76.309 337.112 76.309 336.568ZM85.9848 332.008C87.0408 332.008 87.8941 332.344 88.5448 333.016C89.1954 333.677 89.5208 334.605 89.5208 335.8V341H87.2808V336.104C87.2808 335.4 87.1048 334.861 86.7528 334.488C86.4008 334.104 85.9208 333.912 85.3128 333.912C84.6941 333.912 84.2034 334.104 83.8408 334.488C83.4888 334.861 83.3128 335.4 83.3128 336.104V341H81.0728V332.136H83.3128V333.24C83.6114 332.856 83.9901 332.557 84.4488 332.344C84.9181 332.12 85.4301 332.008 85.9848 332.008ZM95.9069 341.144C95.0535 341.144 94.2855 340.957 93.6029 340.584C92.9202 340.2 92.3815 339.661 91.9869 338.968C91.6029 338.275 91.4109 337.475 91.4109 336.568C91.4109 335.661 91.6082 334.861 92.0029 334.168C92.4082 333.475 92.9575 332.941 93.6509 332.568C94.3442 332.184 95.1175 331.992 95.9709 331.992C96.8242 331.992 97.5975 332.184 98.2909 332.568C98.9842 332.941 99.5282 333.475 99.9229 334.168C100.328 334.861 100.531 335.661 100.531 336.568C100.531 337.475 100.323 338.275 99.9069 338.968C99.5015 339.661 98.9469 340.2 98.2429 340.584C97.5495 340.957 96.7709 341.144 95.9069 341.144ZM95.9069 339.192C96.3122 339.192 96.6909 339.096 97.0429 338.904C97.4055 338.701 97.6935 338.403 97.9069 338.008C98.1202 337.613 98.2269 337.133 98.2269 336.568C98.2269 335.725 98.0029 335.08 97.5549 334.632C97.1175 334.173 96.5789 333.944 95.9389 333.944C95.2989 333.944 94.7602 334.173 94.3229 334.632C93.8962 335.08 93.6829 335.725 93.6829 336.568C93.6829 337.411 93.8909 338.061 94.3069 338.52C94.7335 338.968 95.2669 339.192 95.9069 339.192ZM105.886 341.144C105.161 341.144 104.51 341.016 103.934 340.76C103.358 340.493 102.899 340.136 102.558 339.688C102.227 339.24 102.046 338.744 102.014 338.2H104.27C104.313 338.541 104.478 338.824 104.766 339.048C105.065 339.272 105.433 339.384 105.87 339.384C106.297 339.384 106.627 339.299 106.862 339.128C107.107 338.957 107.23 338.739 107.23 338.472C107.23 338.184 107.081 337.971 106.782 337.832C106.494 337.683 106.03 337.523 105.39 337.352C104.729 337.192 104.185 337.027 103.758 336.856C103.342 336.685 102.979 336.424 102.67 336.072C102.371 335.72 102.222 335.245 102.222 334.648C102.222 334.157 102.361 333.709 102.638 333.304C102.926 332.899 103.331 332.579 103.854 332.344C104.387 332.109 105.011 331.992 105.726 331.992C106.782 331.992 107.625 332.259 108.254 332.792C108.883 333.315 109.23 334.024 109.294 334.92H107.15C107.118 334.568 106.969 334.291 106.702 334.088C106.446 333.875 106.099 333.768 105.662 333.768C105.257 333.768 104.942 333.843 104.718 333.992C104.505 334.141 104.398 334.349 104.398 334.616C104.398 334.915 104.547 335.144 104.846 335.304C105.145 335.453 105.609 335.608 106.238 335.768C106.878 335.928 107.406 336.093 107.822 336.264C108.238 336.435 108.595 336.701 108.894 337.064C109.203 337.416 109.363 337.885 109.374 338.472C109.374 338.984 109.23 339.443 108.942 339.848C108.665 340.253 108.259 340.573 107.726 340.808C107.203 341.032 106.59 341.144 105.886 341.144ZM112.669 331.08C112.274 331.08 111.943 330.957 111.677 330.712C111.421 330.456 111.293 330.141 111.293 329.768C111.293 329.395 111.421 329.085 111.677 328.84C111.943 328.584 112.274 328.456 112.669 328.456C113.063 328.456 113.389 328.584 113.645 328.84C113.911 329.085 114.045 329.395 114.045 329.768C114.045 330.141 113.911 330.456 113.645 330.712C113.389 330.957 113.063 331.08 112.669 331.08ZM113.773 332.136V341H111.533V332.136H113.773ZM119.698 341.144C118.973 341.144 118.322 341.016 117.746 340.76C117.17 340.493 116.711 340.136 116.37 339.688C116.039 339.24 115.858 338.744 115.826 338.2H118.082C118.125 338.541 118.29 338.824 118.578 339.048C118.877 339.272 119.245 339.384 119.682 339.384C120.109 339.384 120.439 339.299 120.674 339.128C120.919 338.957 121.042 338.739 121.042 338.472C121.042 338.184 120.893 337.971 120.594 337.832C120.306 337.683 119.842 337.523 119.202 337.352C118.541 337.192 117.997 337.027 117.57 336.856C117.154 336.685 116.791 336.424 116.482 336.072C116.183 335.72 116.034 335.245 116.034 334.648C116.034 334.157 116.173 333.709 116.45 333.304C116.738 332.899 117.143 332.579 117.666 332.344C118.199 332.109 118.823 331.992 119.538 331.992C120.594 331.992 121.437 332.259 122.066 332.792C122.695 333.315 123.042 334.024 123.106 334.92H120.962C120.93 334.568 120.781 334.291 120.514 334.088C120.258 333.875 119.911 333.768 119.474 333.768C119.069 333.768 118.754 333.843 118.53 333.992C118.317 334.141 118.21 334.349 118.21 334.616C118.21 334.915 118.359 335.144 118.658 335.304C118.957 335.453 119.421 335.608 120.05 335.768C120.69 335.928 121.218 336.093 121.634 336.264C122.05 336.435 122.407 336.701 122.706 337.064C123.015 337.416 123.175 337.885 123.186 338.472C123.186 338.984 123.042 339.443 122.754 339.848C122.477 340.253 122.071 340.573 121.538 340.808C121.015 341.032 120.402 341.144 119.698 341.144Z" fill="white"/>
<rect x="538" y="164" width="164" height="54" rx="20" fill="#00838F"/>
<rect x="538" y="164" width="164" height="54" rx="20" stroke="#90D9DA" stroke-width="2"/>
<path d="M567.776 196L565.312 191.648H564.256V196H562.016V184.832H566.208C567.072 184.832 567.808 184.987 568.416 185.296C569.024 185.595 569.478 186.005 569.776 186.528C570.086 187.04 570.24 187.616 570.24 188.256C570.24 188.992 570.027 189.659 569.6 190.256C569.174 190.843 568.539 191.248 567.696 191.472L570.368 196H567.776ZM564.256 189.968H566.128C566.736 189.968 567.19 189.824 567.488 189.536C567.787 189.237 567.936 188.827 567.936 188.304C567.936 187.792 567.787 187.397 567.488 187.12C567.19 186.832 566.736 186.688 566.128 186.688H564.256V189.968ZM580.826 191.376C580.826 191.696 580.805 191.984 580.762 192.24H574.282C574.336 192.88 574.56 193.381 574.954 193.744C575.349 194.107 575.834 194.288 576.41 194.288C577.242 194.288 577.834 193.931 578.186 193.216H580.602C580.346 194.069 579.856 194.773 579.13 195.328C578.405 195.872 577.514 196.144 576.458 196.144C575.605 196.144 574.837 195.957 574.154 195.584C573.482 195.2 572.954 194.661 572.57 193.968C572.197 193.275 572.01 192.475 572.01 191.568C572.01 190.651 572.197 189.845 572.57 189.152C572.944 188.459 573.466 187.925 574.138 187.552C574.81 187.179 575.584 186.992 576.458 186.992C577.301 186.992 578.053 187.173 578.714 187.536C579.386 187.899 579.904 188.416 580.266 189.088C580.64 189.749 580.826 190.512 580.826 191.376ZM578.506 190.736C578.496 190.16 578.288 189.701 577.882 189.36C577.477 189.008 576.981 188.832 576.394 188.832C575.84 188.832 575.37 189.003 574.986 189.344C574.613 189.675 574.384 190.139 574.298 190.736H578.506ZM586.845 188.976H585.293V196H583.021V188.976H582.013V187.136H583.021V186.688C583.021 185.6 583.331 184.8 583.949 184.288C584.568 183.776 585.501 183.536 586.749 183.568V185.456C586.205 185.445 585.827 185.536 585.613 185.728C585.4 185.92 585.293 186.267 585.293 186.768V187.136H586.845V188.976ZM596.857 191.376C596.857 191.696 596.835 191.984 596.793 192.24H590.313C590.366 192.88 590.59 193.381 590.985 193.744C591.379 194.107 591.865 194.288 592.441 194.288C593.273 194.288 593.865 193.931 594.217 193.216H596.633C596.377 194.069 595.886 194.773 595.161 195.328C594.435 195.872 593.545 196.144 592.489 196.144C591.635 196.144 590.867 195.957 590.185 195.584C589.513 195.2 588.985 194.661 588.601 193.968C588.227 193.275 588.041 192.475 588.041 191.568C588.041 190.651 588.227 189.845 588.601 189.152C588.974 188.459 589.497 187.925 590.169 187.552C590.841 187.179 591.614 186.992 592.489 186.992C593.331 186.992 594.083 187.173 594.745 187.536C595.417 187.899 595.934 188.416 596.297 189.088C596.67 189.749 596.857 190.512 596.857 191.376ZM594.537 190.736C594.526 190.16 594.318 189.701 593.913 189.36C593.507 189.008 593.011 188.832 592.425 188.832C591.87 188.832 591.401 189.003 591.017 189.344C590.643 189.675 590.414 190.139 590.329 190.736H594.537ZM601.052 188.512C601.34 188.043 601.713 187.675 602.172 187.408C602.641 187.141 603.174 187.008 603.772 187.008V189.36H603.18C602.476 189.36 601.942 189.525 601.58 189.856C601.228 190.187 601.052 190.763 601.052 191.584V196H598.812V187.136H601.052V188.512ZM613.841 191.376C613.841 191.696 613.819 191.984 613.777 192.24H607.297C607.35 192.88 607.574 193.381 607.969 193.744C608.363 194.107 608.849 194.288 609.425 194.288C610.257 194.288 610.849 193.931 611.201 193.216H613.617C613.361 194.069 612.87 194.773 612.145 195.328C611.419 195.872 610.529 196.144 609.473 196.144C608.619 196.144 607.851 195.957 607.169 195.584C606.497 195.2 605.969 194.661 605.585 193.968C605.211 193.275 605.025 192.475 605.025 191.568C605.025 190.651 605.211 189.845 605.585 189.152C605.958 188.459 606.481 187.925 607.153 187.552C607.825 187.179 608.598 186.992 609.473 186.992C610.315 186.992 611.067 187.173 611.729 187.536C612.401 187.899 612.918 188.416 613.281 189.088C613.654 189.749 613.841 190.512 613.841 191.376ZM611.521 190.736C611.51 190.16 611.302 189.701 610.897 189.36C610.491 189.008 609.995 188.832 609.409 188.832C608.854 188.832 608.385 189.003 608.001 189.344C607.627 189.675 607.398 190.139 607.313 190.736H611.521ZM620.708 187.008C621.764 187.008 622.617 187.344 623.268 188.016C623.918 188.677 624.244 189.605 624.244 190.8V196H622.004V191.104C622.004 190.4 621.828 189.861 621.476 189.488C621.124 189.104 620.644 188.912 620.036 188.912C619.417 188.912 618.926 189.104 618.564 189.488C618.212 189.861 618.036 190.4 618.036 191.104V196H615.796V187.136H618.036V188.24C618.334 187.856 618.713 187.557 619.172 187.344C619.641 187.12 620.153 187.008 620.708 187.008ZM626.118 191.568C626.118 190.651 626.304 189.851 626.678 189.168C627.051 188.475 627.568 187.941 628.23 187.568C628.891 187.184 629.648 186.992 630.502 186.992C631.6 186.992 632.507 187.269 633.222 187.824C633.947 188.368 634.432 189.136 634.678 190.128H632.262C632.134 189.744 631.915 189.445 631.606 189.232C631.307 189.008 630.934 188.896 630.486 188.896C629.846 188.896 629.339 189.131 628.966 189.6C628.592 190.059 628.406 190.715 628.406 191.568C628.406 192.411 628.592 193.067 628.966 193.536C629.339 193.995 629.846 194.224 630.486 194.224C631.392 194.224 631.984 193.819 632.262 193.008H634.678C634.432 193.968 633.947 194.731 633.222 195.296C632.496 195.861 631.59 196.144 630.502 196.144C629.648 196.144 628.891 195.957 628.23 195.584C627.568 195.2 627.051 194.667 626.678 193.984C626.304 193.291 626.118 192.485 626.118 191.568ZM644.879 191.376C644.879 191.696 644.857 191.984 644.815 192.24H638.335C638.388 192.88 638.612 193.381 639.007 193.744C639.401 194.107 639.887 194.288 640.463 194.288C641.295 194.288 641.887 193.931 642.239 193.216H644.655C644.399 194.069 643.908 194.773 643.183 195.328C642.457 195.872 641.567 196.144 640.511 196.144C639.657 196.144 638.889 195.957 638.207 195.584C637.535 195.2 637.007 194.661 636.623 193.968C636.249 193.275 636.063 192.475 636.063 191.568C636.063 190.651 636.249 189.845 636.623 189.152C636.996 188.459 637.519 187.925 638.191 187.552C638.863 187.179 639.636 186.992 640.511 186.992C641.353 186.992 642.105 187.173 642.767 187.536C643.439 187.899 643.956 188.416 644.319 189.088C644.692 189.749 644.879 190.512 644.879 191.376ZM642.559 190.736C642.548 190.16 642.34 189.701 641.935 189.36C641.529 189.008 641.033 188.832 640.447 188.832C639.892 188.832 639.423 189.003 639.039 189.344C638.665 189.675 638.436 190.139 638.351 190.736H642.559ZM657.862 184.832V186.64H653.206V189.504H656.774V191.28H653.206V196H650.966V184.832H657.862ZM660.907 186.08C660.512 186.08 660.181 185.957 659.915 185.712C659.659 185.456 659.531 185.141 659.531 184.768C659.531 184.395 659.659 184.085 659.915 183.84C660.181 183.584 660.512 183.456 660.907 183.456C661.301 183.456 661.627 183.584 661.883 183.84C662.149 184.085 662.283 184.395 662.283 184.768C662.283 185.141 662.149 185.456 661.883 185.712C661.627 185.957 661.301 186.08 660.907 186.08ZM662.011 187.136V196H659.771V187.136H662.011ZM666.784 184.16V196H664.544V184.16H666.784ZM677.557 191.376C677.557 191.696 677.535 191.984 677.493 192.24H671.013C671.066 192.88 671.29 193.381 671.685 193.744C672.079 194.107 672.565 194.288 673.141 194.288C673.973 194.288 674.565 193.931 674.917 193.216H677.333C677.077 194.069 676.586 194.773 675.861 195.328C675.135 195.872 674.245 196.144 673.189 196.144C672.335 196.144 671.567 195.957 670.885 195.584C670.213 195.2 669.685 194.661 669.301 193.968C668.927 193.275 668.741 192.475 668.741 191.568C668.741 190.651 668.927 189.845 669.301 189.152C669.674 188.459 670.197 187.925 670.869 187.552C671.541 187.179 672.314 186.992 673.189 186.992C674.031 186.992 674.783 187.173 675.445 187.536C676.117 187.899 676.634 188.416 676.997 189.088C677.37 189.749 677.557 190.512 677.557 191.376ZM675.237 190.736C675.226 190.16 675.018 189.701 674.613 189.36C674.207 189.008 673.711 188.832 673.125 188.832C672.57 188.832 672.101 189.003 671.717 189.344C671.343 189.675 671.114 190.139 671.029 190.736H675.237Z" fill="white"/>
<rect x="194" y="164" width="164" height="54" rx="20" fill="#00838F"/>
<rect x="194" y="164" width="164" height="54" rx="20" stroke="#90D9DA" stroke-width="2"/>
<path d="M238.023 188.288C238.023 188.885 237.879 189.445 237.591 189.968C237.314 190.491 236.871 190.912 236.263 191.232C235.666 191.552 234.908 191.712 233.991 191.712H232.119V196H229.879V184.832H233.991C234.855 184.832 235.591 184.981 236.199 185.28C236.807 185.579 237.26 185.989 237.559 186.512C237.868 187.035 238.023 187.627 238.023 188.288ZM233.895 189.904C234.514 189.904 234.972 189.765 235.271 189.488C235.57 189.2 235.719 188.8 235.719 188.288C235.719 187.2 235.111 186.656 233.895 186.656H232.119V189.904H233.895ZM239.357 191.536C239.357 190.64 239.533 189.845 239.885 189.152C240.248 188.459 240.733 187.925 241.341 187.552C241.96 187.179 242.648 186.992 243.405 186.992C244.067 186.992 244.643 187.125 245.133 187.392C245.635 187.659 246.035 187.995 246.333 188.4V187.136H248.589V196H246.333V194.704C246.045 195.12 245.645 195.467 245.133 195.744C244.632 196.011 244.051 196.144 243.389 196.144C242.643 196.144 241.96 195.952 241.341 195.568C240.733 195.184 240.248 194.645 239.885 193.952C239.533 193.248 239.357 192.443 239.357 191.536ZM246.333 191.568C246.333 191.024 246.227 190.56 246.013 190.176C245.8 189.781 245.512 189.483 245.149 189.28C244.787 189.067 244.397 188.96 243.981 188.96C243.565 188.96 243.181 189.061 242.829 189.264C242.477 189.467 242.189 189.765 241.965 190.16C241.752 190.544 241.645 191.003 241.645 191.536C241.645 192.069 241.752 192.539 241.965 192.944C242.189 193.339 242.477 193.643 242.829 193.856C243.192 194.069 243.576 194.176 243.981 194.176C244.397 194.176 244.787 194.075 245.149 193.872C245.512 193.659 245.8 193.36 246.013 192.976C246.227 192.581 246.333 192.112 246.333 191.568ZM253.337 188.512C253.625 188.043 253.998 187.675 254.457 187.408C254.926 187.141 255.46 187.008 256.057 187.008V189.36H255.465C254.761 189.36 254.228 189.525 253.865 189.856C253.513 190.187 253.337 190.763 253.337 191.584V196H251.097V187.136H253.337V188.512ZM260.494 188.976V193.264C260.494 193.563 260.563 193.781 260.702 193.92C260.851 194.048 261.097 194.112 261.438 194.112H262.478V196H261.07C259.182 196 258.238 195.083 258.238 193.248V188.976H257.182V187.136H258.238V184.944H260.494V187.136H262.478V188.976H260.494ZM265.545 186.08C265.15 186.08 264.82 185.957 264.553 185.712C264.297 185.456 264.169 185.141 264.169 184.768C264.169 184.395 264.297 184.085 264.553 183.84C264.82 183.584 265.15 183.456 265.545 183.456C265.94 183.456 266.265 183.584 266.521 183.84C266.788 184.085 266.921 184.395 266.921 184.768C266.921 185.141 266.788 185.456 266.521 185.712C266.265 185.957 265.94 186.08 265.545 186.08ZM266.649 187.136V196H264.409V187.136H266.649ZM268.606 191.568C268.606 190.651 268.793 189.851 269.166 189.168C269.539 188.475 270.057 187.941 270.718 187.568C271.379 187.184 272.137 186.992 272.99 186.992C274.089 186.992 274.995 187.269 275.71 187.824C276.435 188.368 276.921 189.136 277.166 190.128H274.75C274.622 189.744 274.403 189.445 274.094 189.232C273.795 189.008 273.422 188.896 272.974 188.896C272.334 188.896 271.827 189.131 271.454 189.6C271.081 190.059 270.894 190.715 270.894 191.568C270.894 192.411 271.081 193.067 271.454 193.536C271.827 193.995 272.334 194.224 272.974 194.224C273.881 194.224 274.473 193.819 274.75 193.008H277.166C276.921 193.968 276.435 194.731 275.71 195.296C274.985 195.861 274.078 196.144 272.99 196.144C272.137 196.144 271.379 195.957 270.718 195.584C270.057 195.2 269.539 194.667 269.166 193.984C268.793 193.291 268.606 192.485 268.606 191.568ZM280.263 186.08C279.868 186.08 279.538 185.957 279.271 185.712C279.015 185.456 278.887 185.141 278.887 184.768C278.887 184.395 279.015 184.085 279.271 183.84C279.538 183.584 279.868 183.456 280.263 183.456C280.658 183.456 280.983 183.584 281.239 183.84C281.506 184.085 281.639 184.395 281.639 184.768C281.639 185.141 281.506 185.456 281.239 185.712C280.983 185.957 280.658 186.08 280.263 186.08ZM281.367 187.136V196H279.127V187.136H281.367ZM286.14 188.416C286.428 188.011 286.823 187.675 287.324 187.408C287.836 187.131 288.418 186.992 289.068 186.992C289.826 186.992 290.508 187.179 291.116 187.552C291.735 187.925 292.22 188.459 292.572 189.152C292.935 189.835 293.116 190.629 293.116 191.536C293.116 192.443 292.935 193.248 292.572 193.952C292.22 194.645 291.735 195.184 291.116 195.568C290.508 195.952 289.826 196.144 289.068 196.144C288.418 196.144 287.842 196.011 287.34 195.744C286.85 195.477 286.45 195.141 286.14 194.736V200.224H283.9V187.136H286.14V188.416ZM290.828 191.536C290.828 191.003 290.716 190.544 290.492 190.16C290.279 189.765 289.991 189.467 289.628 189.264C289.276 189.061 288.892 188.96 288.476 188.96C288.071 188.96 287.687 189.067 287.324 189.28C286.972 189.483 286.684 189.781 286.46 190.176C286.247 190.571 286.14 191.035 286.14 191.568C286.14 192.101 286.247 192.565 286.46 192.96C286.684 193.355 286.972 193.659 287.324 193.872C287.687 194.075 288.071 194.176 288.476 194.176C288.892 194.176 289.276 194.069 289.628 193.856C289.991 193.643 290.279 193.339 290.492 192.944C290.716 192.549 290.828 192.08 290.828 191.536ZM294.488 191.536C294.488 190.64 294.664 189.845 295.016 189.152C295.379 188.459 295.864 187.925 296.472 187.552C297.091 187.179 297.779 186.992 298.536 186.992C299.197 186.992 299.773 187.125 300.264 187.392C300.765 187.659 301.165 187.995 301.464 188.4V187.136H303.72V196H301.464V194.704C301.176 195.12 300.776 195.467 300.264 195.744C299.763 196.011 299.181 196.144 298.52 196.144C297.773 196.144 297.091 195.952 296.472 195.568C295.864 195.184 295.379 194.645 295.016 193.952C294.664 193.248 294.488 192.443 294.488 191.536ZM301.464 191.568C301.464 191.024 301.357 190.56 301.144 190.176C300.931 189.781 300.643 189.483 300.28 189.28C299.917 189.067 299.528 188.96 299.112 188.96C298.696 188.96 298.312 189.061 297.96 189.264C297.608 189.467 297.32 189.765 297.096 190.16C296.883 190.544 296.776 191.003 296.776 191.536C296.776 192.069 296.883 192.539 297.096 192.944C297.32 193.339 297.608 193.643 297.96 193.856C298.323 194.069 298.707 194.176 299.112 194.176C299.528 194.176 299.917 194.075 300.28 193.872C300.643 193.659 300.931 193.36 301.144 192.976C301.357 192.581 301.464 192.112 301.464 191.568ZM311.14 187.008C312.196 187.008 313.049 187.344 313.7 188.016C314.35 188.677 314.676 189.605 314.676 190.8V196H312.436V191.104C312.436 190.4 312.26 189.861 311.908 189.488C311.556 189.104 311.076 188.912 310.468 188.912C309.849 188.912 309.358 189.104 308.996 189.488C308.644 189.861 308.468 190.4 308.468 191.104V196H306.228V187.136H308.468V188.24C308.766 187.856 309.145 187.557 309.604 187.344C310.073 187.12 310.585 187.008 311.14 187.008ZM319.734 188.976V193.264C319.734 193.563 319.803 193.781 319.942 193.92C320.091 194.048 320.337 194.112 320.678 194.112H321.718V196H320.31C318.422 196 317.478 195.083 317.478 193.248V188.976H316.422V187.136H317.478V184.944H319.734V187.136H321.718V188.976H319.734Z" fill="white"/>
</svg>
